<?xml version="1.0" encoding="utf-8"?><svg viewBox="0 0 459 259" width="100%" height="100%" version="1.1" xmlns:xlink="http://www.w3.org/1999/xlink" xmlns="http://www.w3.org/2000/svg"><defs><clipPath id="clip_0"><path d="M 0 0 l 459,0 l 0,259 l -459,0 z M286.5 108 C286.5 107.175 287.175 106.5 288 106.5 C288.825 106.5 289.5 107.175 289.5 108 C289.5 108.825 288.825 109.5 288 109.5 C287.175 109.5 286.5 108.825 286.5 108 Z " clip-rule="nonzero" /></clipPath><clipPath id="clip_1"><path d="M 0 0 l 459,0 l 0,259 l -459,0 z M286.5 162 C286.5 161.175 287.175 160.5 288 160.5 C288.825 160.5 289.5 161.175 289.5 162 C289.5 162.825 288.825 163.5 288 163.5 C287.175 163.5 286.5 162.825 286.5 162 Z " clip-rule="nonzero" /></clipPath><clipPath id="clip_2"><path d="M 0 0 l 459,0 l 0,259 l -459,0 z M277.5 216 C277.5 215.175 278.175 214.5 279 214.5 C279.825 214.5 280.5 215.175 280.5 216 C280.5 216.825 279.825 217.5 279 217.5 C278.175 217.5 277.5 216.825 277.5 216 Z " clip-rule="nonzero" /></clipPath><clipPath id="clip_3"><path d="M 0 0 l 459,0 l 0,259 l -459,0 z M277.5 270 C277.5 269.175 278.175 268.5 279 268.5 C279.825 268.5 280.5 269.175 280.5 270 C280.5 270.825 279.825 271.5 279 271.5 C278.175 271.5 277.5 270.825 277.5 270 Z " clip-rule="nonzero" /></clipPath><clipPath id="clip_4"><path d="M 0 0 l 459,0 l 0,259 l -459,0 z M277.5 261 C277.5 260.175 278.175 259.5 279 259.5 C279.825 259.5 280.5 260.175 280.5 261 C280.5 261.825 279.825 262.5 279 262.5 C278.175 262.5 277.5 261.825 277.5 261 Z " clip-rule="nonzero" /></clipPath><clipPath id="clip_5"><path d="M 0 0 l 459,0 l 0,259 l -459,0 z M404.947 143.2634 L412.8026 152.3348 L400.9504 150.4574 Z M412.5 153 C412.5 152.175 413.175 151.5 414 151.5 C414.825 151.5 415.5 152.175 415.5 153 C415.5 153.825 414.825 154.5 414 154.5 C413.175 154.5 412.5 153.825 412.5 153 Z " clip-rule="nonzero" /></clipPath><clipPath id="clip_6"><path d="M 0 0 l 459,0 l 0,259 l -459,0 z M401.8895 165.5143 L412.6386 170.8487 L400.9807 173.6935 Z M412.5 171 C412.5 170.175 413.175 169.5 414 169.5 C414.825 169.5 415.5 170.175 415.5 171 C415.5 171.825 414.825 172.5 414 172.5 C413.175 172.5 412.5 171.825 412.5 171 Z " clip-rule="nonzero" /></clipPath><clipPath id="clip_7"><path d="M 0 0 l 459,0 l 0,259 l -459,0 z M400.7179 189.5862 L412.7174 189.481 L403.6075 197.2918 Z M412.5 189 C412.5 188.175 413.175 187.5 414 187.5 C414.825 187.5 415.5 188.175 415.5 189 C415.5 189.825 414.825 190.5 414 190.5 C413.175 190.5 412.5 189.825 412.5 189 Z " clip-rule="nonzero" /></clipPath><clipPath id="clip_8"><path d="M 0 0 l 459,0 l 0,259 l -459,0 z M401.7761 212.2283 L412.9691 207.902 L407.1953 218.4216 Z M412.5 207 C412.5 206.175 413.175 205.5 414 205.5 C414.825 205.5 415.5 206.175 415.5 207 C415.5 207.825 414.825 208.5 414 208.5 C413.175 208.5 412.5 207.825 412.5 207 Z " clip-rule="nonzero" /></clipPath><clipPath id="clip_9"><path d="M 0 0 l 459,0 l 0,259 l -459,0 z M476.1422 175.1148 L464.8698 171 L476.1422 166.8852 Z M462 171 C462 170.175 462.675 169.5 463.5 169.5 C464.325 169.5 465 170.175 465 171 C465 171.825 464.325 172.5 463.5 172.5 C462.675 172.5 462 171.825 462 171 Z " clip-rule="nonzero" /></clipPath><clipPath id="clip_10"><path d="M 0 0 l 459,0 l 0,259 l -459,0 z M500.3578 166.8852 L511.6302 171 L500.3578 175.1148 Z M511.5 171 C511.5 170.175 512.175 169.5 513 169.5 C513.825 169.5 514.5 170.175 514.5 171 C514.5 171.825 513.825 172.5 513 172.5 C512.175 172.5 511.5 171.825 511.5 171 Z " clip-rule="nonzero" /></clipPath></defs><rect x="0" y="0" width="459" height="259" fill="#FFFFFF" fill-opacity="1" /><rect x="279" y="72" width="63" height="117" fill="none" stroke="#000000" stroke-width="2" stroke-linecap="butt" stroke-linejoin="miter" stroke-dasharray="" transform="matrix(1 0 0 1 -99.00006 -62.58967)" /><text x="282.0469" y="89" font-size="16" fill="#000000" fill-opacity="1" font-family="Arial" font-weight="normal" font-style="normal" transform="matrix(1 0 0 1 -99.00006 -62.58967)">browser</text><path d="M195.2449 154.3488 L172.8459 154.3488 L172.8459 190.0372 L195.2449 190.0372" fill="#666666" fill-opacity="1" transform="matrix(1 0 0 1 -99.00006 -62.58967)" /><path d="M195.2449 154.3488 L172.8459 154.3488 L172.8459 190.0372 L195.2449 190.0372" fill="none" stroke="#FFFFFF" stroke-width="1" stroke-linecap="butt" stroke-linejoin="miter" stroke-dasharray="" transform="matrix(1 0 0 1 -99.00006 -62.58967)" /><path d="M195.2449 154.3488 L172.8459 154.3488 L172.8459 190.0372 L195.2449 190.0372" fill="#666666" fill-opacity="1" transform="matrix(1 0 0 1 -99.00006 -62.58967)" /><path d="M195.2449 154.3488 L172.8459 154.3488 L172.8459 190.0372 L195.2449 190.0372" fill="none" stroke="#FFFFFF" stroke-width="1" stroke-linecap="butt" stroke-linejoin="miter" stroke-dasharray="" transform="matrix(1 0 0 1 -99.00006 -62.58967)" /><path d="M195.2449 190.0372 L202.3985 182.8779 L202.3985 147.1951 L179.9995 147.1951 L172.8459 154.3488 L195.2449 154.3488 Z " fill="#666666" fill-opacity="1" transform="matrix(1 0 0 1 -99.00006 -62.58967)" /><path d="M195.2449 190.0372 L202.3985 182.8779 L202.3985 147.1951 L179.9995 147.1951 L172.8459 154.3488 L195.2449 154.3488 Z " fill="none" stroke="#FFFFFF" stroke-width="1" stroke-linecap="butt" stroke-linejoin="miter" stroke-dasharray="" transform="matrix(1 0 0 1 -99.00006 -62.58967)" /><path d="M195.2449 190.0372 L202.3985 182.8779 L202.3985 147.1951 L179.9995 147.1951 L172.8459 154.3488 L195.2449 154.3488 Z " fill="#666666" fill-opacity="1" transform="matrix(1 0 0 1 -99.00006 -62.58967)" /><path d="M195.2449 190.0372 L202.3985 182.8779 L202.3985 147.1951 L179.9995 147.1951 L172.8459 154.3488 L195.2449 154.3488 Z " fill="none" stroke="#FFFFFF" stroke-width="1" stroke-linecap="butt" stroke-linejoin="miter" stroke-dasharray="" transform="matrix(1 0 0 1 -99.00006 -62.58967)" /><line x1="195.2449" y1="154.3488" x2="202.3985" y2="147.1951" stroke="#FFFFFF" stroke-width="1" stroke-linecap="butt" stroke-linejoin="miter" stroke-dasharray="" transform="matrix(1 0 0 1 -99.00006 -62.58967)" /><line x1="195.2449" y1="154.3488" x2="202.3985" y2="147.1951" stroke="#FFFFFF" stroke-width="1" stroke-linecap="butt" stroke-linejoin="miter" stroke-dasharray="" transform="matrix(1 0 0 1 -99.00006 -62.58967)" /><line x1="173.2041" y1="168.2526" x2="195.0411" y2="168.2526" stroke="#FFFFFF" stroke-width="1" stroke-linecap="butt" stroke-linejoin="miter" stroke-dasharray="" transform="matrix(1 0 0 1 -99.00006 -62.58967)" /><line x1="173.2041" y1="184.6294" x2="195.0411" y2="184.6294" stroke="#FFFFFF" stroke-width="1" stroke-linecap="butt" stroke-linejoin="miter" stroke-dasharray="" transform="matrix(1 0 0 1 -99.00006 -62.58967)" /><line x1="178.2993" y1="159.8821" x2="184.6683" y2="159.8821" stroke="#FFFFFF" stroke-width="1" stroke-linecap="butt" stroke-linejoin="miter" stroke-dasharray="" transform="matrix(1 0 0 1 -99.00006 -62.58967)" /><path d="M175.7518 162.0656 L187.0345 162.0656 L187.0345 157.5165 L175.7518 157.5165 Z " fill="#666666" fill-opacity="1" transform="matrix(1 0 0 1 -99.00006 -62.58967)" /><path d="M175.7518 162.0656 L187.0345 162.0656 L187.0345 157.5165 L175.7518 157.5165 Z " fill="none" stroke="#FFFFFF" stroke-width="1" stroke-linecap="butt" stroke-linejoin="miter" stroke-dasharray="" transform="matrix(1 0 0 1 -99.00006 -62.58967)" /><path d="M161.7894 95.9603 L142.0983 95.9603 L142.0983 133.2251 L161.7894 133.2251" fill="#666666" fill-opacity="1" transform="matrix(1 0 0 1 -99.00006 -62.58967)" /><path d="M161.7894 95.9603 L142.0983 95.9603 L142.0983 133.2251 L161.7894 133.2251" fill="none" stroke="#FFFFFF" stroke-width="1" stroke-linecap="butt" stroke-linejoin="miter" stroke-dasharray="" transform="matrix(1 0 0 1 -99.00006 -62.58967)" /><path d="M161.8015 133.3708 L168.09 127.9578 L168.09 90.30672 L148.3989 90.30672 L142.1104 95.71983 L161.8015 95.71983 Z " fill="#666666" fill-opacity="1" transform="matrix(1 0 0 1 -99.00006 -62.58967)" /><path d="M161.8015 133.3708 L168.09 127.9578 L168.09 90.30672 L148.3989 90.30672 L142.1104 95.71983 L161.8015 95.71983 Z " fill="none" stroke="#FFFFFF" stroke-width="1" stroke-linecap="butt" stroke-linejoin="miter" stroke-dasharray="" transform="matrix(1 0 0 1 -99.00006 -62.58967)" /><line x1="161.8015" y1="95.71983" x2="168.0718" y2="90" stroke="#FFFFFF" stroke-width="1" stroke-linecap="butt" stroke-linejoin="miter" stroke-dasharray="" transform="matrix(1 0 0 1 -99.00006 -62.58967)" /><path d="M153.7208 116.3028 L153.7208 114.863 L143.8029 114.863 L143.8029 116.3028 Z " fill="#666666" fill-opacity="1" transform="matrix(1 0 0 1 -99.00006 -62.58967)" /><path d="M153.7208 119.2787 L153.7208 117.8391 L143.8029 117.8391 L143.8029 119.2787 Z " fill="#666666" fill-opacity="1" transform="matrix(1 0 0 1 -99.00006 -62.58967)" /><path d="M153.7208 122.2682 L153.7208 120.8285 L143.8029 120.8285 L143.8029 122.2682 Z " fill="#666666" fill-opacity="1" transform="matrix(1 0 0 1 -99.00006 -62.58967)" /><path d="M143.8029 122.2682 L153.7208 122.2682 L153.7208 120.8285 L143.8029 120.8285 Z " fill="#666666" fill-opacity="1" transform="matrix(1 0 0 1 -99.00006 -62.58967)" /><path d="M143.8029 122.2682 L153.7208 122.2682 L153.7208 120.8285 L143.8029 120.8285 Z " fill="none" transform="matrix(1 0 0 1 -99.00006 -62.58967)" /><path d="M153.7208 125.2526 L153.7208 123.8129 L143.8029 123.8129 L143.8029 125.2526 Z " fill="#666666" fill-opacity="1" transform="matrix(1 0 0 1 -99.00006 -62.58967)" /><path d="M143.8029 125.2526 L153.7208 125.2526 L153.7208 123.8129 L143.8029 123.8129 Z " fill="#666666" fill-opacity="1" transform="matrix(1 0 0 1 -99.00006 -62.58967)" /><path d="M143.8029 125.2526 L153.7208 125.2526 L153.7208 123.8129 L143.8029 123.8129 Z " fill="none" transform="matrix(1 0 0 1 -99.00006 -62.58967)" /><path d="M153.7208 128.2363 L153.7208 126.797 L143.8029 126.797 L143.8029 128.2363 Z " fill="#666666" fill-opacity="1" transform="matrix(1 0 0 1 -99.00006 -62.58967)" /><path d="M153.7208 131.2208 L153.7208 129.7812 L143.8029 129.7812 L143.8029 131.2208 Z " fill="#666666" fill-opacity="1" transform="matrix(1 0 0 1 -99.00006 -62.58967)" /><path d="M143.8029 119.1696 L153.7208 119.1696 L153.7208 117.7299 L143.8029 117.7299 Z " fill="#666666" fill-opacity="1" transform="matrix(1 0 0 1 -99.00006 -62.58967)" /><path d="M143.8029 119.1696 L153.7208 119.1696 L153.7208 117.7299 L143.8029 117.7299 Z " fill="none" transform="matrix(1 0 0 1 -99.00006 -62.58967)" /><path d="M154.9161 101.3818 L154.9032 101.5713 L154.8647 101.7593 L154.8009 101.9435 L154.7138 102.1242 L154.6024 102.3034 L154.468 102.4774 L154.3107 102.6489 L154.1327 102.8166 L153.9332 102.9789 L153.713 103.1388 L153.4737 103.2925 L153.2151 103.4423 L152.9376 103.5867 L152.642 103.7262 L152.3283 103.8594 L151.9983 103.9874 L151.6527 104.109 L151.2919 104.2253 L150.9157 104.3343 L150.5254 104.4379 L150.1209 104.5326 L149.7039 104.6221 L149.2749 104.7026 L148.8336 104.7768 L148.3816 104.8436 L147.9185 104.9013 L147.4461 104.9512 L146.9644 104.9919 L146.4741 105.0239 L145.9758 105.0471 L145.47 105.0612 L144.958 105.066 C139.4589 105.066 135 103.4166 135 101.3818 L135 109.8804 C135 111.9102 139.4589 113.5647 144.958 113.5647 C150.4562 113.5647 154.9161 111.9102 154.9161 109.8804 Z " fill="#666666" fill-opacity="1" transform="matrix(1 0 0 1 -99.00006 -62.58967)" /><path d="M154.9161 101.3818 L154.9032 101.5713 L154.8647 101.7593 L154.8009 101.9435 L154.7138 102.1242 L154.6024 102.3034 L154.468 102.4774 L154.3107 102.6489 L154.1327 102.8166 L153.9332 102.9789 L153.713 103.1388 L153.4737 103.2925 L153.2151 103.4423 L152.9376 103.5867 L152.642 103.7262 L152.3283 103.8594 L151.9983 103.9874 L151.6527 104.109 L151.2919 104.2253 L150.9157 104.3343 L150.5254 104.4379 L150.1209 104.5326 L149.7039 104.6221 L149.2749 104.7026 L148.8336 104.7768 L148.3816 104.8436 L147.9185 104.9013 L147.4461 104.9512 L146.9644 104.9919 L146.4741 105.0239 L145.9758 105.0471 L145.47 105.0612 L144.958 105.066 C139.4589 105.066 135 103.4166 135 101.3818 L135 109.8804 C135 111.9102 139.4589 113.5647 144.958 113.5647 C150.4562 113.5647 154.9161 111.9102 154.9161 109.8804 Z " fill="#666666" fill-opacity="1" transform="matrix(1 0 0 1 -99.00006 -62.58967)" /><path d="M154.9161 101.3818 L154.9032 101.5713 L154.8647 101.7593 L154.8009 101.9435 L154.7138 102.1242 L154.6024 102.3034 L154.468 102.4774 L154.3107 102.6489 L154.1327 102.8166 L153.9332 102.9789 L153.713 103.1388 L153.4737 103.2925 L153.2151 103.4423 L152.9376 103.5867 L152.642 103.7262 L152.3283 103.8594 L151.9983 103.9874 L151.6527 104.109 L151.2919 104.2253 L150.9157 104.3343 L150.5254 104.4379 L150.1209 104.5326 L149.7039 104.6221 L149.2749 104.7026 L148.8336 104.7768 L148.3816 104.8436 L147.9185 104.9013 L147.4461 104.9512 L146.9644 104.9919 L146.4741 105.0239 L145.9758 105.0471 L145.47 105.0612 L144.958 105.066 C139.4589 105.066 135 103.4166 135 101.3818 L135 109.8804 C135 111.9102 139.4589 113.5647 144.958 113.5647 C150.4562 113.5647 154.9161 111.9102 154.9161 109.8804 Z " fill="none" stroke="#FFFFFF" stroke-width="1" stroke-linecap="butt" stroke-linejoin="miter" stroke-dasharray="" transform="matrix(1 0 0 1 -99.00006 -62.58967)" /><path d="M144.958 105.066 L145.47 105.0612 L145.9758 105.0471 L146.4741 105.0239 L146.9644 104.9919 L147.4461 104.9512 L147.9185 104.9013 L148.3816 104.8436 L148.8336 104.7768 L149.2749 104.7026 L149.7039 104.6221 L150.1209 104.5326 L150.5254 104.4379 L150.9157 104.3343 L151.2919 104.2253 L151.6527 104.109 L151.9983 103.9874 L152.3283 103.8594 L152.642 103.7262 L152.9376 103.5867 L153.2151 103.4423 L153.4737 103.2925 L153.713 103.1388 L153.9332 102.9789 L154.1327 102.8166 L154.3107 102.6489 L154.468 102.4774 L154.6024 102.3034 L154.7138 102.1242 L154.8009 101.9435 L154.8647 101.7593 L154.9032 101.5713 L154.9161 101.3818 C154.9161 99.34315 150.4562 97.69363 144.958 97.69363 C139.4589 97.69363 135 99.34315 135 101.3818 C135 103.4166 139.4589 105.066 144.958 105.066 Z " fill="#666666" fill-opacity="1" transform="matrix(1 0 0 1 -99.00006 -62.58967)" /><path d="M144.958 105.066 L145.47 105.0612 L145.9758 105.0471 L146.4741 105.0239 L146.9644 104.9919 L147.4461 104.9512 L147.9185 104.9013 L148.3816 104.8436 L148.8336 104.7768 L149.2749 104.7026 L149.7039 104.6221 L150.1209 104.5326 L150.5254 104.4379 L150.9157 104.3343 L151.2919 104.2253 L151.6527 104.109 L151.9983 103.9874 L152.3283 103.8594 L152.642 103.7262 L152.9376 103.5867 L153.2151 103.4423 L153.4737 103.2925 L153.713 103.1388 L153.9332 102.9789 L154.1327 102.8166 L154.3107 102.6489 L154.468 102.4774 L154.6024 102.3034 L154.7138 102.1242 L154.8009 101.9435 L154.8647 101.7593 L154.9032 101.5713 L154.9161 101.3818 C154.9161 99.34315 150.4562 97.69363 144.958 97.69363 C139.4589 97.69363 135 99.34315 135 101.3818 C135 103.4166 139.4589 105.066 144.958 105.066 Z " fill="#666666" fill-opacity="1" transform="matrix(1 0 0 1 -99.00006 -62.58967)" /><path d="M144.958 105.066 L145.47 105.0612 L145.9758 105.0471 L146.4741 105.0239 L146.9644 104.9919 L147.4461 104.9512 L147.9185 104.9013 L148.3816 104.8436 L148.8336 104.7768 L149.2749 104.7026 L149.7039 104.6221 L150.1209 104.5326 L150.5254 104.4379 L150.9157 104.3343 L151.2919 104.2253 L151.6527 104.109 L151.9983 103.9874 L152.3283 103.8594 L152.642 103.7262 L152.9376 103.5867 L153.2151 103.4423 L153.4737 103.2925 L153.713 103.1388 L153.9332 102.9789 L154.1327 102.8166 L154.3107 102.6489 L154.468 102.4774 L154.6024 102.3034 L154.7138 102.1242 L154.8009 101.9435 L154.8647 101.7593 L154.9032 101.5713 L154.9161 101.3818 C154.9161 99.34315 150.4562 97.69363 144.958 97.69363 C139.4589 97.69363 135 99.34315 135 101.3818 C135 103.4166 139.4589 105.066 144.958 105.066 Z " fill="none" stroke="#FFFFFF" stroke-width="1" stroke-linecap="butt" stroke-linejoin="miter" stroke-dasharray="" transform="matrix(1 0 0 1 -99.00006 -62.58967)" /><path d="M143.7902 128.2315 L153.7076 128.2315 L153.7076 126.7918 L143.7902 126.7918 Z " fill="#666666" fill-opacity="1" transform="matrix(1 0 0 1 -99.00006 -62.58967)" /><path d="M143.7902 128.2315 L153.7076 128.2315 L153.7076 126.7918 L143.7902 126.7918 Z " fill="none" transform="matrix(1 0 0 1 -99.00006 -62.58967)" /><path d="M161.7894 203.9603 L142.0983 203.9603 L142.0983 241.2251 L161.7894 241.2251" fill="#666666" fill-opacity="1" transform="matrix(1 0 0 1 -99.00006 -62.58967)" /><path d="M161.7894 203.9603 L142.0983 203.9603 L142.0983 241.2251 L161.7894 241.2251" fill="none" stroke="#FFFFFF" stroke-width="1" stroke-linecap="butt" stroke-linejoin="miter" stroke-dasharray="" transform="matrix(1 0 0 1 -99.00006 -62.58967)" /><path d="M161.8015 241.3708 L168.09 235.9578 L168.09 198.3067 L148.3989 198.3067 L142.1104 203.7198 L161.8015 203.7198 Z " fill="#666666" fill-opacity="1" transform="matrix(1 0 0 1 -99.00006 -62.58967)" /><path d="M161.8015 241.3708 L168.09 235.9578 L168.09 198.3067 L148.3989 198.3067 L142.1104 203.7198 L161.8015 203.7198 Z " fill="none" stroke="#FFFFFF" stroke-width="1" stroke-linecap="butt" stroke-linejoin="miter" stroke-dasharray="" transform="matrix(1 0 0 1 -99.00006 -62.58967)" /><line x1="161.8015" y1="203.7198" x2="168.0718" y2="198" stroke="#FFFFFF" stroke-width="1" stroke-linecap="butt" stroke-linejoin="miter" stroke-dasharray="" transform="matrix(1 0 0 1 -99.00006 -62.58967)" /><path d="M153.7208 224.3027 L153.7208 222.863 L143.8029 222.863 L143.8029 224.3027 Z " fill="#666666" fill-opacity="1" transform="matrix(1 0 0 1 -99.00006 -62.58967)" /><path d="M153.7208 227.2787 L153.7208 225.8391 L143.8029 225.8391 L143.8029 227.2787 Z " fill="#666666" fill-opacity="1" transform="matrix(1 0 0 1 -99.00006 -62.58967)" /><path d="M153.7208 230.2682 L153.7208 228.8285 L143.8029 228.8285 L143.8029 230.2682 Z " fill="#666666" fill-opacity="1" transform="matrix(1 0 0 1 -99.00006 -62.58967)" /><path d="M143.8029 230.2682 L153.7208 230.2682 L153.7208 228.8285 L143.8029 228.8285 Z " fill="#666666" fill-opacity="1" transform="matrix(1 0 0 1 -99.00006 -62.58967)" /><path d="M143.8029 230.2682 L153.7208 230.2682 L153.7208 228.8285 L143.8029 228.8285 Z " fill="none" transform="matrix(1 0 0 1 -99.00006 -62.58967)" /><path d="M153.7208 233.2526 L153.7208 231.8129 L143.8029 231.8129 L143.8029 233.2526 Z " fill="#666666" fill-opacity="1" transform="matrix(1 0 0 1 -99.00006 -62.58967)" /><path d="M143.8029 233.2526 L153.7208 233.2526 L153.7208 231.8129 L143.8029 231.8129 Z " fill="#666666" fill-opacity="1" transform="matrix(1 0 0 1 -99.00006 -62.58967)" /><path d="M143.8029 233.2526 L153.7208 233.2526 L153.7208 231.8129 L143.8029 231.8129 Z " fill="none" transform="matrix(1 0 0 1 -99.00006 -62.58967)" /><path d="M153.7208 236.2363 L153.7208 234.797 L143.8029 234.797 L143.8029 236.2363 Z " fill="#666666" fill-opacity="1" transform="matrix(1 0 0 1 -99.00006 -62.58967)" /><path d="M153.7208 239.2208 L153.7208 237.7812 L143.8029 237.7812 L143.8029 239.2208 Z " fill="#666666" fill-opacity="1" transform="matrix(1 0 0 1 -99.00006 -62.58967)" /><path d="M143.8029 227.1696 L153.7208 227.1696 L153.7208 225.7299 L143.8029 225.7299 Z " fill="#666666" fill-opacity="1" transform="matrix(1 0 0 1 -99.00006 -62.58967)" /><path d="M143.8029 227.1696 L153.7208 227.1696 L153.7208 225.7299 L143.8029 225.7299 Z " fill="none" transform="matrix(1 0 0 1 -99.00006 -62.58967)" /><path d="M154.9161 209.3818 L154.9032 209.5713 L154.8647 209.7593 L154.8009 209.9435 L154.7138 210.1241 L154.6024 210.3034 L154.468 210.4774 L154.3107 210.6489 L154.1327 210.8166 L153.9332 210.9789 L153.713 211.1388 L153.4737 211.2925 L153.2151 211.4423 L152.9376 211.5867 L152.642 211.7262 L152.3283 211.8594 L151.9983 211.9874 L151.6527 212.109 L151.2919 212.2253 L150.9157 212.3343 L150.5254 212.4379 L150.1209 212.5326 L149.7039 212.6221 L149.2749 212.7026 L148.8336 212.7768 L148.3816 212.8436 L147.9185 212.9013 L147.4461 212.9512 L146.9644 212.9919 L146.4741 213.0239 L145.9758 213.0471 L145.47 213.0612 L144.958 213.066 C139.4589 213.066 135 211.4165 135 209.3818 L135 217.8803 C135 219.9102 139.4589 221.5647 144.958 221.5647 C150.4562 221.5647 154.9161 219.9102 154.9161 217.8803 Z " fill="#666666" fill-opacity="1" transform="matrix(1 0 0 1 -99.00006 -62.58967)" /><path d="M154.9161 209.3818 L154.9032 209.5713 L154.8647 209.7593 L154.8009 209.9435 L154.7138 210.1241 L154.6024 210.3034 L154.468 210.4774 L154.3107 210.6489 L154.1327 210.8166 L153.9332 210.9789 L153.713 211.1388 L153.4737 211.2925 L153.2151 211.4423 L152.9376 211.5867 L152.642 211.7262 L152.3283 211.8594 L151.9983 211.9874 L151.6527 212.109 L151.2919 212.2253 L150.9157 212.3343 L150.5254 212.4379 L150.1209 212.5326 L149.7039 212.6221 L149.2749 212.7026 L148.8336 212.7768 L148.3816 212.8436 L147.9185 212.9013 L147.4461 212.9512 L146.9644 212.9919 L146.4741 213.0239 L145.9758 213.0471 L145.47 213.0612 L144.958 213.066 C139.4589 213.066 135 211.4165 135 209.3818 L135 217.8803 C135 219.9102 139.4589 221.5647 144.958 221.5647 C150.4562 221.5647 154.9161 219.9102 154.9161 217.8803 Z " fill="#666666" fill-opacity="1" transform="matrix(1 0 0 1 -99.00006 -62.58967)" /><path d="M154.9161 209.3818 L154.9032 209.5713 L154.8647 209.7593 L154.8009 209.9435 L154.7138 210.1241 L154.6024 210.3034 L154.468 210.4774 L154.3107 210.6489 L154.1327 210.8166 L153.9332 210.9789 L153.713 211.1388 L153.4737 211.2925 L153.2151 211.4423 L152.9376 211.5867 L152.642 211.7262 L152.3283 211.8594 L151.9983 211.9874 L151.6527 212.109 L151.2919 212.2253 L150.9157 212.3343 L150.5254 212.4379 L150.1209 212.5326 L149.7039 212.6221 L149.2749 212.7026 L148.8336 212.7768 L148.3816 212.8436 L147.9185 212.9013 L147.4461 212.9512 L146.9644 212.9919 L146.4741 213.0239 L145.9758 213.0471 L145.47 213.0612 L144.958 213.066 C139.4589 213.066 135 211.4165 135 209.3818 L135 217.8803 C135 219.9102 139.4589 221.5647 144.958 221.5647 C150.4562 221.5647 154.9161 219.9102 154.9161 217.8803 Z " fill="none" stroke="#FFFFFF" stroke-width="1" stroke-linecap="butt" stroke-linejoin="miter" stroke-dasharray="" transform="matrix(1 0 0 1 -99.00006 -62.58967)" /><path d="M144.958 213.066 L145.47 213.0612 L145.9758 213.0471 L146.4741 213.0239 L146.9644 212.9919 L147.4461 212.9512 L147.9185 212.9013 L148.3816 212.8436 L148.8336 212.7768 L149.2749 212.7026 L149.7039 212.6221 L150.1209 212.5326 L150.5254 212.4379 L150.9157 212.3343 L151.2919 212.2253 L151.6527 212.109 L151.9983 211.9874 L152.3283 211.8594 L152.642 211.7262 L152.9376 211.5867 L153.2151 211.4423 L153.4737 211.2925 L153.713 211.1388 L153.9332 210.9789 L154.1327 210.8166 L154.3107 210.6489 L154.468 210.4774 L154.6024 210.3034 L154.7138 210.1241 L154.8009 209.9435 L154.8647 209.7593 L154.9032 209.5713 L154.9161 209.3818 C154.9161 207.3432 150.4562 205.6936 144.958 205.6936 C139.4589 205.6936 135 207.3432 135 209.3818 C135 211.4165 139.4589 213.066 144.958 213.066 Z " fill="#666666" fill-opacity="1" transform="matrix(1 0 0 1 -99.00006 -62.58967)" /><path d="M144.958 213.066 L145.47 213.0612 L145.9758 213.0471 L146.4741 213.0239 L146.9644 212.9919 L147.4461 212.9512 L147.9185 212.9013 L148.3816 212.8436 L148.8336 212.7768 L149.2749 212.7026 L149.7039 212.6221 L150.1209 212.5326 L150.5254 212.4379 L150.9157 212.3343 L151.2919 212.2253 L151.6527 212.109 L151.9983 211.9874 L152.3283 211.8594 L152.642 211.7262 L152.9376 211.5867 L153.2151 211.4423 L153.4737 211.2925 L153.713 211.1388 L153.9332 210.9789 L154.1327 210.8166 L154.3107 210.6489 L154.468 210.4774 L154.6024 210.3034 L154.7138 210.1241 L154.8009 209.9435 L154.8647 209.7593 L154.9032 209.5713 L154.9161 209.3818 C154.9161 207.3432 150.4562 205.6936 144.958 205.6936 C139.4589 205.6936 135 207.3432 135 209.3818 C135 211.4165 139.4589 213.066 144.958 213.066 Z " fill="#666666" fill-opacity="1" transform="matrix(1 0 0 1 -99.00006 -62.58967)" /><path d="M144.958 213.066 L145.47 213.0612 L145.9758 213.0471 L146.4741 213.0239 L146.9644 212.9919 L147.4461 212.9512 L147.9185 212.9013 L148.3816 212.8436 L148.8336 212.7768 L149.2749 212.7026 L149.7039 212.6221 L150.1209 212.5326 L150.5254 212.4379 L150.9157 212.3343 L151.2919 212.2253 L151.6527 212.109 L151.9983 211.9874 L152.3283 211.8594 L152.642 211.7262 L152.9376 211.5867 L153.2151 211.4423 L153.4737 211.2925 L153.713 211.1388 L153.9332 210.9789 L154.1327 210.8166 L154.3107 210.6489 L154.468 210.4774 L154.6024 210.3034 L154.7138 210.1241 L154.8009 209.9435 L154.8647 209.7593 L154.9032 209.5713 L154.9161 209.3818 C154.9161 207.3432 150.4562 205.6936 144.958 205.6936 C139.4589 205.6936 135 207.3432 135 209.3818 C135 211.4165 139.4589 213.066 144.958 213.066 Z " fill="none" stroke="#FFFFFF" stroke-width="1" stroke-linecap="butt" stroke-linejoin="miter" stroke-dasharray="" transform="matrix(1 0 0 1 -99.00006 -62.58967)" /><path d="M143.7902 236.2315 L153.7076 236.2315 L153.7076 234.7918 L143.7902 234.7918 Z " fill="#666666" fill-opacity="1" transform="matrix(1 0 0 1 -99.00006 -62.58967)" /><path d="M143.7902 236.2315 L153.7076 236.2315 L153.7076 234.7918 L143.7902 234.7918 Z " fill="none" transform="matrix(1 0 0 1 -99.00006 -62.58967)" /><rect x="288" y="99" width="45" height="27" fill="#FFFFFF" fill-opacity="1" transform="matrix(1 0 0 1 -99.00006 -62.58967)" /><rect x="288" y="99" width="45" height="27" fill="none" stroke="#000000" stroke-width="1" stroke-linecap="butt" stroke-linejoin="miter" stroke-dasharray="" transform="matrix(1 0 0 1 -99.00006 -62.58967)" /><text x="292.707" y="117.5625" font-size="16" fill="#000000" fill-opacity="1" font-family="Arial" font-weight="normal" font-style="normal" transform="matrix(1 0 0 1 -99.00006 -62.58967)">tab 1</text><rect x="288" y="153" width="45" height="27" fill="#FFFFFF" fill-opacity="1" transform="matrix(1 0 0 1 -99.00006 -62.58967)" /><rect x="288" y="153" width="45" height="27" fill="none" stroke="#000000" stroke-width="1" stroke-linecap="butt" stroke-linejoin="miter" stroke-dasharray="" transform="matrix(1 0 0 1 -99.00006 -62.58967)" /><text x="291.3789" y="171.5625" font-size="16" fill="#000000" fill-opacity="1" font-family="Arial" font-weight="normal" font-style="normal" transform="matrix(1 0 0 1 -99.00006 -62.58967)">tab N</text><text x="307.7148" y="148.668" font-size="16" fill="#000000" fill-opacity="1" font-family="Arial" font-weight="normal" font-style="normal" transform="matrix(1 0 0 1 -99.00006 -62.58967)">⋮</text><rect x="279" y="207" width="63" height="27" fill="none" stroke="#000000" stroke-width="1" stroke-linecap="butt" stroke-linejoin="miter" stroke-dasharray="" transform="matrix(1 0 0 1 -99.00006 -62.58967)" /><text x="290.4805" y="225.5625" font-size="16" fill="#000000" fill-opacity="1" font-family="Arial" font-weight="normal" font-style="normal" transform="matrix(1 0 0 1 -99.00006 -62.58967)">app 1</text><text x="307.7148" y="256.668" font-size="16" fill="#000000" fill-opacity="1" font-family="Arial" font-weight="normal" font-style="normal" transform="matrix(1 0 0 1 -99.00006 -62.58967)">⋮</text><rect x="279" y="261" width="63" height="27" fill="none" stroke="#000000" stroke-width="1" stroke-linecap="butt" stroke-linejoin="miter" stroke-dasharray="" transform="matrix(1 0 0 1 -99.00006 -62.58967)" /><text x="288.2656" y="279.5625" font-size="16" fill="#000000" fill-opacity="1" font-family="Arial" font-weight="normal" font-style="normal" transform="matrix(1 0 0 1 -99.00006 -62.58967)">app M</text><g clip-path="url(#clip_0)"><line x1="171" y1="108" x2="288" y2="108" stroke="#000000" stroke-width="1" stroke-linecap="butt" stroke-linejoin="miter" stroke-dasharray="" transform="matrix(1 0 0 1 -99.00006 -62.58967)" /></g><path d="M275.3578 103.8852 L286.6302 108 L275.3578 112.1148 Z " fill="#000000" fill-opacity="1" transform="matrix(1 0 0 1 -99.00006 -62.58967)" /><path d="M275.3578 103.8852 L286.6302 108 L275.3578 112.1148 Z " fill="none" stroke="#000000" stroke-width="1" stroke-linecap="butt" stroke-linejoin="miter" stroke-dasharray="" transform="matrix(1 0 0 1 -99.00006 -62.58967)" /><g clip-path="url(#clip_1)"><line x1="207" y1="162" x2="288" y2="162" stroke="#000000" stroke-width="1" stroke-linecap="butt" stroke-linejoin="miter" stroke-dasharray="" transform="matrix(1 0 0 1 -99.00006 -62.58967)" /></g><path d="M275.3578 157.8852 L286.6302 162 L275.3578 166.1148 Z " fill="#000000" fill-opacity="1" transform="matrix(1 0 0 1 -99.00006 -62.58967)" /><path d="M275.3578 157.8852 L286.6302 162 L275.3578 166.1148 Z " fill="none" stroke="#000000" stroke-width="1" stroke-linecap="butt" stroke-linejoin="miter" stroke-dasharray="" transform="matrix(1 0 0 1 -99.00006 -62.58967)" /><g clip-path="url(#clip_2)"><line x1="180" y1="216" x2="279" y2="216" stroke="#000000" stroke-width="1" stroke-linecap="butt" stroke-linejoin="miter" stroke-dasharray="" transform="matrix(1 0 0 1 -99.00006 -62.58967)" /></g><path d="M266.3578 211.8852 L277.6302 216 L266.3578 220.1148 Z " fill="#000000" fill-opacity="1" transform="matrix(1 0 0 1 -99.00006 -62.58967)" /><path d="M266.3578 211.8852 L277.6302 216 L266.3578 220.1148 Z " fill="none" stroke="#000000" stroke-width="1" stroke-linecap="butt" stroke-linejoin="miter" stroke-dasharray="" transform="matrix(1 0 0 1 -99.00006 -62.58967)" /><g clip-path="url(#clip_3)"><line x1="162" y1="270" x2="279" y2="270" stroke="#000000" stroke-width="1" stroke-linecap="butt" stroke-linejoin="miter" stroke-dasharray="" transform="matrix(1 0 0 1 -99.00006 -62.58967)" /></g><path d="M266.3578 265.8852 L277.6302 270 L266.3578 274.1148 Z " fill="#000000" fill-opacity="1" transform="matrix(1 0 0 1 -99.00006 -62.58967)" /><path d="M266.3578 265.8852 L277.6302 270 L266.3578 274.1148 Z " fill="none" stroke="#000000" stroke-width="1" stroke-linecap="butt" stroke-linejoin="miter" stroke-dasharray="" transform="matrix(1 0 0 1 -99.00006 -62.58967)" /><g clip-path="url(#clip_4)"><line x1="242.4135" y1="252.4402" x2="279" y2="261" stroke="#000000" stroke-width="1" stroke-linecap="butt" stroke-linejoin="miter" stroke-dasharray="" transform="matrix(1 0 0 1 -99.00006 -62.58967)" /></g><path d="M267.6276 254.1134 L277.6663 260.688 L265.7528 262.1266 Z " fill="#000000" fill-opacity="1" transform="matrix(1 0 0 1 -99.00006 -62.58967)" /><path d="M267.6276 254.1134 L277.6663 260.688 L265.7528 262.1266 Z " fill="none" stroke="#000000" stroke-width="1" stroke-linecap="butt" stroke-linejoin="miter" stroke-dasharray="" transform="matrix(1 0 0 1 -99.00006 -62.58967)" /><path d="M444.472 175.698 L436.8939 175.698 C429.2209 175.698 423 181.9188 423 189.5922 C423 190.9872 424.1313 192.1185 425.5263 192.1185 L455.8394 192.1185 C457.2343 192.1185 458.3655 190.9872 458.3655 189.5922 C458.3655 181.9188 452.145 175.698 444.472 175.698 Z M426.8676 188.3292 C427.4911 183.3477 431.7469 179.4874 436.8939 179.4874 L444.472 179.4874 C449.6157 179.4874 453.8738 183.3517 454.4974 188.3292 L426.8676 188.3292 Z M440.683 171.9086 C446.2632 171.9086 450.7873 167.3845 450.7873 161.8039 C450.7873 156.2234 446.2632 151.6992 440.683 151.6992 C435.1028 151.6992 430.5786 156.2234 430.5786 161.8039 C430.5786 167.3852 435.1019 171.9086 440.683 171.9086 Z M440.683 155.4884 C444.165 155.4884 446.9982 158.3217 446.9982 161.8039 C446.9982 165.2861 444.165 168.1194 440.683 168.1194 C437.201 168.1194 434.3677 165.2853 434.3677 161.8039 C434.3677 158.3217 437.2018 155.4884 440.683 155.4884 Z " fill-rule="nonzero" fill="#000000" fill-opacity="1" transform="matrix(1 0 0 1 -99.00006 -62.58967)" /><g clip-path="url(#clip_5)"><line x1="333" y1="108" x2="414" y2="153" stroke="#000000" stroke-width="1" stroke-linecap="butt" stroke-linejoin="miter" stroke-dasharray="4,4" transform="matrix(1 0 0 1 -99.00006 -62.58967)" /></g><path d="M404.947 143.2634 L412.8026 152.3348 L400.9504 150.4574 Z " fill="none" stroke="#000000" stroke-width="1" stroke-linecap="butt" stroke-linejoin="miter" stroke-dasharray="" transform="matrix(1 0 0 1 -99.00006 -62.58967)" /><g clip-path="url(#clip_6)"><line x1="333" y1="162" x2="414" y2="171" stroke="#000000" stroke-width="1" stroke-linecap="butt" stroke-linejoin="miter" stroke-dasharray="4,4" transform="matrix(1 0 0 1 -99.00006 -62.58967)" /></g><path d="M401.8895 165.5143 L412.6386 170.8487 L400.9807 173.6935 Z " fill="none" stroke="#000000" stroke-width="1" stroke-linecap="butt" stroke-linejoin="miter" stroke-dasharray="" transform="matrix(1 0 0 1 -99.00006 -62.58967)" /><g clip-path="url(#clip_7)"><line x1="342" y1="216" x2="414" y2="189" stroke="#000000" stroke-width="1" stroke-linecap="butt" stroke-linejoin="miter" stroke-dasharray="4,4" transform="matrix(1 0 0 1 -99.00006 -62.58967)" /></g><path d="M400.7179 189.5862 L412.7174 189.481 L403.6075 197.2918 Z " fill="none" stroke="#000000" stroke-width="1" stroke-linecap="butt" stroke-linejoin="miter" stroke-dasharray="" transform="matrix(1 0 0 1 -99.00006 -62.58967)" /><g clip-path="url(#clip_8)"><line x1="342" y1="270" x2="414" y2="207" stroke="#000000" stroke-width="1" stroke-linecap="butt" stroke-linejoin="miter" stroke-dasharray="4,4" transform="matrix(1 0 0 1 -99.00006 -62.58967)" /></g><path d="M401.7761 212.2283 L412.9691 207.902 L407.1953 218.4216 Z " fill="none" stroke="#000000" stroke-width="1" stroke-linecap="butt" stroke-linejoin="miter" stroke-dasharray="" transform="matrix(1 0 0 1 -99.00006 -62.58967)" /><path d="M157.9298 291.7256 L197.186 291.7256 L200.5676 301.5504 L207 301.5392 L207 316.2604 L157.9298 316.2604 Z " fill="#666666" fill-opacity="1" transform="matrix(1 0 0 1 -99.00006 -62.58967)" /><path d="M157.9298 291.7256 L197.186 291.7256 L200.5676 301.5504 L207 301.5392 L207 316.2604 L157.9298 316.2604 Z " fill="none" stroke="#FEFEFE" stroke-width="1" stroke-linecap="butt" stroke-linejoin="miter" stroke-dasharray="" transform="matrix(1 0 0 1 -99.00006 -62.58967)" /><path d="M192.279 291.8184 L192.279 301.5504 L200.5676 301.5504" fill="#666666" fill-opacity="1" transform="matrix(1 0 0 1 -99.00006 -62.58967)" /><path d="M192.279 291.8184 L192.279 301.5504 L200.5676 301.5504" fill="none" stroke="#FEFEFE" stroke-width="1" stroke-linecap="butt" stroke-linejoin="miter" stroke-dasharray="" transform="matrix(1 0 0 1 -99.00006 -62.58967)" /><path d="M157.9298 306.4581 L192.279 306.4581 L192.279 291.7369" fill="#666666" fill-opacity="1" transform="matrix(1 0 0 1 -99.00006 -62.58967)" /><path d="M157.9298 306.4581 L192.279 306.4581 L192.279 291.7369" fill="none" stroke="#FEFEFE" stroke-width="1" stroke-linecap="butt" stroke-linejoin="miter" stroke-dasharray="" transform="matrix(1 0 0 1 -99.00006 -62.58967)" /><ellipse cx="167.7439" cy="316.2723" rx="4.906992" ry="4.90694" fill="#666666" fill-opacity="1" transform="matrix(1 0 0 1 -99.00006 -62.58967)" /><ellipse cx="167.7439" cy="316.2723" rx="4.906992" ry="4.90694" fill="none" stroke="#FEFEFE" stroke-width="1" stroke-linecap="butt" stroke-linejoin="miter" stroke-dasharray="" transform="matrix(1 0 0 1 -99.00006 -62.58967)" /><ellipse cx="197.1859" cy="316.2723" rx="4.906975" ry="4.90694" fill="#666666" fill-opacity="1" transform="matrix(1 0 0 1 -99.00006 -62.58967)" /><ellipse cx="197.1859" cy="316.2723" rx="4.906975" ry="4.90694" fill="none" stroke="#FEFEFE" stroke-width="1" stroke-linecap="butt" stroke-linejoin="miter" stroke-dasharray="" transform="matrix(1 0 0 1 -99.00006 -62.58967)" /><line x1="162.8369" y1="296.6442" x2="187.3719" y2="296.6442" stroke="#FEFEFE" stroke-width="2" stroke-linecap="butt" stroke-linejoin="miter" stroke-dasharray="" transform="matrix(1 0 0 1 -99.00006 -62.58967)" /><line x1="162.8369" y1="301.5504" x2="187.3719" y2="301.5504" stroke="#FEFEFE" stroke-width="2" stroke-linecap="butt" stroke-linejoin="miter" stroke-dasharray="" transform="matrix(1 0 0 1 -99.00006 -62.58967)" /><line x1="167.7439" y1="296.6442" x2="167.7439" y2="301.5504" stroke="#FEFEFE" stroke-width="2" stroke-linecap="butt" stroke-linejoin="miter" stroke-dasharray="" transform="matrix(1 0 0 1 -99.00006 -62.58967)" /><line x1="172.6509" y1="296.6442" x2="172.6509" y2="301.5504" stroke="#FEFEFE" stroke-width="2" stroke-linecap="butt" stroke-linejoin="miter" stroke-dasharray="" transform="matrix(1 0 0 1 -99.00006 -62.58967)" /><line x1="177.558" y1="296.6442" x2="177.558" y2="301.5504" stroke="#FEFEFE" stroke-width="2" stroke-linecap="butt" stroke-linejoin="miter" stroke-dasharray="" transform="matrix(1 0 0 1 -99.00006 -62.58967)" /><line x1="182.465" y1="296.6442" x2="182.465" y2="301.5504" stroke="#FEFEFE" stroke-width="2" stroke-linecap="butt" stroke-linejoin="miter" stroke-dasharray="" transform="matrix(1 0 0 1 -99.00006 -62.58967)" /><path d="M107.0625 273.7596 C107.0625 272.6042 107.996 271.6707 109.1514 271.6707 L134.2184 271.6707 C135.3738 271.6707 136.3074 272.6042 136.3074 273.7596 C136.3074 274.915 135.3738 275.8485 134.2184 275.8485 L123.7738 275.8485 L123.7738 280.0264 L125.8628 280.0264 C131.6334 280.0264 136.3074 284.7004 136.3074 290.471 L136.3074 294.6487 C136.3074 295.8043 135.3738 296.7378 134.2184 296.7378 L123.7738 296.7378 L118.5515 296.7378 C117.8923 296.7378 117.272 296.431 116.8804 295.9022 L111.2404 288.382 L101.788 284.6024 C101.1678 284.3544 100.6978 283.8191 100.5346 283.1664 L99.03326 277.1476 C98.86349 276.4883 99.36612 275.8485 100.0451 275.8485 L101.8402 275.8485 C102.4995 275.8485 103.1196 276.1554 103.5113 276.6841 L106.0181 280.0264 L119.596 280.0264 L119.596 275.8485 L109.1514 275.8485 C107.996 275.8485 107.0625 274.915 107.0625 273.7596 Z M123.7738 292.56 L132.1296 292.56 L132.1296 290.471 C132.1296 287.0112 129.3225 284.2042 125.8628 284.2042 L123.7738 284.2042 L123.7738 292.56 Z M139.8716 299.4404 C140.6876 300.2563 140.6876 301.5814 139.8716 302.3975 L139.617 302.652 C138.0503 304.2187 135.9222 305.1 133.7093 305.1 L115.4182 305.1 C114.2628 305.1 113.3293 304.1665 113.3293 303.0111 C113.3293 301.8557 114.2628 300.9221 115.4182 300.9221 L133.7093 300.9221 C134.8191 300.9221 135.8831 300.4847 136.6664 299.7014 L136.921 299.4469 C137.737 298.6309 139.0621 298.6309 139.8781 299.4469 Z " fill-rule="nonzero" fill="#666666" fill-opacity="1" transform="matrix(1 0 0 1 -99.00006 -62.58967)" /><path d="M534.472 175.698 L526.8939 175.698 C519.2209 175.698 513 181.9188 513 189.5922 C513 190.9872 514.1313 192.1185 515.5262 192.1185 L545.8394 192.1185 C547.2343 192.1185 548.3655 190.9872 548.3655 189.5922 C548.3655 181.9188 542.145 175.698 534.472 175.698 Z M516.8676 188.3292 C517.4911 183.3477 521.7469 179.4874 526.8939 179.4874 L534.472 179.4874 C539.6157 179.4874 543.8738 183.3517 544.4974 188.3292 L516.8676 188.3292 Z M530.683 171.9086 C536.2632 171.9086 540.7873 167.3845 540.7873 161.8039 C540.7873 156.2234 536.2632 151.6992 530.683 151.6992 C525.1028 151.6992 520.5786 156.2234 520.5786 161.8039 C520.5786 167.3852 525.1019 171.9086 530.683 171.9086 Z M530.683 155.4884 C534.165 155.4884 536.9982 158.3217 536.9982 161.8039 C536.9982 165.2861 534.165 168.1194 530.683 168.1194 C527.201 168.1194 524.3677 165.2853 524.3677 161.8039 C524.3677 158.3217 527.2018 155.4884 530.683 155.4884 Z " fill-rule="nonzero" fill="#000000" fill-opacity="1" transform="matrix(1 0 0 1 -99.00006 -62.58967)" /><g clip-path="url(#clip_9)"><g clip-path="url(#clip_10)"><line x1="463.5" y1="171" x2="513" y2="171" stroke="#000000" stroke-width="1" stroke-linecap="butt" stroke-linejoin="miter" stroke-dasharray="4,4" transform="matrix(1 0 0 1 -99.00006 -62.58967)" /></g></g><path d="M476.1422 175.1148 L464.8698 171 L476.1422 166.8852 Z " fill="none" stroke="#000000" stroke-width="1" stroke-linecap="butt" stroke-linejoin="miter" stroke-dasharray="" transform="matrix(1 0 0 1 -99.00006 -62.58967)" /><path d="M500.3578 166.8852 L511.6302 171 L500.3578 175.1148 Z " fill="none" stroke="#000000" stroke-width="1" stroke-linecap="butt" stroke-linejoin="miter" stroke-dasharray="" transform="matrix(1 0 0 1 -99.00006 -62.58967)" /><text x="383.9766" y="129.0625" font-size="16" fill="#000000" fill-opacity="1" font-family="Arial" font-weight="normal" font-style="normal" transform="matrix(1 0 0 1 -99.00006 -62.58967)">correlation ?</text><text x="196.5313" y="81.5625" font-size="16" fill="#000000" fill-opacity="1" font-family="Arial" font-weight="normal" font-style="normal" transform="matrix(1 0 0 1 -99.00006 -62.58967)">update </text><text x="182.359" y="252.0392" font-size="16" fill="#000000" fill-opacity="1" font-family="Arial" font-weight="normal" font-style="normal" transform="matrix(1 0 0 1 -99.00006 -62.58967)">redundancy ?</text><text x="447.4648" y="219.0625" font-size="16" fill="#000000" fill-opacity="1" font-family="Arial" font-weight="normal" font-style="normal" transform="matrix(1 0 0 1 -99.00006 -62.58967)">collaboration ?</text><text x="184.5273" y="135.5625" font-size="16" fill="#000000" fill-opacity="1" font-family="Arial" font-weight="normal" font-style="normal" transform="matrix(1 0 0 1 -99.00006 -62.58967)">bandwidth </text><text x="176.5313" y="207.5625" font-size="16" fill="#000000" fill-opacity="1" font-family="Arial" font-weight="normal" font-style="normal" transform="matrix(1 0 0 1 -99.00006 -62.58967)">connectivity ?</text><line x1="180.112" y1="236.6122" x2="199.256" y2="241.5571" stroke="#000000" stroke-width="1" stroke-linecap="butt" stroke-linejoin="miter" stroke-dasharray="" transform="matrix(1 0 0 1 -99.00006 -62.58967)" /></svg>