<?xml version="1.0" encoding="utf-8"?><svg viewBox="0 0 317 258" width="100%" height="100%" version="1.1" xmlns:xlink="http://www.w3.org/1999/xlink" xmlns="http://www.w3.org/2000/svg"><defs><clipPath id="clip_0"><path d="M 0 0 l 317,0 l 0,258 l -317,0 z M574.5 288 C574.5 287.175 575.175 286.5 576 286.5 C576.825 286.5 577.5 287.175 577.5 288 C577.5 288.825 576.825 289.5 576 289.5 C575.175 289.5 574.5 288.825 574.5 288 Z " clip-rule="nonzero" /></clipPath></defs><rect x="0" y="0" width="317" height="258" fill="#FFFFFF" fill-opacity="1" /><path d="M288 387 L351 315 L549 297 L603 396 L432 441 Z " fill="#E5E5E5" fill-opacity="1" transform="matrix(1.003164 0 0 1.003164 -288.4098 -184.9986)" /><path d="M288 387 L351 315 L549 297 L603 396 L432 441 Z " fill="none" stroke="#000000" stroke-width="1" stroke-linecap="butt" stroke-linejoin="miter" stroke-dasharray="" transform="matrix(1.003164 0 0 1.003164 -288.4098 -184.9986)" /><g clip-path="url(#clip_0)"><line x1="288" y1="288" x2="576" y2="288" stroke="#000000" stroke-width="1" stroke-linecap="butt" stroke-linejoin="miter" stroke-dasharray="" transform="matrix(0.6968566 0.7216161 -0.7216161 0.6968566 51.74069 -408.5201)" /></g><path d="M568.994 285.9426 L574.6302 288 L568.994 290.0574 Z " fill="#000000" fill-opacity="1" transform="matrix(0.6968566 0.7216161 -0.7216161 0.6968566 51.74069 -408.5201)" /><path d="M568.994 285.9426 L574.6302 288 L568.994 290.0574 Z " fill="none" stroke="#000000" stroke-width="1" stroke-linecap="butt" stroke-linejoin="miter" stroke-dasharray="" transform="matrix(0.6968566 0.7216161 -0.7216161 0.6968566 51.74069 -408.5201)" /><line x1="432" y1="216" x2="432" y2="360" stroke="#000000" stroke-width="1" stroke-linecap="butt" stroke-linejoin="miter" stroke-dasharray="" transform="matrix(0.6968566 0.7216161 -0.7216161 0.6968566 51.74069 -408.5201)" /><ellipse cx="432" cy="216" rx="4.81215" ry="4.81215" fill="#FFFFFF" fill-opacity="1" transform="matrix(0.6968566 0.7216161 -0.7216161 0.6968566 51.74069 -408.5201)" /><ellipse cx="432" cy="216" rx="4.81215" ry="4.81215" fill="none" stroke="#000000" stroke-width="1" stroke-linecap="butt" stroke-linejoin="miter" stroke-dasharray="" transform="matrix(0.6968566 0.7216161 -0.7216161 0.6968566 51.74069 -408.5201)" /><ellipse cx="432" cy="288" rx="4.81215" ry="4.81215" fill="#FFFFFF" fill-opacity="1" transform="matrix(0.6968566 0.7216161 -0.7216161 0.6968566 51.74069 -408.5201)" /><ellipse cx="432" cy="288" rx="4.81215" ry="4.81215" fill="none" stroke="#000000" stroke-width="1" stroke-linecap="butt" stroke-linejoin="miter" stroke-dasharray="" transform="matrix(0.6968566 0.7216161 -0.7216161 0.6968566 51.74069 -408.5201)" /><ellipse cx="432" cy="360" rx="4.81215" ry="4.81215" fill="#FFFFFF" fill-opacity="1" transform="matrix(0.6968566 0.7216161 -0.7216161 0.6968566 51.74069 -408.5201)" /><ellipse cx="432" cy="360" rx="4.81215" ry="4.81215" fill="none" stroke="#000000" stroke-width="1" stroke-linecap="butt" stroke-linejoin="miter" stroke-dasharray="" transform="matrix(0.6968566 0.7216161 -0.7216161 0.6968566 51.74069 -408.5201)" /><ellipse cx="396" cy="288" rx="2.798476" ry="2.798476" fill="#FFFFFF" fill-opacity="1" transform="matrix(0.6968566 0.7216161 -0.7216161 0.6968566 51.74069 -408.5201)" /><ellipse cx="396" cy="288" rx="2.798476" ry="2.798476" fill="none" stroke="#000000" stroke-width="1" stroke-linecap="butt" stroke-linejoin="miter" stroke-dasharray="" transform="matrix(0.6968566 0.7216161 -0.7216161 0.6968566 51.74069 -408.5201)" /><ellipse cx="360" cy="288" rx="2.798476" ry="2.798476" fill="#FFFFFF" fill-opacity="1" transform="matrix(0.6968566 0.7216161 -0.7216161 0.6968566 51.74069 -408.5201)" /><ellipse cx="360" cy="288" rx="2.798476" ry="2.798476" fill="none" stroke="#000000" stroke-width="1" stroke-linecap="butt" stroke-linejoin="miter" stroke-dasharray="" transform="matrix(0.6968566 0.7216161 -0.7216161 0.6968566 51.74069 -408.5201)" /><ellipse cx="468" cy="288" rx="2.798476" ry="2.798476" fill="#FFFFFF" fill-opacity="1" transform="matrix(0.6968566 0.7216161 -0.7216161 0.6968566 51.74069 -408.5201)" /><ellipse cx="468" cy="288" rx="2.798476" ry="2.798476" fill="none" stroke="#000000" stroke-width="1" stroke-linecap="butt" stroke-linejoin="miter" stroke-dasharray="" transform="matrix(0.6968566 0.7216161 -0.7216161 0.6968566 51.74069 -408.5201)" /><ellipse cx="504" cy="288" rx="2.798476" ry="2.798476" fill="#FFFFFF" fill-opacity="1" transform="matrix(0.6968566 0.7216161 -0.7216161 0.6968566 51.74069 -408.5201)" /><ellipse cx="504" cy="288" rx="2.798476" ry="2.798476" fill="none" stroke="#000000" stroke-width="1" stroke-linecap="butt" stroke-linejoin="miter" stroke-dasharray="" transform="matrix(0.6968566 0.7216161 -0.7216161 0.6968566 51.74069 -408.5201)" /><ellipse cx="324" cy="288" rx="2.798476" ry="2.798476" fill="#FFFFFF" fill-opacity="1" transform="matrix(0.6968566 0.7216161 -0.7216161 0.6968566 51.74069 -408.5201)" /><ellipse cx="324" cy="288" rx="2.798476" ry="2.798476" fill="none" stroke="#000000" stroke-width="1" stroke-linecap="butt" stroke-linejoin="miter" stroke-dasharray="" transform="matrix(0.6968566 0.7216161 -0.7216161 0.6968566 51.74069 -408.5201)" /><ellipse cx="540" cy="288" rx="2.798476" ry="2.798476" fill="#FFFFFF" fill-opacity="1" transform="matrix(0.6968566 0.7216161 -0.7216161 0.6968566 51.74069 -408.5201)" /><ellipse cx="540" cy="288" rx="2.798476" ry="2.798476" fill="none" stroke="#000000" stroke-width="1" stroke-linecap="butt" stroke-linejoin="miter" stroke-dasharray="" transform="matrix(0.6968566 0.7216161 -0.7216161 0.6968566 51.74069 -408.5201)" /><text x="410.7843" y="294.3666" font-size="16" fill="#000000" fill-opacity="1" font-family="Arial" font-weight="normal" font-style="normal" transform="matrix(1.003164 0 0 1.003164 -288.4098 -184.9986)">t</text><text x="417.843" y="297.7958" font-size="12" fill="#000000" fill-opacity="1" font-family="Arial" font-weight="normal" font-style="normal" transform="matrix(1.003164 0 0 1.003164 -288.4098 -184.9986)">i</text><text x="383.6953" y="271.5397" font-size="16" fill="#000000" fill-opacity="1" font-family="Arial" font-weight="normal" font-style="normal" transform="matrix(1.003164 0 0 1.003164 -288.4098 -184.9986)">t</text><text x="390.7541" y="274.969" font-size="12" fill="#000000" fill-opacity="1" font-family="Arial" font-weight="normal" font-style="normal" transform="matrix(1.003164 0 0 1.003164 -288.4098 -184.9986)">i-1</text><text x="433.5153" y="325.2925" font-size="16" fill="#000000" fill-opacity="1" font-family="Arial" font-weight="normal" font-style="normal" transform="matrix(1.003164 0 0 1.003164 -288.4098 -184.9986)">t</text><text x="440.574" y="328.7218" font-size="12" fill="#000000" fill-opacity="1" font-family="Arial" font-weight="normal" font-style="normal" transform="matrix(1.003164 0 0 1.003164 -288.4098 -184.9986)">i+1</text><text x="370.8" y="221.6154" font-size="14" fill="#000000" fill-opacity="1" font-family="Arial" font-weight="normal" font-style="normal" transform="matrix(1.003164 0 0 1.003164 -288.4098 -184.9986)">ground track</text><text x="392.406" y="416.2539" font-size="14" fill="#000000" fill-opacity="1" font-family="Arial" font-weight="normal" font-style="normal" transform="matrix(1.003164 0 0 1.003164 -288.4098 -184.9986)">macro region</text><text x="455.707" y="277.0146" font-size="14" fill="#000000" fill-opacity="1" font-family="Arial" font-weight="normal" font-style="normal" transform="matrix(1.003164 0 0 1.003164 -288.4098 -184.9986)">scan line</text><text x="503.229" y="233.0444" font-size="14" fill="#000000" fill-opacity="1" font-family="Arial" font-weight="normal" font-style="normal" transform="matrix(1.003164 0 0 1.003164 -288.4098 -184.9986)">swath 
</text><text x="494.6567" y="249.0444" font-size="14" fill="#000000" fill-opacity="1" font-family="Arial" font-weight="normal" font-style="normal" transform="matrix(1.003164 0 0 1.003164 -288.4098 -184.9986)">endpoint</text></svg>