<?xml version="1.0" encoding="utf-8"?><svg viewBox="0 0 624 270" width="100%" height="100%" version="1.1" xmlns:xlink="http://www.w3.org/1999/xlink" xmlns="http://www.w3.org/2000/svg"><defs><clipPath id="clip_0"><path d="M 0 0 l 624,0 l 0,270 l -624,0 z M65.51384 242.8477 C65.51384 242.2977 65.96384 241.8477 66.51384 241.8477 C67.06384 241.8477 67.51384 242.2977 67.51384 242.8477 C67.51384 243.3977 67.06384 243.8477 66.51384 243.8477 C65.96384 243.8477 65.51384 243.3977 65.51384 242.8477 Z " clip-rule="nonzero" /></clipPath><clipPath id="clip_1"><path d="M 0 0 l 624,0 l 0,270 l -624,0 z M268.5 265.5 C268.5 264.675 269.175 264 270 264 C270.825 264 271.5 264.675 271.5 265.5 C271.5 266.325 270.825 267 270 267 C269.175 267 268.5 266.325 268.5 265.5 Z " clip-rule="nonzero" /></clipPath><clipPath id="clip_2"><path d="M 0 0 l 624,0 l 0,270 l -624,0 z M268.5 312 C268.5 311.175 269.175 310.5 270 310.5 C270.825 310.5 271.5 311.175 271.5 312 C271.5 312.825 270.825 313.5 270 313.5 C269.175 313.5 268.5 312.825 268.5 312 Z " clip-rule="nonzero" /></clipPath><clipPath id="clip_3"><path d="M 0 0 l 624,0 l 0,270 l -624,0 z M268.5 358.5 C268.5 357.675 269.175 357 270 357 C270.825 357 271.5 357.675 271.5 358.5 C271.5 359.325 270.825 360 270 360 C269.175 360 268.5 359.325 268.5 358.5 Z " clip-rule="nonzero" /></clipPath><clipPath id="clip_4"><path d="M 0 0 l 624,0 l 0,270 l -624,0 z M121.6124 262.2082 L130.6304 265.5 L121.6124 268.7918 Z M130.5001 265.5 C130.5001 264.675 131.1751 264 132.0001 264 C132.8251 264 133.5001 264.675 133.5001 265.5 C133.5001 266.325 132.8251 267 132.0001 267 C131.1751 267 130.5001 266.325 130.5001 265.5 Z " clip-rule="nonzero" /></clipPath><clipPath id="clip_5"><path d="M 0 0 l 624,0 l 0,270 l -624,0 z M139.6124 355.2082 L148.6304 358.5 L139.6124 361.7918 Z M148.5001 358.5 C148.5001 357.675 149.1751 357 150.0001 357 C150.8251 357 151.5001 357.675 151.5001 358.5 C151.5001 359.325 150.8251 360 150.0001 360 C149.1751 360 148.5001 359.325 148.5001 358.5 Z " clip-rule="nonzero" /></clipPath><clipPath id="clip_6"><path d="M 0 0 l 624,0 l 0,270 l -624,0 z M376.5 271.5 C376.5 270.675 377.175 270 378 270 C378.825 270 379.5 270.675 379.5 271.5 C379.5 272.325 378.825 273 378 273 C377.175 273 376.5 272.325 376.5 271.5 Z " clip-rule="nonzero" /></clipPath><clipPath id="clip_7"><path d="M 0 0 l 624,0 l 0,270 l -624,0 z M376.5 312 C376.5 311.175 377.175 310.5 378 310.5 C378.825 310.5 379.5 311.175 379.5 312 C379.5 312.825 378.825 313.5 378 313.5 C377.175 313.5 376.5 312.825 376.5 312 Z " clip-rule="nonzero" /></clipPath><clipPath id="clip_8"><path d="M 0 0 l 624,0 l 0,270 l -624,0 z M376.5 355.5001 C376.5 354.6751 377.175 354.0001 378 354.0001 C378.825 354.0001 379.5 354.6751 379.5 355.5001 C379.5 356.3251 378.825 357.0001 378 357.0001 C377.175 357.0001 376.5 356.3251 376.5 355.5001 Z " clip-rule="nonzero" /></clipPath><clipPath id="clip_9"><path d="M 0 0 l 624,0 l 0,270 l -624,0 z M556.5 312 C556.5 311.175 557.175 310.5 558 310.5 C558.825 310.5 559.5 311.175 559.5 312 C559.5 312.825 558.825 313.5 558 313.5 C557.175 313.5 556.5 312.825 556.5 312 Z " clip-rule="nonzero" /></clipPath><clipPath id="clip_10"><path d="M 0 0 l 624,0 l 0,270 l -624,0 z M613.6122 310.2082 L622.6302 313.5 L613.6122 316.7918 Z M622.5001 313.5 C622.5001 312.675 623.175 312 624 312 C624.825 312 625.5 312.675 625.5 313.5 C625.5 314.325 624.825 315 624 315 C623.175 315 622.5001 314.325 622.5001 313.5 Z " clip-rule="nonzero" /></clipPath></defs><rect x="0" y="0" width="624" height="270" fill="#FFFFFF" fill-opacity="1" /><rect x="256.0132" y="216" width="259.9868" height="177.9258" rx="18" ry="18" fill="none" stroke="#000000" stroke-width="1" stroke-linecap="butt" stroke-linejoin="miter" stroke-dasharray="" transform="matrix(1 0 0 1 -36 -153)" /><text x="301.8037" y="233" font-size="15" fill="#000000" fill-opacity="1" font-family="Arial" font-weight="normal" font-style="normal" transform="matrix(1 0 0 1 -36 -153)">ODIN Monitor Application</text><rect x="378" y="258" width="114" height="108" fill="none" stroke="#666666" stroke-width="2" stroke-linecap="butt" stroke-linejoin="miter" stroke-dasharray="" transform="matrix(1 0 0 1 -36 -153)" /><text x="408.3242" y="275" font-size="16" fill="#000000" fill-opacity="1" font-family="Arial" font-weight="normal" font-style="normal" transform="matrix(1 0 0 1 -36 -153)">Monitor</text><path d="M54.51234 321 C54.51234 319.6685 54.77464 318.3499 55.28426 317.1198 C55.79372 315.8897 56.54066 314.7718 57.48215 313.8304 C58.42368 312.8889 59.5414 312.142 60.77153 311.6324 C62.00172 311.123 63.32018 310.8607 64.65176 310.8607 C65.98317 310.8607 67.3017 311.123 68.53183 311.6324 C69.76194 312.142 70.87984 312.8889 71.8213 313.8304 C72.76277 314.7718 73.50963 315.8897 74.01924 317.1198 C74.52871 318.3499 74.79101 319.6685 74.79101 321" fill="none" stroke="#666666" stroke-width="3" stroke-linecap="butt" stroke-linejoin="miter" stroke-dasharray="" transform="matrix(1 0 0 1 -36 -153)" /><line x1="39.30342" y1="303" x2="59.58208" y2="303" stroke="#666666" stroke-width="3" stroke-linecap="butt" stroke-linejoin="miter" stroke-dasharray="" transform="matrix(1 0 0 1 -36 -153)" /><line x1="69.72133" y1="303" x2="90" y2="303" stroke="#666666" stroke-width="3" stroke-linecap="butt" stroke-linejoin="miter" stroke-dasharray="" transform="matrix(1 0 0 1 -36 -153)" /><path d="M49.44277 303 L49.44277 303 L49.44277 308.0696 L79.86067 308.0696 L79.86067 303" fill="none" stroke="#666666" stroke-width="3" stroke-linecap="butt" stroke-linejoin="miter" stroke-dasharray="" transform="matrix(1 0 0 1 -36 -153)" /><ellipse cx="64.65173" cy="310.8607" rx="5.069641" ry="5.069658" fill="#FFFFFF" fill-opacity="1" transform="matrix(1 0 0 1 -36 -153)" /><ellipse cx="64.65173" cy="310.8607" rx="5.069641" ry="5.069658" fill="none" stroke="#666666" stroke-width="3" stroke-linecap="butt" stroke-linejoin="miter" stroke-dasharray="" transform="matrix(1 0 0 1 -36 -153)" /><ellipse cx="64.65173" cy="310.8606" rx="2.534821" ry="2.534821" fill="#000000" fill-opacity="1" transform="matrix(1 0 0 1 -36 -153)" /><ellipse cx="64.65173" cy="310.8606" rx="2.534821" ry="2.534821" fill="none" stroke="#666666" stroke-width="1" stroke-linecap="butt" stroke-linejoin="miter" stroke-dasharray="" transform="matrix(1 0 0 1 -36 -153)" /><path d="M99.39413 349.6796 L99.39413 351.0076 L85.97311 355.9296 L79.85513 354.8746 L76.18716 354.1637 L73.66809 353.6405 L73.60509 351.9497" fill="#4C4C4C" fill-opacity="1" transform="matrix(1 0 0 1 -36 -153)" /><path d="M99.39413 349.6796 L99.39413 351.0076 L85.97311 355.9296 L79.85513 354.8746 L76.18716 354.1637 L73.66809 353.6405 L73.60509 351.9497" fill="#4C4C4C" fill-opacity="1" transform="matrix(1 0 0 1 -36 -153)" /><path d="M99.39413 349.6796 L99.39413 351.0076 L85.97311 355.9296 L79.85513 354.8746 L76.18716 354.1637 L73.66809 353.6405 L73.60509 351.9497" fill="none" stroke="#FFFFFF" stroke-width="0.39999" stroke-linecap="butt" stroke-linejoin="miter" stroke-dasharray="" transform="matrix(1 0 0 1 -36 -153)" /><path d="M68.04712 369.1524 L68.20512 369.1505 L68.36212 369.1453 L68.51613 369.1368 L68.66812 369.1248 L68.81812 369.1097 L68.96413 369.0915 L69.10713 369.0703 L69.24712 369.046 L69.38412 369.019 L69.51712 368.9891 L69.64611 368.9567 L69.77211 368.9214 L69.89313 368.8837 L70.00912 368.8436 L70.12113 368.801 L70.2281 368.7563 L70.3311 368.7095 L70.42813 368.6602 L70.51911 368.6093 L70.60512 368.5563 L70.68612 368.5014 L70.76012 368.4449 L70.82812 368.3865 L70.89012 368.3268 L70.94512 368.2653 L70.99413 368.2025 L71.03513 368.1384 L71.07011 368.0731 L71.09712 368.0066 L71.11712 367.9388 L71.12912 367.8703 L71.13312 367.8008 C71.13312 367.0546 69.75012 366.4492 68.04712 366.4492 C66.34412 366.4492 64.96113 367.0546 64.96113 367.8008 C64.96113 368.5468 66.34412 369.1524 68.04712 369.1524 Z " fill="#4C4C4C" fill-opacity="1" transform="matrix(1 0 0 1 -36 -153)" /><path d="M68.04712 369.1524 L68.20512 369.1505 L68.36212 369.1453 L68.51613 369.1368 L68.66812 369.1248 L68.81812 369.1097 L68.96413 369.0915 L69.10713 369.0703 L69.24712 369.046 L69.38412 369.019 L69.51712 368.9891 L69.64611 368.9567 L69.77211 368.9214 L69.89313 368.8837 L70.00912 368.8436 L70.12113 368.801 L70.2281 368.7563 L70.3311 368.7095 L70.42813 368.6602 L70.51911 368.6093 L70.60512 368.5563 L70.68612 368.5014 L70.76012 368.4449 L70.82812 368.3865 L70.89012 368.3268 L70.94512 368.2653 L70.99413 368.2025 L71.03513 368.1384 L71.07011 368.0731 L71.09712 368.0066 L71.11712 367.9388 L71.12912 367.8703 L71.13312 367.8008 C71.13312 367.0546 69.75012 366.4492 68.04712 366.4492 C66.34412 366.4492 64.96113 367.0546 64.96113 367.8008 C64.96113 368.5468 66.34412 369.1524 68.04712 369.1524 Z " fill="#4C4C4C" fill-opacity="1" transform="matrix(1 0 0 1 -36 -153)" /><path d="M68.04712 369.1524 L68.20512 369.1505 L68.36212 369.1453 L68.51613 369.1368 L68.66812 369.1248 L68.81812 369.1097 L68.96413 369.0915 L69.10713 369.0703 L69.24712 369.046 L69.38412 369.019 L69.51712 368.9891 L69.64611 368.9567 L69.77211 368.9214 L69.89313 368.8837 L70.00912 368.8436 L70.12113 368.801 L70.2281 368.7563 L70.3311 368.7095 L70.42813 368.6602 L70.51911 368.6093 L70.60512 368.5563 L70.68612 368.5014 L70.76012 368.4449 L70.82812 368.3865 L70.89012 368.3268 L70.94512 368.2653 L70.99413 368.2025 L71.03513 368.1384 L71.07011 368.0731 L71.09712 368.0066 L71.11712 367.9388 L71.12912 367.8703 L71.13312 367.8008 C71.13312 367.0546 69.75012 366.4492 68.04712 366.4492 C66.34412 366.4492 64.96113 367.0546 64.96113 367.8008 C64.96113 368.5468 66.34412 369.1524 68.04712 369.1524 Z " fill="none" stroke="#FFFFFF" stroke-width="0.39999" stroke-linecap="butt" stroke-linejoin="miter" stroke-dasharray="" transform="matrix(1 0 0 1 -36 -153)" /><path d="M80.23011 353.2697 L86.0081 354.1876 L99.39413 349.6796 L87.6991 347.8476 L73.60509 351.9497 L77.65611 352.6407" fill="#4C4C4C" fill-opacity="1" transform="matrix(1 0 0 1 -36 -153)" /><path d="M80.23011 353.2697 L86.0081 354.1876 L99.39413 349.6796 L87.6991 347.8476 L73.60509 351.9497 L77.65611 352.6407" fill="#4C4C4C" fill-opacity="1" transform="matrix(1 0 0 1 -36 -153)" /><path d="M80.23011 353.2697 L86.0081 354.1876 L99.39413 349.6796 L87.6991 347.8476 L73.60509 351.9497 L77.65611 352.6407" fill="none" stroke="#FFFFFF" stroke-width="0.39999" stroke-linecap="butt" stroke-linejoin="miter" stroke-dasharray="" transform="matrix(1 0 0 1 -36 -153)" /><path d="M79.25414 353.5077 L79.4461 353.4586 L79.63416 353.4086 L79.81812 353.3596 L79.99611 353.3096 L80.17013 353.2606 L80.34012 353.2115 L80.50514 353.1627 L80.66614 353.1146 L80.8231 353.0656 L80.97516 353.0176 L81.12312 352.9696 L81.26712 352.9227 L81.40615 352.8747 L81.54209 352.8276 L81.80115 352.7356 L82.04515 352.6447 L82.2731 352.5546 L82.48708 352.4677 L82.6861 352.3827 L82.87215 352.2996 L83.04415 352.2197 L83.20313 352.1426 L83.34914 352.0676 L83.48313 351.9967 L83.60611 351.9286 L83.71713 351.8636 L83.81715 351.8026 L83.90614 351.7456 L83.98613 351.6926 L84.05611 351.6437 L84.1171 351.5987 L84.16915 351.5587 L84.21314 351.5237 L84.24915 351.4936 L84.27715 351.4677 L84.2981 351.4476 L84.31315 351.4336 L84.32114 351.4247 L84.3241 351.4216 C82.91815 350.7427 77.89011 352.5667 77.89011 352.5667 L77.00011 352.8705 Z " fill="#4C4C4C" fill-opacity="1" transform="matrix(1 0 0 1 -36 -153)" /><path d="M79.25414 353.5077 L79.4461 353.4586 L79.63416 353.4086 L79.81812 353.3596 L79.99611 353.3096 L80.17013 353.2606 L80.34012 353.2115 L80.50514 353.1627 L80.66614 353.1146 L80.8231 353.0656 L80.97516 353.0176 L81.12312 352.9696 L81.26712 352.9227 L81.40615 352.8747 L81.54209 352.8276 L81.80115 352.7356 L82.04515 352.6447 L82.2731 352.5546 L82.48708 352.4677 L82.6861 352.3827 L82.87215 352.2996 L83.04415 352.2197 L83.20313 352.1426 L83.34914 352.0676 L83.48313 351.9967 L83.60611 351.9286 L83.71713 351.8636 L83.81715 351.8026 L83.90614 351.7456 L83.98613 351.6926 L84.05611 351.6437 L84.1171 351.5987 L84.16915 351.5587 L84.21314 351.5237 L84.24915 351.4936 L84.27715 351.4677 L84.2981 351.4476 L84.31315 351.4336 L84.32114 351.4247 L84.3241 351.4216 C82.91815 350.7427 77.89011 352.5667 77.89011 352.5667 L77.00011 352.8705 Z " fill="#4C4C4C" fill-opacity="1" transform="matrix(1 0 0 1 -36 -153)" /><path d="M79.25414 353.5077 L79.4461 353.4586 L79.63416 353.4086 L79.81812 353.3596 L79.99611 353.3096 L80.17013 353.2606 L80.34012 353.2115 L80.50514 353.1627 L80.66614 353.1146 L80.8231 353.0656 L80.97516 353.0176 L81.12312 352.9696 L81.26712 352.9227 L81.40615 352.8747 L81.54209 352.8276 L81.80115 352.7356 L82.04515 352.6447 L82.2731 352.5546 L82.48708 352.4677 L82.6861 352.3827 L82.87215 352.2996 L83.04415 352.2197 L83.20313 352.1426 L83.34914 352.0676 L83.48313 351.9967 L83.60611 351.9286 L83.71713 351.8636 L83.81715 351.8026 L83.90614 351.7456 L83.98613 351.6926 L84.05611 351.6437 L84.1171 351.5987 L84.16915 351.5587 L84.21314 351.5237 L84.24915 351.4936 L84.27715 351.4677 L84.2981 351.4476 L84.31315 351.4336 L84.32114 351.4247 L84.3241 351.4216 C82.91815 350.7427 77.89011 352.5667 77.89011 352.5667 L77.00011 352.8705 Z " fill="none" stroke="#FFFFFF" stroke-width="0.39999" stroke-linecap="butt" stroke-linejoin="miter" stroke-dasharray="" transform="matrix(1 0 0 1 -36 -153)" /><path d="M77.65611 352.6407 L73.60509 351.9336 L87.6991 347.8476 L99.39413 349.6796 L86.0081 354.1876 L80.16408 353.2925 C83.51215 352.4806 84.28514 351.4216 84.28514 351.4216 C82.87913 350.7427 78.48411 352.3677 78.48411 352.3677 L78.46913 352.3947 L74.40214 353.6366 L74.40214 355.8746 L79.7071 354.0706 L79.76613 354.0467 C79.76613 354.0467 80.01208 353.4846 80.01208 353.2925" fill="#4C4C4C" fill-opacity="1" transform="matrix(1 0 0 1 -36 -153)" /><path d="M77.65611 352.6407 L73.60509 351.9336 L87.6991 347.8476 L99.39413 349.6796 L86.0081 354.1876 L80.16408 353.2925 C83.51215 352.4806 84.28514 351.4216 84.28514 351.4216 C82.87913 350.7427 78.48411 352.3677 78.48411 352.3677 L78.46913 352.3947 L74.40214 353.6366 L74.40214 355.8746 L79.7071 354.0706 L79.76613 354.0467 C79.76613 354.0467 80.01208 353.4846 80.01208 353.2925" fill="#4C4C4C" fill-opacity="1" transform="matrix(1 0 0 1 -36 -153)" /><path d="M77.65611 352.6407 L73.60509 351.9336 L87.6991 347.8476 L99.39413 349.6796 L86.0081 354.1876 L80.16408 353.2925 C83.51215 352.4806 84.28514 351.4216 84.28514 351.4216 C82.87913 350.7427 78.48411 352.3677 78.48411 352.3677 L78.46913 352.3947 L74.40214 353.6366 L74.40214 355.8746 L79.7071 354.0706 L79.76613 354.0467 C79.76613 354.0467 80.01208 353.4846 80.01208 353.2925" fill="none" stroke="#FFFFFF" stroke-width="0.39999" stroke-linecap="butt" stroke-linejoin="miter" stroke-dasharray="" transform="matrix(1 0 0 1 -36 -153)" /><path d="M79.72308 353.2737 L79.7261 353.2737 L79.73013 353.2746 L79.73409 353.2746 L79.73712 353.2737 L79.74116 353.2737 L79.74511 353.2727 L79.74915 353.2707 L79.75311 353.2697 L79.75613 353.2676 L79.76016 353.2657 L79.76412 353.2636 L79.76815 353.2606 L79.7711 353.2587 L79.77514 353.2557 L79.77809 353.2516 L79.78212 353.2486 L79.78514 353.2447 L79.78809 353.2407 L79.79111 353.2367 L79.79414 353.2325 L79.7971 353.2277 L79.80013 353.2237 L79.80315 353.2186 L79.80509 353.2137 L79.80811 353.2087 L79.81013 353.2026 L79.81215 353.1977 L79.81416 353.1916 L79.8161 353.1856 L79.81812 353.1808 L79.81912 353.1737 L79.82014 353.1676 C79.83208 353.1016 79.80509 353.0426 79.76211 353.0357 C79.72308 353.0276 79.6801 353.0747 79.66815 353.1406 C79.65612 353.2067 79.6801 353.2657 79.72308 353.2737 Z " fill="#4C4C4C" fill-opacity="1" transform="matrix(1 0 0 1 -36 -153)" /><path d="M79.72308 353.2737 L79.7261 353.2737 L79.73013 353.2746 L79.73409 353.2746 L79.73712 353.2737 L79.74116 353.2737 L79.74511 353.2727 L79.74915 353.2707 L79.75311 353.2697 L79.75613 353.2676 L79.76016 353.2657 L79.76412 353.2636 L79.76815 353.2606 L79.7711 353.2587 L79.77514 353.2557 L79.77809 353.2516 L79.78212 353.2486 L79.78514 353.2447 L79.78809 353.2407 L79.79111 353.2367 L79.79414 353.2325 L79.7971 353.2277 L79.80013 353.2237 L79.80315 353.2186 L79.80509 353.2137 L79.80811 353.2087 L79.81013 353.2026 L79.81215 353.1977 L79.81416 353.1916 L79.8161 353.1856 L79.81812 353.1808 L79.81912 353.1737 L79.82014 353.1676 C79.83208 353.1016 79.80509 353.0426 79.76211 353.0357 C79.72308 353.0276 79.6801 353.0747 79.66815 353.1406 C79.65612 353.2067 79.6801 353.2657 79.72308 353.2737 Z " fill="#4C4C4C" fill-opacity="1" transform="matrix(1 0 0 1 -36 -153)" /><path d="M79.72308 353.2737 L79.7261 353.2737 L79.73013 353.2746 L79.73409 353.2746 L79.73712 353.2737 L79.74116 353.2737 L79.74511 353.2727 L79.74915 353.2707 L79.75311 353.2697 L79.75613 353.2676 L79.76016 353.2657 L79.76412 353.2636 L79.76815 353.2606 L79.7711 353.2587 L79.77514 353.2557 L79.77809 353.2516 L79.78212 353.2486 L79.78514 353.2447 L79.78809 353.2407 L79.79111 353.2367 L79.79414 353.2325 L79.7971 353.2277 L79.80013 353.2237 L79.80315 353.2186 L79.80509 353.2137 L79.80811 353.2087 L79.81013 353.2026 L79.81215 353.1977 L79.81416 353.1916 L79.8161 353.1856 L79.81812 353.1808 L79.81912 353.1737 L79.82014 353.1676 C79.83208 353.1016 79.80509 353.0426 79.76211 353.0357 C79.72308 353.0276 79.6801 353.0747 79.66815 353.1406 C79.65612 353.2067 79.6801 353.2657 79.72308 353.2737 Z " fill="none" stroke="#FFFFFF" stroke-width="0.39999" stroke-linecap="butt" stroke-linejoin="miter" stroke-dasharray="" transform="matrix(1 0 0 1 -36 -153)" /><path d="M61.64812 348.1566 L61.64812 364.7891 C61.64812 366.3282 64.50414 367.5781 68.02712 367.5781 C71.55112 367.5781 74.4061 366.3282 74.4061 364.7891 L74.4061 348.0155" fill="#4C4C4C" fill-opacity="1" transform="matrix(1 0 0 1 -36 -153)" /><path d="M61.64812 348.1566 L61.64812 364.7891 C61.64812 366.3282 64.50414 367.5781 68.02712 367.5781 C71.55112 367.5781 74.4061 366.3282 74.4061 364.7891 L74.4061 348.0155" fill="#4C4C4C" fill-opacity="1" transform="matrix(1 0 0 1 -36 -153)" /><path d="M61.64812 348.1566 L61.64812 364.7891 C61.64812 366.3282 64.50414 367.5781 68.02712 367.5781 C71.55112 367.5781 74.4061 366.3282 74.4061 364.7891 L74.4061 348.0155" fill="none" stroke="#FFFFFF" stroke-width="0.39999" stroke-linecap="butt" stroke-linejoin="miter" stroke-dasharray="" transform="matrix(1 0 0 1 -36 -153)" /><path d="M62.37911 361.3085 L62.37911 362.8243 L48.35913 367.789 L36.02734 364.9336 L36 363.1407" fill="#4C4C4C" fill-opacity="1" transform="matrix(1 0 0 1 -36 -153)" /><path d="M62.37911 361.3085 L62.37911 362.8243 L48.35913 367.789 L36.02734 364.9336 L36 363.1407" fill="#4C4C4C" fill-opacity="1" transform="matrix(1 0 0 1 -36 -153)" /><path d="M62.37911 361.3085 L62.37911 362.8243 L48.35913 367.789 L36.02734 364.9336 L36 363.1407" fill="none" stroke="#FFFFFF" stroke-width="0.39999" stroke-linecap="butt" stroke-linejoin="miter" stroke-dasharray="" transform="matrix(1 0 0 1 -36 -153)" /><path d="M57.87111 360.668 L62.37911 361.3085 L48.35913 365.9571 L36.02734 363.1016 L50.71912 358.9807 L54.09412 359.5585" fill="#4C4C4C" fill-opacity="1" transform="matrix(1 0 0 1 -36 -153)" /><path d="M57.87111 360.668 L62.37911 361.3085 L48.35913 365.9571 L36.02734 363.1016 L50.71912 358.9807 L54.09412 359.5585" fill="#4C4C4C" fill-opacity="1" transform="matrix(1 0 0 1 -36 -153)" /><path d="M57.87111 360.668 L62.37911 361.3085 L48.35913 365.9571 L36.02734 363.1016 L50.71912 358.9807 L54.09412 359.5585" fill="none" stroke="#FFFFFF" stroke-width="0.39999" stroke-linecap="butt" stroke-linejoin="miter" stroke-dasharray="" transform="matrix(1 0 0 1 -36 -153)" /><path d="M54.02312 359.5273 L53.73811 359.6021 L53.46512 359.6809 L53.20212 359.7634 L52.95111 359.8492 L52.71111 359.9379 L52.48212 360.029 L52.26312 360.1221 L52.05412 360.2167 L51.85612 360.3126 L51.66912 360.4091 L51.49112 360.506 L51.32312 360.6026 L51.16512 360.6988 L51.01612 360.7938 L50.87712 360.8876 L50.74712 360.9795 L50.62611 361.0692 L50.51413 361.1561 L50.41112 361.2398 L50.31612 361.32 L50.23011 361.3964 L50.15212 361.4681 L50.08311 361.5354 L50.02112 361.5972 L49.96712 361.6534 L49.92112 361.7033 L49.88212 361.7469 L49.85112 361.7834 L49.82712 361.8125 L49.81013 361.8339 L49.80012 361.8471 L49.79712 361.8515 C54.47312 361.9883 57.82012 360.6446 57.82012 360.6446" fill="#4C4C4C" fill-opacity="1" transform="matrix(1 0 0 1 -36 -153)" /><path d="M54.02312 359.5273 L53.73811 359.6021 L53.46512 359.6809 L53.20212 359.7634 L52.95111 359.8492 L52.71111 359.9379 L52.48212 360.029 L52.26312 360.1221 L52.05412 360.2167 L51.85612 360.3126 L51.66912 360.4091 L51.49112 360.506 L51.32312 360.6026 L51.16512 360.6988 L51.01612 360.7938 L50.87712 360.8876 L50.74712 360.9795 L50.62611 361.0692 L50.51413 361.1561 L50.41112 361.2398 L50.31612 361.32 L50.23011 361.3964 L50.15212 361.4681 L50.08311 361.5354 L50.02112 361.5972 L49.96712 361.6534 L49.92112 361.7033 L49.88212 361.7469 L49.85112 361.7834 L49.82712 361.8125 L49.81013 361.8339 L49.80012 361.8471 L49.79712 361.8515 C54.47312 361.9883 57.82012 360.6446 57.82012 360.6446" fill="#4C4C4C" fill-opacity="1" transform="matrix(1 0 0 1 -36 -153)" /><path d="M54.02312 359.5273 L53.73811 359.6021 L53.46512 359.6809 L53.20212 359.7634 L52.95111 359.8492 L52.71111 359.9379 L52.48212 360.029 L52.26312 360.1221 L52.05412 360.2167 L51.85612 360.3126 L51.66912 360.4091 L51.49112 360.506 L51.32312 360.6026 L51.16512 360.6988 L51.01612 360.7938 L50.87712 360.8876 L50.74712 360.9795 L50.62611 361.0692 L50.51413 361.1561 L50.41112 361.2398 L50.31612 361.32 L50.23011 361.3964 L50.15212 361.4681 L50.08311 361.5354 L50.02112 361.5972 L49.96712 361.6534 L49.92112 361.7033 L49.88212 361.7469 L49.85112 361.7834 L49.82712 361.8125 L49.81013 361.8339 L49.80012 361.8471 L49.79712 361.8515 C54.47312 361.9883 57.82012 360.6446 57.82012 360.6446" fill="none" stroke="#FFFFFF" stroke-width="0.39999" stroke-linecap="butt" stroke-linejoin="miter" stroke-dasharray="" transform="matrix(1 0 0 1 -36 -153)" /><path d="M53.77711 359.6055 L64.09811 356.5977 C65.57811 356.6676 65.38712 357.8666 65.38712 357.8666 C65.45713 358.6407 64.28111 358.9767 64.28111 358.9767 L57.53912 360.7305" fill="#4C4C4C" fill-opacity="1" transform="matrix(1 0 0 1 -36 -153)" /><path d="M53.77711 359.6055 L64.09811 356.5977 C65.57811 356.6676 65.38712 357.8666 65.38712 357.8666 C65.45713 358.6407 64.28111 358.9767 64.28111 358.9767 L57.53912 360.7305" fill="#4C4C4C" fill-opacity="1" transform="matrix(1 0 0 1 -36 -153)" /><path d="M53.77711 359.6055 L64.09811 356.5977 C65.57811 356.6676 65.38712 357.8666 65.38712 357.8666 C65.45713 358.6407 64.28111 358.9767 64.28111 358.9767 L57.53912 360.7305" fill="none" stroke="#FFFFFF" stroke-width="0.39999" stroke-linecap="butt" stroke-linejoin="miter" stroke-dasharray="" transform="matrix(1 0 0 1 -36 -153)" /><path d="M57.37912 360.746 L57.38712 360.746 L57.39512 360.7455 L57.40312 360.7452 L57.41012 360.7445 L57.41812 360.7437 L57.42513 360.7426 L57.43213 360.7413 L57.43912 360.7399 L57.44613 360.7383 L57.45312 360.7366 L57.46013 360.7347 L57.46612 360.7327 L57.47213 360.7305 L57.47812 360.7282 L57.48412 360.7257 L57.48912 360.7232 L57.49412 360.7204 L57.49911 360.7176 L57.50412 360.7147 L57.50812 360.7115 L57.51212 360.7084 L57.51612 360.705 L57.52012 360.7018 L57.52312 360.6982 L57.52512 360.6948 L57.52812 360.6912 L57.53012 360.6875 L57.53212 360.6836 L57.53312 360.6797 L57.53411 360.676 L57.53513 360.6721 L57.53513 360.668 C57.53513 360.6249 57.46512 360.5937 57.37912 360.5937 C57.29311 360.5937 57.22612 360.6249 57.22612 360.668 C57.22612 360.711 57.29311 360.746 57.37912 360.746 Z " fill="#4C4C4C" fill-opacity="1" transform="matrix(1 0 0 1 -36 -153)" /><path d="M57.37912 360.746 L57.38712 360.746 L57.39512 360.7455 L57.40312 360.7452 L57.41012 360.7445 L57.41812 360.7437 L57.42513 360.7426 L57.43213 360.7413 L57.43912 360.7399 L57.44613 360.7383 L57.45312 360.7366 L57.46013 360.7347 L57.46612 360.7327 L57.47213 360.7305 L57.47812 360.7282 L57.48412 360.7257 L57.48912 360.7232 L57.49412 360.7204 L57.49911 360.7176 L57.50412 360.7147 L57.50812 360.7115 L57.51212 360.7084 L57.51612 360.705 L57.52012 360.7018 L57.52312 360.6982 L57.52512 360.6948 L57.52812 360.6912 L57.53012 360.6875 L57.53212 360.6836 L57.53312 360.6797 L57.53411 360.676 L57.53513 360.6721 L57.53513 360.668 C57.53513 360.6249 57.46512 360.5937 57.37912 360.5937 C57.29311 360.5937 57.22612 360.6249 57.22612 360.668 C57.22612 360.711 57.29311 360.746 57.37912 360.746 Z " fill="#4C4C4C" fill-opacity="1" transform="matrix(1 0 0 1 -36 -153)" /><path d="M57.37912 360.746 L57.38712 360.746 L57.39512 360.7455 L57.40312 360.7452 L57.41012 360.7445 L57.41812 360.7437 L57.42513 360.7426 L57.43213 360.7413 L57.43912 360.7399 L57.44613 360.7383 L57.45312 360.7366 L57.46013 360.7347 L57.46612 360.7327 L57.47213 360.7305 L57.47812 360.7282 L57.48412 360.7257 L57.48912 360.7232 L57.49412 360.7204 L57.49911 360.7176 L57.50412 360.7147 L57.50812 360.7115 L57.51212 360.7084 L57.51612 360.705 L57.52012 360.7018 L57.52312 360.6982 L57.52512 360.6948 L57.52812 360.6912 L57.53012 360.6875 L57.53212 360.6836 L57.53312 360.6797 L57.53411 360.676 L57.53513 360.6721 L57.53513 360.668 C57.53513 360.6249 57.46512 360.5937 57.37912 360.5937 C57.29311 360.5937 57.22612 360.6249 57.22612 360.668 C57.22612 360.711 57.29311 360.746 57.37912 360.746 Z " fill="none" stroke="#FFFFFF" stroke-width="0.39999" stroke-linecap="butt" stroke-linejoin="miter" stroke-dasharray="" transform="matrix(1 0 0 1 -36 -153)" /><path d="M176.0687 344.2325 L153.6697 344.2325 L153.6697 379.921 L176.0687 379.921" fill="#666666" fill-opacity="1" transform="matrix(1 0 0 1 -36 -153)" /><path d="M176.0687 344.2325 L153.6697 344.2325 L153.6697 379.921 L176.0687 379.921" fill="none" stroke="#FFFFFF" stroke-width="1" stroke-linecap="butt" stroke-linejoin="miter" stroke-dasharray="" transform="matrix(1 0 0 1 -36 -153)" /><path d="M176.0687 344.2325 L153.6697 344.2325 L153.6697 379.921 L176.0687 379.921" fill="#666666" fill-opacity="1" transform="matrix(1 0 0 1 -36 -153)" /><path d="M176.0687 344.2325 L153.6697 344.2325 L153.6697 379.921 L176.0687 379.921" fill="none" stroke="#FFFFFF" stroke-width="1" stroke-linecap="butt" stroke-linejoin="miter" stroke-dasharray="" transform="matrix(1 0 0 1 -36 -153)" /><path d="M176.0687 379.921 L183.2223 372.7618 L183.2223 337.079 L160.8233 337.079 L153.6697 344.2325 L176.0687 344.2325 Z " fill="#666666" fill-opacity="1" transform="matrix(1 0 0 1 -36 -153)" /><path d="M176.0687 379.921 L183.2223 372.7618 L183.2223 337.079 L160.8233 337.079 L153.6697 344.2325 L176.0687 344.2325 Z " fill="none" stroke="#FFFFFF" stroke-width="1" stroke-linecap="butt" stroke-linejoin="miter" stroke-dasharray="" transform="matrix(1 0 0 1 -36 -153)" /><path d="M176.0687 379.921 L183.2223 372.7618 L183.2223 337.079 L160.8233 337.079 L153.6697 344.2325 L176.0687 344.2325 Z " fill="#666666" fill-opacity="1" transform="matrix(1 0 0 1 -36 -153)" /><path d="M176.0687 379.921 L183.2223 372.7618 L183.2223 337.079 L160.8233 337.079 L153.6697 344.2325 L176.0687 344.2325 Z " fill="none" stroke="#FFFFFF" stroke-width="1" stroke-linecap="butt" stroke-linejoin="miter" stroke-dasharray="" transform="matrix(1 0 0 1 -36 -153)" /><line x1="176.0687" y1="344.2326" x2="183.2223" y2="337.079" stroke="#FFFFFF" stroke-width="1" stroke-linecap="butt" stroke-linejoin="miter" stroke-dasharray="" transform="matrix(1 0 0 1 -36 -153)" /><line x1="176.0687" y1="344.2326" x2="183.2223" y2="337.079" stroke="#FFFFFF" stroke-width="1" stroke-linecap="butt" stroke-linejoin="miter" stroke-dasharray="" transform="matrix(1 0 0 1 -36 -153)" /><line x1="154.028" y1="358.1364" x2="175.8649" y2="358.1364" stroke="#FFFFFF" stroke-width="1" stroke-linecap="butt" stroke-linejoin="miter" stroke-dasharray="" transform="matrix(1 0 0 1 -36 -153)" /><line x1="154.028" y1="374.5132" x2="175.8649" y2="374.5132" stroke="#FFFFFF" stroke-width="1" stroke-linecap="butt" stroke-linejoin="miter" stroke-dasharray="" transform="matrix(1 0 0 1 -36 -153)" /><line x1="159.123" y1="349.7659" x2="165.4921" y2="349.7659" stroke="#FFFFFF" stroke-width="1" stroke-linecap="butt" stroke-linejoin="miter" stroke-dasharray="" transform="matrix(1 0 0 1 -36 -153)" /><path d="M156.5756 351.9494 L167.8583 351.9494 L167.8583 347.4003 L156.5756 347.4003 Z " fill="#666666" fill-opacity="1" transform="matrix(1 0 0 1 -36 -153)" /><path d="M156.5756 351.9494 L167.8583 351.9494 L167.8583 347.4003 L156.5756 347.4003 Z " fill="none" stroke="#FFFFFF" stroke-width="1" stroke-linecap="butt" stroke-linejoin="miter" stroke-dasharray="" transform="matrix(1 0 0 1 -36 -153)" /><rect x="57.51384" y="251.8477" width="18" height="21.00001" fill="#666666" fill-opacity="1" transform="matrix(1 0 0 1 -36 -153)" /><rect x="57.51384" y="251.8477" width="18" height="21.00001" fill="none" stroke="#7F7F7F" stroke-width="1" stroke-linecap="butt" stroke-linejoin="miter" stroke-dasharray="" transform="matrix(1 0 0 1 -36 -153)" /><ellipse cx="66.51384" cy="262.7084" rx="5.069641" ry="5.069658" fill="#FFFFFF" fill-opacity="1" transform="matrix(1 0 0 1 -36 -153)" /><ellipse cx="66.51384" cy="262.7084" rx="5.069641" ry="5.069658" fill="none" stroke="#CCCCCC" stroke-width="3" stroke-linecap="butt" stroke-linejoin="miter" stroke-dasharray="" transform="matrix(1 0 0 1 -36 -153)" /><ellipse cx="66.51384" cy="262.7083" rx="2.534821" ry="2.534821" fill="#000000" fill-opacity="1" transform="matrix(1 0 0 1 -36 -153)" /><ellipse cx="66.51384" cy="262.7083" rx="2.534821" ry="2.534821" fill="none" stroke="#CCCCCC" stroke-width="1" stroke-linecap="butt" stroke-linejoin="miter" stroke-dasharray="" transform="matrix(1 0 0 1 -36 -153)" /><path d="M63.05376 237.1523 Q66.48232 240.8106 69.91091 237.1523" fill="none" stroke="#B2B2B2" stroke-width="1" stroke-linecap="butt" stroke-linejoin="miter" stroke-dasharray="" transform="matrix(-1 -8.742278E-08 8.742278E-08 -1 96.96461 326.7921)" /><path d="M61.33952 238.9825 Q66.48232 242.6401 71.62522 238.9825" fill="none" stroke="#B2B2B2" stroke-width="1" stroke-linecap="butt" stroke-linejoin="miter" stroke-dasharray="" transform="matrix(-1 -8.742278E-08 8.742278E-08 -1 96.96461 326.7921)" /><path d="M59.62521 240.8106 Q66.48232 244.4689 73.33942 240.8106" fill="none" stroke="#B2B2B2" stroke-width="1" stroke-linecap="butt" stroke-linejoin="miter" stroke-dasharray="" transform="matrix(-1 -8.742278E-08 8.742278E-08 -1 96.96461 326.7921)" /><g clip-path="url(#clip_0)"><line x1="66.51384" y1="242.8477" x2="66.51384" y2="251.8477" stroke="#666666" stroke-width="1" stroke-linecap="butt" stroke-linejoin="miter" stroke-dasharray="" transform="matrix(1 0 0 1 -36 -153)" /></g><path d="M65.16384 244.6977 C65.16384 243.9552 65.77134 243.3477 66.51384 243.3477 C67.25634 243.3477 67.86384 243.9552 67.86384 244.6977 C67.86384 245.4402 67.25634 246.0477 66.51384 246.0477 C65.77134 246.0477 65.16384 245.4402 65.16384 244.6977 Z " fill="#666666" fill-opacity="1" transform="matrix(1 0 0 1 -36 -153)" /><path d="M65.16384 244.6977 C65.16384 243.9552 65.77134 243.3477 66.51384 243.3477 C67.25634 243.3477 67.86384 243.9552 67.86384 244.6977 C67.86384 245.4402 67.25634 246.0477 66.51384 246.0477 C65.77134 246.0477 65.16384 245.4402 65.16384 244.6977 Z " fill="none" stroke="#666666" stroke-width="1" stroke-linecap="butt" stroke-linejoin="miter" stroke-dasharray="" transform="matrix(1 0 0 1 -36 -153)" /><rect x="134.2616" y="245.8552" width="83.40297" height="39.28955" rx="12.23162" ry="12.23162" fill="#FFFFFF" fill-opacity="1" transform="matrix(1 0 0 1 -36 -153)" /><rect x="134.2616" y="245.8552" width="83.40297" height="39.28955" rx="12.23162" ry="12.23162" fill="none" stroke="#999999" stroke-width="1" stroke-linecap="butt" stroke-linejoin="miter" stroke-dasharray="" transform="matrix(1 0 0 1 -36 -153)" /><text x="160.9631" y="262.7969" font-size="12" fill="#666666" fill-opacity="1" font-family="Arial" font-weight="normal" font-style="normal" transform="matrix(1 0 0 1 -36 -153)">ODIN
</text><text x="144.2785" y="276.7969" font-size="12" fill="#666666" fill-opacity="1" font-family="Arial" font-weight="normal" font-style="normal" transform="matrix(1 0 0 1 -36 -153)">edge server</text><rect x="270" y="252" width="81" height="27" fill="none" stroke="#000000" stroke-width="1" stroke-linecap="butt" stroke-linejoin="miter" stroke-dasharray="" transform="matrix(1 0 0 1 -36 -153)" /><text x="276.3215" y="271.1211" font-size="15" fill="#000000" fill-opacity="1" font-family="Arial" font-weight="normal" font-style="normal" transform="matrix(1 0 0 1 -36 -153)">Importer 1</text><rect x="270" y="298.5" width="81" height="27" fill="none" stroke="#000000" stroke-width="1" stroke-linecap="butt" stroke-linejoin="miter" stroke-dasharray="" transform="matrix(1 0 0 1 -36 -153)" /><text x="276.3215" y="317.6211" font-size="15" fill="#000000" fill-opacity="1" font-family="Arial" font-weight="normal" font-style="normal" transform="matrix(1 0 0 1 -36 -153)">Importer 2</text><rect x="270" y="345" width="81" height="27" fill="none" stroke="#000000" stroke-width="1" stroke-linecap="butt" stroke-linejoin="miter" stroke-dasharray="" transform="matrix(1 0 0 1 -36 -153)" /><text x="275.0764" y="364.1211" font-size="15" fill="#000000" fill-opacity="1" font-family="Arial" font-weight="normal" font-style="normal" transform="matrix(1 0 0 1 -36 -153)">Importer N</text><g clip-path="url(#clip_1)"><line x1="222" y1="265.5" x2="270" y2="265.5" stroke="#000000" stroke-width="1" stroke-linecap="butt" stroke-linejoin="miter" stroke-dasharray="2,2" transform="matrix(1 0 0 1 -36 -153)" /></g><path d="M259.6123 262.2082 L268.6302 265.5 L259.6123 268.7918 Z " fill="#000000" fill-opacity="1" transform="matrix(1 0 0 1 -36 -153)" /><path d="M259.6123 262.2082 L268.6302 265.5 L259.6123 268.7918 Z " fill="none" stroke="#000000" stroke-width="1" stroke-linecap="butt" stroke-linejoin="miter" stroke-dasharray="" transform="matrix(1 0 0 1 -36 -153)" /><g clip-path="url(#clip_2)"><line x1="96" y1="312" x2="270" y2="312" stroke="#000000" stroke-width="1" stroke-linecap="butt" stroke-linejoin="miter" stroke-dasharray="2,2" transform="matrix(1 0 0 1 -36 -153)" /></g><path d="M259.6123 308.7082 L268.6302 312 L259.6123 315.2918 Z " fill="#000000" fill-opacity="1" transform="matrix(1 0 0 1 -36 -153)" /><path d="M259.6123 308.7082 L268.6302 312 L259.6123 315.2918 Z " fill="none" stroke="#000000" stroke-width="1" stroke-linecap="butt" stroke-linejoin="miter" stroke-dasharray="" transform="matrix(1 0 0 1 -36 -153)" /><g clip-path="url(#clip_3)"><line x1="189" y1="358.5" x2="270" y2="358.5" stroke="#000000" stroke-width="1" stroke-linecap="butt" stroke-linejoin="miter" stroke-dasharray="2,2" transform="matrix(1 0 0 1 -36 -153)" /></g><path d="M259.6123 355.2082 L268.6302 358.5 L259.6123 361.7918 Z " fill="#000000" fill-opacity="1" transform="matrix(1 0 0 1 -36 -153)" /><path d="M259.6123 355.2082 L268.6302 358.5 L259.6123 361.7918 Z " fill="none" stroke="#000000" stroke-width="1" stroke-linecap="butt" stroke-linejoin="miter" stroke-dasharray="" transform="matrix(1 0 0 1 -36 -153)" /><rect x="390" y="294" width="83.99998" height="29.99999" fill="none" stroke="#000000" stroke-width="1" stroke-linecap="butt" stroke-linejoin="miter" stroke-dasharray="" transform="matrix(1 0 0 1 -36 -153)" /><text x="394.8992" y="314.6211" font-size="15" fill="#000000" fill-opacity="1" font-family="Arial" font-weight="normal" font-style="normal" transform="matrix(1 0 0 1 -36 -153)">Messenger</text><g clip-path="url(#clip_4)"><line x1="84.00004" y1="265.5" x2="132.0001" y2="265.5" stroke="#B2B2B2" stroke-width="1" stroke-linecap="butt" stroke-linejoin="miter" stroke-dasharray="2,2" transform="matrix(1 0 0 1 -36 -153)" /></g><path d="M121.6124 262.2082 L130.6304 265.5 L121.6124 268.7918 Z " fill="none" stroke="#B2B2B2" stroke-width="1" stroke-linecap="butt" stroke-linejoin="miter" stroke-dasharray="" transform="matrix(1 0 0 1 -36 -153)" /><g clip-path="url(#clip_5)"><line x1="102" y1="358.5" x2="150.0001" y2="358.5" stroke="#B2B2B2" stroke-width="1" stroke-linecap="butt" stroke-linejoin="miter" stroke-dasharray="2,2" transform="matrix(1 0 0 1 -36 -153)" /></g><path d="M139.6124 355.2082 L148.6304 358.5 L139.6124 361.7918 Z " fill="none" stroke="#B2B2B2" stroke-width="1" stroke-linecap="butt" stroke-linejoin="miter" stroke-dasharray="" transform="matrix(1 0 0 1 -36 -153)" /><path d="M474 300 L474 300 L480 300 L480 330 L396 330 L396 324" fill="none" stroke="#666666" stroke-width="1" stroke-linecap="butt" stroke-linejoin="miter" stroke-dasharray="" transform="matrix(1 0 0 1 -36 -153)" /><g clip-path="url(#clip_6)"><line x1="354" y1="271.5" x2="378" y2="271.5" stroke="#000000" stroke-width="1" stroke-linecap="butt" stroke-linejoin="miter" stroke-dasharray="" transform="matrix(1 0 0 1 -36 -153)" /></g><path d="M367.6122 268.2082 L376.6302 271.5 L367.6122 274.7918 Z " fill="#000000" fill-opacity="1" transform="matrix(1 0 0 1 -36 -153)" /><path d="M367.6122 268.2082 L376.6302 271.5 L367.6122 274.7918 Z " fill="none" stroke="#000000" stroke-width="1" stroke-linecap="butt" stroke-linejoin="miter" stroke-dasharray="" transform="matrix(1 0 0 1 -36 -153)" /><g clip-path="url(#clip_7)"><line x1="354" y1="312" x2="378" y2="312" stroke="#000000" stroke-width="1" stroke-linecap="butt" stroke-linejoin="miter" stroke-dasharray="" transform="matrix(1 0 0 1 -36 -153)" /></g><path d="M367.6122 308.7082 L376.6302 312 L367.6122 315.2918 Z " fill="#000000" fill-opacity="1" transform="matrix(1 0 0 1 -36 -153)" /><path d="M367.6122 308.7082 L376.6302 312 L367.6122 315.2918 Z " fill="none" stroke="#000000" stroke-width="1" stroke-linecap="butt" stroke-linejoin="miter" stroke-dasharray="" transform="matrix(1 0 0 1 -36 -153)" /><g clip-path="url(#clip_8)"><line x1="354" y1="355.5001" x2="378" y2="355.5001" stroke="#000000" stroke-width="1" stroke-linecap="butt" stroke-linejoin="miter" stroke-dasharray="" transform="matrix(1 0 0 1 -36 -153)" /></g><path d="M367.6122 352.2083 L376.6302 355.5001 L367.6122 358.7919 Z " fill="#000000" fill-opacity="1" transform="matrix(1 0 0 1 -36 -153)" /><path d="M367.6122 352.2083 L376.6302 355.5001 L367.6122 358.7919 Z " fill="none" stroke="#000000" stroke-width="1" stroke-linecap="butt" stroke-linejoin="miter" stroke-dasharray="" transform="matrix(1 0 0 1 -36 -153)" /><path d="M587.7894 296.2748 L568.0984 296.2748 L568.0984 333.5396 L587.7894 333.5396" fill="#666666" fill-opacity="1" transform="matrix(1 0 0 1 -36 -153)" /><path d="M587.7894 296.2748 L568.0984 296.2748 L568.0984 333.5396 L587.7894 333.5396" fill="none" stroke="#FFFFFF" stroke-width="1" stroke-linecap="butt" stroke-linejoin="miter" stroke-dasharray="" transform="matrix(1 0 0 1 -36 -153)" /><path d="M587.8015 333.6855 L594.09 328.2724 L594.09 290.6213 L574.3989 290.6213 L568.1104 296.0343 L587.8015 296.0343 Z " fill="#666666" fill-opacity="1" transform="matrix(1 0 0 1 -36 -153)" /><path d="M587.8015 333.6855 L594.09 328.2724 L594.09 290.6213 L574.3989 290.6213 L568.1104 296.0343 L587.8015 296.0343 Z " fill="none" stroke="#FFFFFF" stroke-width="1" stroke-linecap="butt" stroke-linejoin="miter" stroke-dasharray="" transform="matrix(1 0 0 1 -36 -153)" /><line x1="587.8015" y1="296.0344" x2="594.0718" y2="290.3145" stroke="#FFFFFF" stroke-width="1" stroke-linecap="butt" stroke-linejoin="miter" stroke-dasharray="" transform="matrix(1 0 0 1 -36 -153)" /><path d="M579.7208 316.6172 L579.7208 315.1776 L569.803 315.1776 L569.803 316.6172 Z " fill="#666666" fill-opacity="1" transform="matrix(1 0 0 1 -36 -153)" /><path d="M579.7208 319.5933 L579.7208 318.1536 L569.803 318.1536 L569.803 319.5933 Z " fill="#666666" fill-opacity="1" transform="matrix(1 0 0 1 -36 -153)" /><path d="M579.7208 322.5827 L579.7208 321.143 L569.803 321.143 L569.803 322.5827 Z " fill="#666666" fill-opacity="1" transform="matrix(1 0 0 1 -36 -153)" /><path d="M569.803 322.5827 L579.7208 322.5827 L579.7208 321.143 L569.803 321.143 Z " fill="#666666" fill-opacity="1" transform="matrix(1 0 0 1 -36 -153)" /><path d="M569.803 322.5827 L579.7208 322.5827 L579.7208 321.143 L569.803 321.143 Z " fill="none" transform="matrix(1 0 0 1 -36 -153)" /><path d="M579.7208 325.5672 L579.7208 324.1274 L569.803 324.1274 L569.803 325.5672 Z " fill="#666666" fill-opacity="1" transform="matrix(1 0 0 1 -36 -153)" /><path d="M569.803 325.5672 L579.7208 325.5672 L579.7208 324.1274 L569.803 324.1274 Z " fill="#666666" fill-opacity="1" transform="matrix(1 0 0 1 -36 -153)" /><path d="M569.803 325.5672 L579.7208 325.5672 L579.7208 324.1274 L569.803 324.1274 Z " fill="none" transform="matrix(1 0 0 1 -36 -153)" /><path d="M579.7208 328.5509 L579.7208 327.1116 L569.803 327.1116 L569.803 328.5509 Z " fill="#666666" fill-opacity="1" transform="matrix(1 0 0 1 -36 -153)" /><path d="M579.7208 331.5353 L579.7208 330.0957 L569.803 330.0957 L569.803 331.5353 Z " fill="#666666" fill-opacity="1" transform="matrix(1 0 0 1 -36 -153)" /><path d="M569.803 319.4842 L579.7208 319.4842 L579.7208 318.0444 L569.803 318.0444 Z " fill="#666666" fill-opacity="1" transform="matrix(1 0 0 1 -36 -153)" /><path d="M569.803 319.4842 L579.7208 319.4842 L579.7208 318.0444 L569.803 318.0444 Z " fill="none" transform="matrix(1 0 0 1 -36 -153)" /><path d="M580.9161 301.6964 L580.9033 301.8859 L580.8647 302.0739 L580.8009 302.2581 L580.7138 302.4388 L580.6024 302.618 L580.468 302.7919 L580.3107 302.9635 L580.1327 303.1312 L579.9332 303.2935 L579.713 303.4534 L579.4737 303.607 L579.2151 303.7568 L578.9376 303.9012 L578.642 304.0408 L578.3284 304.174 L577.9984 304.302 L577.6528 304.4236 L577.2919 304.5399 L576.9158 304.6489 L576.5253 304.7525 L576.1208 304.8471 L575.704 304.9366 L575.2749 305.0172 L574.8336 305.0914 L574.3817 305.1581 L573.9185 305.2159 L573.4462 305.2657 L572.9645 305.3064 L572.4741 305.3384 L571.9758 305.3617 L571.4701 305.3757 L570.9581 305.3805 C565.4589 305.3805 561 303.7311 561 301.6964 L561 310.1949 C561 312.2247 565.4589 313.8792 570.9581 313.8792 C576.4562 313.8792 580.9161 312.2247 580.9161 310.1949 Z " fill="#666666" fill-opacity="1" transform="matrix(1 0 0 1 -36 -153)" /><path d="M580.9161 301.6964 L580.9033 301.8859 L580.8647 302.0739 L580.8009 302.2581 L580.7138 302.4388 L580.6024 302.618 L580.468 302.7919 L580.3107 302.9635 L580.1327 303.1312 L579.9332 303.2935 L579.713 303.4534 L579.4737 303.607 L579.2151 303.7568 L578.9376 303.9012 L578.642 304.0408 L578.3284 304.174 L577.9984 304.302 L577.6528 304.4236 L577.2919 304.5399 L576.9158 304.6489 L576.5253 304.7525 L576.1208 304.8471 L575.704 304.9366 L575.2749 305.0172 L574.8336 305.0914 L574.3817 305.1581 L573.9185 305.2159 L573.4462 305.2657 L572.9645 305.3064 L572.4741 305.3384 L571.9758 305.3617 L571.4701 305.3757 L570.9581 305.3805 C565.4589 305.3805 561 303.7311 561 301.6964 L561 310.1949 C561 312.2247 565.4589 313.8792 570.9581 313.8792 C576.4562 313.8792 580.9161 312.2247 580.9161 310.1949 Z " fill="#666666" fill-opacity="1" transform="matrix(1 0 0 1 -36 -153)" /><path d="M580.9161 301.6964 L580.9033 301.8859 L580.8647 302.0739 L580.8009 302.2581 L580.7138 302.4388 L580.6024 302.618 L580.468 302.7919 L580.3107 302.9635 L580.1327 303.1312 L579.9332 303.2935 L579.713 303.4534 L579.4737 303.607 L579.2151 303.7568 L578.9376 303.9012 L578.642 304.0408 L578.3284 304.174 L577.9984 304.302 L577.6528 304.4236 L577.2919 304.5399 L576.9158 304.6489 L576.5253 304.7525 L576.1208 304.8471 L575.704 304.9366 L575.2749 305.0172 L574.8336 305.0914 L574.3817 305.1581 L573.9185 305.2159 L573.4462 305.2657 L572.9645 305.3064 L572.4741 305.3384 L571.9758 305.3617 L571.4701 305.3757 L570.9581 305.3805 C565.4589 305.3805 561 303.7311 561 301.6964 L561 310.1949 C561 312.2247 565.4589 313.8792 570.9581 313.8792 C576.4562 313.8792 580.9161 312.2247 580.9161 310.1949 Z " fill="none" stroke="#FFFFFF" stroke-width="1" stroke-linecap="butt" stroke-linejoin="miter" stroke-dasharray="" transform="matrix(1 0 0 1 -36 -153)" /><path d="M570.9581 305.3805 L571.4701 305.3757 L571.9758 305.3617 L572.4741 305.3384 L572.9645 305.3064 L573.4462 305.2657 L573.9185 305.2159 L574.3817 305.1581 L574.8336 305.0914 L575.2749 305.0172 L575.704 304.9366 L576.1208 304.8471 L576.5253 304.7525 L576.9158 304.6489 L577.2919 304.5399 L577.6528 304.4236 L577.9984 304.302 L578.3284 304.174 L578.642 304.0408 L578.9376 303.9012 L579.2151 303.7568 L579.4737 303.607 L579.713 303.4534 L579.9332 303.2935 L580.1327 303.1312 L580.3107 302.9635 L580.468 302.7919 L580.6024 302.618 L580.7138 302.4388 L580.8009 302.2581 L580.8647 302.0739 L580.9033 301.8859 L580.9161 301.6964 C580.9161 299.6577 576.4562 298.0082 570.9581 298.0082 C565.4589 298.0082 561 299.6577 561 301.6964 C561 303.7311 565.4589 305.3805 570.9581 305.3805 Z " fill="#666666" fill-opacity="1" transform="matrix(1 0 0 1 -36 -153)" /><path d="M570.9581 305.3805 L571.4701 305.3757 L571.9758 305.3617 L572.4741 305.3384 L572.9645 305.3064 L573.4462 305.2657 L573.9185 305.2159 L574.3817 305.1581 L574.8336 305.0914 L575.2749 305.0172 L575.704 304.9366 L576.1208 304.8471 L576.5253 304.7525 L576.9158 304.6489 L577.2919 304.5399 L577.6528 304.4236 L577.9984 304.302 L578.3284 304.174 L578.642 304.0408 L578.9376 303.9012 L579.2151 303.7568 L579.4737 303.607 L579.713 303.4534 L579.9332 303.2935 L580.1327 303.1312 L580.3107 302.9635 L580.468 302.7919 L580.6024 302.618 L580.7138 302.4388 L580.8009 302.2581 L580.8647 302.0739 L580.9033 301.8859 L580.9161 301.6964 C580.9161 299.6577 576.4562 298.0082 570.9581 298.0082 C565.4589 298.0082 561 299.6577 561 301.6964 C561 303.7311 565.4589 305.3805 570.9581 305.3805 Z " fill="#666666" fill-opacity="1" transform="matrix(1 0 0 1 -36 -153)" /><path d="M570.9581 305.3805 L571.4701 305.3757 L571.9758 305.3617 L572.4741 305.3384 L572.9645 305.3064 L573.4462 305.2657 L573.9185 305.2159 L574.3817 305.1581 L574.8336 305.0914 L575.2749 305.0172 L575.704 304.9366 L576.1208 304.8471 L576.5253 304.7525 L576.9158 304.6489 L577.2919 304.5399 L577.6528 304.4236 L577.9984 304.302 L578.3284 304.174 L578.642 304.0408 L578.9376 303.9012 L579.2151 303.7568 L579.4737 303.607 L579.713 303.4534 L579.9332 303.2935 L580.1327 303.1312 L580.3107 302.9635 L580.468 302.7919 L580.6024 302.618 L580.7138 302.4388 L580.8009 302.2581 L580.8647 302.0739 L580.9033 301.8859 L580.9161 301.6964 C580.9161 299.6577 576.4562 298.0082 570.9581 298.0082 C565.4589 298.0082 561 299.6577 561 301.6964 C561 303.7311 565.4589 305.3805 570.9581 305.3805 Z " fill="none" stroke="#FFFFFF" stroke-width="1" stroke-linecap="butt" stroke-linejoin="miter" stroke-dasharray="" transform="matrix(1 0 0 1 -36 -153)" /><path d="M569.7902 328.546 L579.7076 328.546 L579.7076 327.1063 L569.7902 327.1063 Z " fill="#666666" fill-opacity="1" transform="matrix(1 0 0 1 -36 -153)" /><path d="M569.7902 328.546 L579.7076 328.546 L579.7076 327.1063 L569.7902 327.1063 Z " fill="none" transform="matrix(1 0 0 1 -36 -153)" /><path d="M652.991 291.9922 L653.0229 291.9385 L653.0536 291.8878 L653.0833 291.8387 L653.1129 291.7902 L653.1404 291.7453 L653.1677 291.7013 L653.1942 291.6584 L653.2194 291.6181 L653.2436 291.5786 L653.2677 291.5413 L653.2905 291.505 L653.3127 291.4697 L653.3335 291.437 L653.3543 291.4049 L653.374 291.3742 L653.3939 291.3459 L653.4124 291.3172 L653.4301 291.291 L653.4476 291.2646 L653.464 291.2403 L653.496 291.1942 L653.5256 291.1526 L653.5541 291.1143 L653.5793 291.0779 L653.6046 291.0461 L653.6277 291.0166 L653.6496 290.9881 L653.6704 290.9615 L653.6903 290.9374 L653.71 290.9145 L653.7472 290.8696 L653.7847 290.8243 L653.8032 290.8002 L653.8218 290.776 L653.8416 290.7509 L653.8624 290.7233 L653.8832 290.6939 L653.9063 290.6621 L653.9305 290.6281 L653.9558 290.5895 C656.7083 286.4189 659.5159 288.4372 657.6129 292.3093 C656.0389 295.5122 655.8765 295.7218 655.2675 296.7853 C654.1993 298.65 653.1195 300.6989 652.3655 302.183" fill="none" stroke="#B2B2B2" stroke-width="0.8" stroke-linecap="butt" stroke-linejoin="miter" stroke-dasharray="" transform="matrix(1 0 0 1 -36 -153)" /><path d="M655.7349 296.0695 L655.8644 295.8809 L655.9951 295.7009 L656.1246 295.5297 L656.253 295.3672 L656.3814 295.2125 L656.5098 295.0664 L656.637 294.9291 L656.7633 294.8 L656.8884 294.6781 L657.0126 294.5648 L657.1354 294.4595 L657.2573 294.3619 L657.378 294.2717 L657.4964 294.1885 L657.6139 294.1138 L657.7303 294.0457 L657.8444 293.9854 L657.9562 293.9326 L658.0671 293.8866 L658.1747 293.847 L658.2811 293.8154 L658.3854 293.7901 L658.4875 293.7713 L658.5864 293.7593 L658.683 293.755 L658.7773 293.756 L658.8683 293.7626 L658.9572 293.7768 L659.0429 293.7966 L659.1263 293.8228 L659.2054 293.8548 L659.2823 293.8921 L659.3547 293.936 L659.4249 293.9854 L659.4907 294.0402 L659.5533 294.1006 L659.6125 294.1665 L659.6685 294.2367 L659.719 294.3136 L659.7664 294.3948 L659.8102 294.4817 L659.8497 294.5726 L659.8837 294.6691 L659.9145 294.77 L659.9408 294.8755 L659.9615 294.9853 L659.9791 295.1004 L659.9901 295.2189 L659.9977 295.3419 L660 295.4694 L659.9966 295.601 L659.989 295.7371 L659.9758 295.8764 L659.9573 296.0192 L659.933 296.1664 L659.9035 296.3164 L659.8685 296.4702 L659.8275 296.6273 L659.7805 296.7885 L659.7278 296.952 L659.6697 297.1189 L659.6049 297.2889 L659.5335 297.4622 L659.4555 297.6381 C657.9905 300.8714 657.5997 300.9998 657.0642 302.1356 C656.073 304.2453 656.3824 303.9106 655.6273 305.399" fill="none" stroke="#B2B2B2" stroke-width="0.8" stroke-linecap="butt" stroke-linejoin="miter" stroke-dasharray="" transform="matrix(1 0 0 1 -36 -153)" /><path d="M650.1143 296.9827 L650.1835 296.8929 L650.2483 296.8082 L650.3097 296.7259 L650.3688 296.6468 L650.4789 296.4922 L650.582 296.3407 L650.6818 296.1848 L650.7816 296.0202 L650.8333 295.9325 L650.886 295.8415 L650.9408 295.7447 L650.9978 295.6428 L651.057 295.5351 L651.1208 295.42 L651.1877 295.297 L651.258 295.1652 L651.3337 295.026 L651.4139 294.8755 L651.5004 294.7164 L651.5916 294.5452 L651.6904 294.3619 L651.742 294.2663 L651.7947 294.1665 L651.8496 294.0644 L651.9067 293.9592 L651.966 293.8494 L652.0274 293.7372 L652.09 293.6209 L652.1547 293.5012 L652.2218 293.3773 L652.2918 293.2502 L652.3633 293.1184 L652.4368 292.9821 L652.5137 292.843 L652.5927 292.6992 C654.7406 288.7854 651.7222 286.8732 648.9094 290.9332 C645.9338 295.2333 645.1799 296.4637 643.5291 298.3712 C641.8738 300.2787 638.7953 307.7222 636.8537 309.7419 C635.563 311.0873 637.3893 305.8184 637.2225 304.2793 C636.8658 300.9483 636.7803 301.3291 636.3994 300.1549 C636.013 298.9847 633.6336 296.9005 633.1321 298.7061 C632.8747 299.64 632.9949 299.6708 633.1837 300.7343 C633.2822 301.2787 632.892 301.1195 633.0035 303.735 C633.0679 305.2144 630.697 309.6168 629.9809 311.5802 C628.459 315.7432 630.1395 315.9627 629.5135 319.4267 C628.8318 323.2252 629.6336 322.436 628.952 324.056 C628.266 325.6772 624.3817 331.9151 624.0002 332.9142" fill="none" stroke="#B2B2B2" stroke-width="0.8" stroke-linecap="butt" stroke-linejoin="miter" stroke-dasharray="" transform="matrix(1 0 0 1 -36 -153)" /><path d="M638.0325 311.5846 C640.3044 312.8753 638.1995 319.8854 638.1995 319.8854" fill="none" stroke="#000000" stroke-width="0.4" stroke-linecap="butt" stroke-linejoin="miter" stroke-dasharray="" transform="matrix(1 0 0 1 -36 -153)" /><path d="M636.9526 311.0831 C636.4159 310.4015 636.3994 309.9515 636.3994 309.9515" fill="none" stroke="#000000" stroke-width="0.4" stroke-linecap="butt" stroke-linejoin="miter" stroke-dasharray="" transform="matrix(1 0 0 1 -36 -153)" /><path d="M630.101 316.6094 L647.4726 316.6094 L658.6292 296.1719 L642.1055 296.1719 Z " fill="#00AAD7" fill-opacity="1" transform="matrix(1 0 0 1 -36 -153)" /><path d="M630.101 316.6094 L647.4726 316.6094 L658.6292 296.1719 L642.1055 296.1719 Z " fill="#666666" fill-opacity="1" transform="matrix(1 0 0 1 -36 -153)" /><path d="M630.101 316.6094 L647.4726 316.6094 L658.6292 296.1719 L642.1055 296.1719 Z " fill="none" stroke="#FFFFFF" stroke-width="0.4" stroke-linecap="butt" stroke-linejoin="miter" stroke-dasharray="" transform="matrix(1 0 0 1 -36 -153)" /><path d="M630.101 316.6094 L630.101 319.9873 L647.4726 319.9873 L647.4726 316.6094 Z " fill="#00AAD7" fill-opacity="1" transform="matrix(1 0 0 1 -36 -153)" /><path d="M630.101 319.9873 L647.4726 319.9873 L647.4726 316.6094 L630.101 316.6094 Z " fill="#666666" fill-opacity="1" transform="matrix(1 0 0 1 -36 -153)" /><path d="M658.6292 296.1719 L658.6292 299.3404 L647.4726 319.9873 L647.4726 316.6094 Z " fill="#00AAD7" fill-opacity="1" transform="matrix(1 0 0 1 -36 -153)" /><path d="M658.6292 296.1719 L658.6292 299.3404 L647.4726 319.9873 L647.4726 316.6094 Z " fill="#666666" fill-opacity="1" transform="matrix(1 0 0 1 -36 -153)" /><path d="M658.6292 296.1719 L658.6292 299.3404 L647.4726 319.9873 L647.4726 316.6094 Z " fill="none" stroke="#FFFFFF" stroke-width="0.4" stroke-linecap="butt" stroke-linejoin="miter" stroke-dasharray="" transform="matrix(1 0 0 1 -36 -153)" /><path d="M655.7172 298.234 L648.3693 311.9019 L634.808 311.9019 L642.7311 298.234 Z " fill="#FFFFFF" fill-opacity="1" transform="matrix(1 0 0 1 -36 -153)" /><path d="M655.7172 298.234 L648.3693 311.9019 L634.808 311.9019 L642.7311 298.234 Z " fill="none" stroke="#FFFFFF" stroke-width="0.1926" stroke-linecap="butt" stroke-linejoin="miter" stroke-dasharray="" transform="matrix(1 0 0 1 -36 -153)" /><path d="M635.4861 313.7973 L634.6755 315.2889 L633.1191 315.2889 L633.981 313.7973 Z " fill="#FFFFFF" fill-opacity="1" transform="matrix(1 0 0 1 -36 -153)" /><path d="M635.4861 313.7973 L634.6755 315.2889 L633.1191 315.2889 L633.981 313.7973 Z " fill="none" stroke="#FFFFFF" stroke-width="0.1926" stroke-linecap="butt" stroke-linejoin="miter" stroke-dasharray="" transform="matrix(1 0 0 1 -36 -153)" /><path d="M647.499 313.7973 L646.6889 315.2889 L645.1327 315.2889 L645.9943 313.7973 Z " fill="#FFFFFF" fill-opacity="1" transform="matrix(1 0 0 1 -36 -153)" /><path d="M647.499 313.7973 L646.6889 315.2889 L645.1327 315.2889 L645.9943 313.7973 Z " fill="none" stroke="#FFFFFF" stroke-width="0.1926" stroke-linecap="butt" stroke-linejoin="miter" stroke-dasharray="" transform="matrix(1 0 0 1 -36 -153)" /><path d="M644.5015 313.7973 L643.6916 315.2889 L642.1397 315.2889 L642.9966 313.7973 Z " fill="#FFFFFF" fill-opacity="1" transform="matrix(1 0 0 1 -36 -153)" /><path d="M644.5015 313.7973 L643.6916 315.2889 L642.1397 315.2889 L642.9966 313.7973 Z " fill="none" stroke="#FFFFFF" stroke-width="0.1926" stroke-linecap="butt" stroke-linejoin="miter" stroke-dasharray="" transform="matrix(1 0 0 1 -36 -153)" /><path d="M641.3636 313.7973 L640.5579 315.2889 L639.0018 315.2889 L639.8633 313.7973 Z " fill="#FFFFFF" fill-opacity="1" transform="matrix(1 0 0 1 -36 -153)" /><path d="M641.3636 313.7973 L640.5579 315.2889 L639.0018 315.2889 L639.8633 313.7973 Z " fill="none" stroke="#FFFFFF" stroke-width="0.1926" stroke-linecap="butt" stroke-linejoin="miter" stroke-dasharray="" transform="matrix(1 0 0 1 -36 -153)" /><path d="M638.397 313.7973 L637.587 315.2889 L636.035 315.2889 L636.8923 313.7973 Z " fill="#FFFFFF" fill-opacity="1" transform="matrix(1 0 0 1 -36 -153)" /><path d="M638.397 313.7973 L637.587 315.2889 L636.035 315.2889 L636.8923 313.7973 Z " fill="none" stroke="#FFFFFF" stroke-width="0.1926" stroke-linecap="butt" stroke-linejoin="miter" stroke-dasharray="" transform="matrix(1 0 0 1 -36 -153)" /><path d="M636.0469 338.7234 L636.0964 338.6483 L636.1502 338.5651 L636.2095 338.4747 L636.2744 338.3774 L636.3434 338.2726 L636.417 338.1618 L636.5771 337.9212 L636.7528 337.6574 L636.9439 337.3735 L637.1479 337.0705 L637.363 336.7519 L637.5892 336.4192 L637.8229 336.0746 L638.0654 335.7206 L638.3125 335.3598 L638.8182 334.6252 L639.3297 333.8891 L639.5845 333.5262 L639.8346 333.1694 L640.0817 332.8214 L640.3221 332.4843 L640.5546 332.1599 L640.7786 331.8513 L640.9926 331.5603 L641.1946 331.2891 L641.3834 331.04 L641.5569 330.8154 L641.6368 330.7129 L641.7137 330.6173 L641.7861 330.5291 L641.8533 330.4482 L641.9157 330.3755 L641.9739 330.3105 L642.0255 330.2538 L642.0725 330.206 L642.1144 330.1667 L642.1505 330.1371 L642.1803 330.1167 L642.2042 330.1058 C647.0917 328.7728 652.6696 317.8997 655.2806 314.7312 C655.8502 314.0421 656.3398 312.6953 656.5876 312.0609 C656.7083 311.7526 657.8136 309.4203 658.4316 308.3182 L659.4172 303.8425 L659.5762 299.9109 C659.5762 299.9109 658.0245 296.1805 657.1322 300.9649 L656.5022 304.039 C656.2101 304.5195 655.1345 306.0968 654.8558 306.7784 C654.577 307.46 652.8922 309.5607 652.9055 310.7274" fill="#FFFFFF" fill-opacity="1" transform="matrix(1 0 0 1 -36 -153)" /><path d="M636.0469 338.7234 L636.0964 338.6483 L636.1502 338.5651 L636.2095 338.4747 L636.2744 338.3774 L636.3434 338.2726 L636.417 338.1618 L636.5771 337.9212 L636.7528 337.6574 L636.9439 337.3735 L637.1479 337.0705 L637.363 336.7519 L637.5892 336.4192 L637.8229 336.0746 L638.0654 335.7206 L638.3125 335.3598 L638.8182 334.6252 L639.3297 333.8891 L639.5845 333.5262 L639.8346 333.1694 L640.0817 332.8214 L640.3221 332.4843 L640.5546 332.1599 L640.7786 331.8513 L640.9926 331.5603 L641.1946 331.2891 L641.3834 331.04 L641.5569 330.8154 L641.6368 330.7129 L641.7137 330.6173 L641.7861 330.5291 L641.8533 330.4482 L641.9157 330.3755 L641.9739 330.3105 L642.0255 330.2538 L642.0725 330.206 L642.1144 330.1667 L642.1505 330.1371 L642.1803 330.1167 L642.2042 330.1058 C647.0917 328.7728 652.6696 317.8997 655.2806 314.7312 C655.8502 314.0421 656.3398 312.6953 656.5876 312.0609 C656.7083 311.7526 657.8136 309.4203 658.4316 308.3182 L659.4172 303.8425 L659.5762 299.9109 C659.5762 299.9109 658.0245 296.1805 657.1322 300.9649 L656.5022 304.039 C656.2101 304.5195 655.1345 306.0968 654.8558 306.7784 C654.577 307.46 652.8922 309.5607 652.9055 310.7274" fill="none" stroke="#B2B2B2" stroke-width="0.8" stroke-linecap="butt" stroke-linejoin="miter" stroke-dasharray="" transform="matrix(1 0 0 1 -36 -153)" /><g clip-path="url(#clip_9)"><line x1="480" y1="312" x2="558" y2="312" stroke="#000000" stroke-width="1" stroke-linecap="butt" stroke-linejoin="miter" stroke-dasharray="2,2" transform="matrix(1 0 0 1 -36 -153)" /></g><path d="M547.6122 308.7082 L556.6302 312 L547.6122 315.2918 Z " fill="#000000" fill-opacity="1" transform="matrix(1 0 0 1 -36 -153)" /><path d="M547.6122 308.7082 L556.6302 312 L547.6122 315.2918 Z " fill="none" stroke="#000000" stroke-width="1" stroke-linecap="butt" stroke-linejoin="miter" stroke-dasharray="" transform="matrix(1 0 0 1 -36 -153)" /><g clip-path="url(#clip_10)"><line x1="600" y1="313.5" x2="624" y2="313.5" stroke="#B2B2B2" stroke-width="1" stroke-linecap="butt" stroke-linejoin="miter" stroke-dasharray="2,2" transform="matrix(1 0 0 1 -36 -153)" /></g><path d="M613.6122 310.2082 L622.6302 313.5 L613.6122 316.7918 Z " fill="none" stroke="#B2B2B2" stroke-width="1" stroke-linecap="butt" stroke-linejoin="miter" stroke-dasharray="" transform="matrix(1 0 0 1 -36 -153)" /><line x1="234" y1="189" x2="234" y2="423" stroke="#7F7F7F" stroke-width="2" stroke-linecap="butt" stroke-linejoin="miter" stroke-dasharray="32,8" transform="matrix(1 0 0 1 -36 -153)" /><text x="200.7341" y="176.6211" font-size="15" fill="#000000" fill-opacity="1" font-family="Arial" font-weight="normal" font-style="normal" transform="matrix(1 0 0 1 -36 -153)">input tier</text><line x1="534.0004" y1="189" x2="534.0004" y2="423" stroke="#7F7F7F" stroke-width="2" stroke-linecap="butt" stroke-linejoin="miter" stroke-dasharray="32,8" transform="matrix(1 0 0 1 -36 -153)" /><text x="496.1457" y="176.6211" font-size="15" fill="#000000" fill-opacity="1" font-family="Arial" font-weight="normal" font-style="normal" transform="matrix(1 0 0 1 -36 -153)">output tier</text><text x="550.2306" y="256.621" font-size="15" fill="#000000" fill-opacity="1" font-family="Arial" font-weight="normal" font-style="normal" transform="matrix(1 0 0 1 -36 -153)">messaging </text><text x="562.744" y="273.621" font-size="15" fill="#000000" fill-opacity="1" font-family="Arial" font-weight="normal" font-style="normal" transform="matrix(1 0 0 1 -36 -153)">service</text></svg>