<?xml version="1.0" encoding="utf-8"?><svg viewBox="0 0 143 104" width="100%" height="100%" version="1.1" xmlns:xlink="http://www.w3.org/1999/xlink" xmlns="http://www.w3.org/2000/svg"><defs><clipPath id="clip_0"><path d="M 0 0 l 143,0 l 0,104 l -143,0 z M67.47823 26.82807 C67.47823 26.53672 67.7166 26.29835 68.00794 26.29835 C68.29929 26.29835 68.53766 26.53672 68.53766 26.82807 C68.53766 27.11942 68.29929 27.35779 68.00794 27.35779 C67.7166 27.35779 67.47823 27.11942 67.47823 26.82807 Z " clip-rule="nonzero" /></clipPath><clipPath id="clip_1"><path d="M 0 0 l 143,0 l 0,104 l -143,0 z M67.20542 42 C67.20542 41.56298 67.56298 41.20542 68 41.20542 C68.43702 41.20542 68.79458 41.56298 68.79458 42 C68.79458 42.43702 68.43702 42.79458 68 42.79458 C67.56298 42.79458 67.20542 42.43702 67.20542 42 Z " clip-rule="nonzero" /></clipPath><clipPath id="clip_2"><path d="M 0 0 l 143,0 l 0,104 l -143,0 z M99.48809 71 C99.48809 70.71845 99.71845 70.48809 100 70.48809 C100.2815 70.48809 100.5119 70.71845 100.5119 71 C100.5119 71.28155 100.2815 71.51191 100 71.51191 C99.71845 71.51191 99.48809 71.28155 99.48809 71 Z " clip-rule="nonzero" /></clipPath><clipPath id="clip_3"><path d="M 0 0 l 143,0 l 0,104 l -143,0 z M141.2321 83 C141.2321 82.57767 141.5777 82.23214 142 82.23214 C142.4223 82.23214 142.7679 82.57767 142.7679 83 C142.7679 83.42233 142.4223 83.76786 142 83.76786 C141.5777 83.76786 141.2321 83.42233 141.2321 83 Z " clip-rule="nonzero" /></clipPath><clipPath id="clip_4"><path d="M 0 0 l 143,0 l 0,104 l -143,0 z M93.1 57 C93.1 56.505 93.505 56.1 94 56.1 C94.495 56.1 94.9 56.505 94.9 57 C94.9 57.495 94.495 57.9 94 57.9 C93.505 57.9 93.1 57.495 93.1 57 Z " clip-rule="nonzero" /></clipPath><clipPath id="clip_5"><path d="M 0 0 l 143,0 l 0,104 l -143,0 z M85.1 64 C85.1 63.505 85.505 63.1 86 63.1 C86.495 63.1 86.9 63.505 86.9 64 C86.9 64.495 86.495 64.9 86 64.9 C85.505 64.9 85.1 64.495 85.1 64 Z " clip-rule="nonzero" /></clipPath><clipPath id="clip_6"><path d="M 0 0 l 143,0 l 0,104 l -143,0 z M67.10794 57.51423 C67.10794 57.01923 67.51294 56.61423 68.00794 56.61423 C68.50294 56.61423 68.90794 57.01923 68.90794 57.51423 C68.90794 58.00923 68.50294 58.41423 68.00794 58.41423 C67.51294 58.41423 67.10794 58.00923 67.10794 57.51423 Z " clip-rule="nonzero" /></clipPath><clipPath id="clip_7"><path d="M 0 0 l 143,0 l 0,104 l -143,0 z M141.1 97 C141.1 96.505 141.505 96.1 142 96.1 C142.495 96.1 142.9 96.505 142.9 97 C142.9 97.495 142.495 97.9 142 97.9 C141.505 97.9 141.1 97.495 141.1 97 Z " clip-rule="nonzero" /></clipPath></defs><filter id="shadow1" width="150%" height="150%"><feDropShadow dx="1" dy="1" stdDeviation="0.5" flood-color="#000000" flood-opacity="0.5" /></filter><rect x="0" y="0" width="143" height="104" fill="#FFFFFF" fill-opacity="1" /><rect x="26" y="17" width="142.0578" height="103" rx="2.977035" ry="2.977035" fill="none" stroke="#B2B2B2" stroke-width="0.899003" stroke-linecap="butt" stroke-linejoin="miter" stroke-dasharray="0.899003,0.899003" transform="matrix(1.000302 0 0 1.000302 -25.55824 -16.5207)" /><rect x="124.3187" y="76" width="22.68126" height="8" fill="#FFFFFF" fill-opacity="1" filter="url(#shadow1)" transform="matrix(1.000302 0 0 1.000302 -25.55824 -16.5207)" /><rect x="124.3187" y="76" width="22.68126" height="8" fill="none" stroke="#999999" stroke-width="0.870154" stroke-linecap="butt" stroke-linejoin="miter" stroke-dasharray="none" transform="matrix(1.000302 0 0 1.000302 -25.55824 -16.5207)" /><rect x="38.93897" y="35" width="35.06103" height="8.519245" fill="#FFFFFF" fill-opacity="1" filter="url(#shadow1)" transform="matrix(1.000302 0 0 1.000302 -25.55824 -16.5207)" /><rect x="38.93897" y="35" width="35.06103" height="8.519245" fill="none" stroke="#000000" stroke-width="1" stroke-linecap="butt" stroke-linejoin="miter" stroke-dasharray="none" transform="matrix(1.000302 0 0 1.000302 -25.55824 -16.5207)" /><text x="40.76452" y="41.24057" font-size="5.644444" fill="#000000" fill-opacity="1" font-family="Arial" font-weight="normal" font-style="normal" transform="matrix(1.000302 0 0 1.000302 -25.55824 -16.5207)">Handle</text><rect x="63.91631" y="36.90218" width="8.183243" height="7.097816" fill="#FFFFFF" fill-opacity="1" transform="matrix(1.000302 0 0 1.000302 -25.55824 -16.5207)" /><rect x="63.91631" y="36.90218" width="8.183243" height="7.097816" fill="none" stroke="#000000" stroke-width="1" stroke-linecap="butt" stroke-linejoin="miter" stroke-dasharray="none" transform="matrix(1.000302 0 0 1.000302 -25.55824 -16.5207)" /><rect x="33.52735" y="43.59303" width="72.20565" height="35.40697" rx="2.725235" ry="2.725235" fill="#FFFFFF" fill-opacity="1" filter="url(#shadow1)" transform="matrix(1.000302 0 0 1.000302 -25.55824 -16.5207)" /><rect x="33.52735" y="43.59303" width="72.20565" height="35.40697" rx="2.725235" ry="2.725235" fill="none" stroke="#000000" stroke-width="1" stroke-linecap="butt" stroke-linejoin="miter" stroke-dasharray="none" transform="matrix(1.000302 0 0 1.000302 -25.55824 -16.5207)" /><text x="40.41354" y="53.09613" font-size="7.05556" fill="#000000" fill-opacity="1" font-family="Arial" font-weight="normal" font-style="normal" transform="matrix(1.000302 0 0 1.000302 -25.55824 -16.5207)">Actor</text><text x="78.74585" y="38.3736" font-size="5.644444" fill="#000000" fill-opacity="1" font-family="Arial" font-weight="normal" font-style="normal" transform="matrix(1.000302 0 0 1.000302 -25.55824 -16.5207)">Mailbox</text><text x="39.85184" y="62.17462" font-size="4.64444" fill="#000000" fill-opacity="1" font-family="Courier New" font-weight="normal" font-style="normal" transform="matrix(1.000302 0 0 1.000302 -25.55824 -16.5207)">receive (msg)
</text><text x="39.85184" y="67.17462" font-size="4.64444" fill="#000000" fill-opacity="1" font-family="Courier New" font-weight="normal" font-style="normal" transform="matrix(1.000302 0 0 1.000302 -25.55824 -16.5207)">  case a =&gt; ...
</text><text x="39.85184" y="72.17462" font-size="4.64444" fill="#000000" fill-opacity="1" font-family="Courier New" font-weight="normal" font-style="normal" transform="matrix(1.000302 0 0 1.000302 -25.55824 -16.5207)">  case b =&gt; h.send(c)</text><path d="M68.00794 26.82807 L68 42" fill="#000000" fill-opacity="1" transform="matrix(1.000302 0 0 1.000302 -25.55824 -16.5207)" /><g clip-path="url(#clip_0)"><g clip-path="url(#clip_1)"><path d="M68.00794 26.82807 L68 42" fill="none" stroke="#000000" stroke-width="0.529719" stroke-linecap="butt" stroke-linejoin="miter" stroke-dasharray="none" transform="matrix(1.000302 0 0 1.000302 -25.55824 -16.5207)" /></g></g><path d="M66.9747 28.12495 C66.975 27.55704 67.4399 27.09263 68.0078 27.09293 C68.57571 27.09323 69.04012 27.55812 69.03983 28.12603 C69.03953 28.69394 68.57463 29.15835 68.00672 29.15805 C67.43881 29.15775 66.9744 28.69286 66.9747 28.12495 Z " fill="#000000" fill-opacity="1" transform="matrix(1.000302 0 0 1.000302 -25.55824 -16.5207)" /><path d="M66.9747 28.12495 C66.975 27.55704 67.4399 27.09263 68.0078 27.09293 C68.57571 27.09323 69.04012 27.55812 69.03983 28.12603 C69.03953 28.69394 68.57463 29.15835 68.00672 29.15805 C67.43881 29.15775 66.9744 28.69286 66.9747 28.12495 Z " fill="none" stroke="#000000" stroke-width="0.529719" stroke-linecap="butt" stroke-linejoin="miter" stroke-dasharray="none" transform="matrix(1.000302 0 0 1.000302 -25.55824 -16.5207)" /><path d="M68.9459 38.68835 L68.00038 41.27441 L67.05757 38.68736 Z " fill="#000000" fill-opacity="1" transform="matrix(1.000302 0 0 1.000302 -25.55824 -16.5207)" /><path d="M68.9459 38.68835 L68.00038 41.27441 L67.05757 38.68736 Z " fill="none" stroke="#000000" stroke-width="0.529719" stroke-linecap="butt" stroke-linejoin="miter" stroke-dasharray="none" transform="matrix(1.000302 0 0 1.000302 -25.55824 -16.5207)" /><rect x="138.9163" y="78" width="6.083679" height="6" fill="#FFFFFF" fill-opacity="1" transform="matrix(1.000302 0 0 1.000302 -25.55824 -16.5207)" /><rect x="138.9163" y="78" width="6.083679" height="6" fill="none" stroke="#999999" stroke-width="1" stroke-linecap="butt" stroke-linejoin="miter" stroke-dasharray="none" transform="matrix(1.000302 0 0 1.000302 -25.55824 -16.5207)" /><rect x="120.2134" y="83.68237" width="41.87286" height="25.31763" rx="1.793558" ry="1.793558" fill="#FFFFFF" fill-opacity="1" filter="url(#shadow1)" transform="matrix(1.000302 0 0 1.000302 -25.55824 -16.5207)" /><rect x="120.2134" y="83.68237" width="41.87286" height="25.31763" rx="1.793558" ry="1.793558" fill="none" stroke="#999999" stroke-width="0.823045" stroke-linecap="butt" stroke-linejoin="miter" stroke-dasharray="none" transform="matrix(1.000302 0 0 1.000302 -25.55824 -16.5207)" /><text x="126.6168" y="81.12334" font-size="5.017283" fill="#666666" fill-opacity="1" font-family="Arial" font-weight="normal" font-style="normal" transform="matrix(1.000302 0 0 1.000302 -25.55824 -16.5207)">h</text><text x="122.2376" y="99.84269" font-size="4.64444" fill="#666666" fill-opacity="1" font-family="Courier New" font-weight="normal" font-style="normal" transform="matrix(1.000302 0 0 1.000302 -25.55824 -16.5207)">receive (msg)
</text><text x="122.2376" y="104.8427" font-size="4.64444" fill="#666666" fill-opacity="1" font-family="Courier New" font-weight="normal" font-style="normal" transform="matrix(1.000302 0 0 1.000302 -25.55824 -16.5207)">  case c =&gt;..
</text><text x="75.95164" y="26.58382" font-size="5.64444" fill="#000000" fill-opacity="1" font-family="Arial" font-weight="normal" font-style="normal" transform="matrix(1.000302 0 0 1.000302 -25.55824 -16.5207)">Message</text><g clip-path="url(#clip_2)"><g clip-path="url(#clip_3)"><path d="M100 71 L142 71 L142 83" fill="none" stroke="#999999" stroke-width="0.511909" stroke-linecap="butt" stroke-linejoin="miter" stroke-dasharray="none" transform="matrix(1.000302 0 0 1.000302 -25.55824 -16.5207)" /></g></g><path d="M101.2765 72.02054 C100.7152 72.02054 100.256 71.56129 100.256 71 C100.256 70.43871 100.7152 69.97946 101.2765 69.97946 C101.8378 69.97946 102.297 70.43871 102.297 71 C102.297 71.56129 101.8378 72.02054 101.2765 72.02054 Z " fill="#999999" fill-opacity="1" transform="matrix(1.000302 0 0 1.000302 -25.55824 -16.5207)" /><path d="M101.2765 72.02054 C100.7152 72.02054 100.256 71.56129 100.256 71 C100.256 70.43871 100.7152 69.97946 101.2765 69.97946 C101.8378 69.97946 102.297 70.43871 102.297 71 C102.297 71.56129 101.8378 72.02054 101.2765 72.02054 Z " fill="none" stroke="#999999" stroke-width="0.511909" stroke-linecap="butt" stroke-linejoin="miter" stroke-dasharray="none" transform="matrix(1.000302 0 0 1.000302 -25.55824 -16.5207)" /><path d="M142.9332 79.74237 L142 82.29881 L141.0668 79.74237 Z " fill="#999999" fill-opacity="1" transform="matrix(1.000302 0 0 1.000302 -25.55824 -16.5207)" /><path d="M142.9332 79.74237 L142 82.29881 L141.0668 79.74237 Z " fill="none" stroke="#999999" stroke-width="0.511909" stroke-linecap="butt" stroke-linejoin="miter" stroke-dasharray="none" transform="matrix(1.000302 0 0 1.000302 -25.55824 -16.5207)" /><text x="122.6532" y="25.3913" font-size="7.05556" fill="#000000" fill-opacity="1" font-family="Arial" font-weight="normal" font-style="normal" transform="matrix(1.000302 0 0 1.000302 -25.55824 -16.5207)">ActorSystem</text><path d="M113.1264 53.23649 L113 112" fill="#000000" fill-opacity="1" transform="matrix(1.000302 0 0 1.000302 -25.55824 -16.5207)" /><path d="M113.1264 53.23649 L113 112" fill="none" stroke="#000000" stroke-width="0.6" stroke-linecap="butt" stroke-linejoin="miter" stroke-dasharray="4.8,1.2,0.6,1.2" transform="matrix(1.000302 0 0 1.000302 -25.55824 -16.5207)" /><rect x="83.20993" y="47.49268" width="17.77194" height="9.234436" fill="none" stroke="#000000" stroke-width="1" stroke-linecap="butt" stroke-linejoin="miter" stroke-dasharray="none" transform="matrix(1.000302 0 0 1.000302 -25.55824 -16.5207)" /><text x="85.74371" y="53.41142" font-size="5.64444" fill="#000000" fill-opacity="1" font-family="Arial" font-weight="normal" font-style="normal" transform="matrix(1.000302 0 0 1.000302 -25.55824 -16.5207)">State</text><g clip-path="url(#clip_4)"><g clip-path="url(#clip_5)"><path d="M94 57 L94 64 L86 64" fill="none" stroke="#000000" stroke-width="0.6" stroke-linecap="butt" stroke-linejoin="miter" stroke-dasharray="none" transform="matrix(1.000302 0 0 1.000302 -25.55824 -16.5207)" /></g></g><path d="M93.01245 60.52725 L94 57.82185 L94.98755 60.52725 Z " fill="#000000" fill-opacity="1" transform="matrix(1.000302 0 0 1.000302 -25.55824 -16.5207)" /><path d="M93.01245 60.52725 L94 57.82185 L94.98755 60.52725 Z " fill="none" stroke="#000000" stroke-width="0.6" stroke-linecap="butt" stroke-linejoin="miter" stroke-dasharray="none" transform="matrix(1.000302 0 0 1.000302 -25.55824 -16.5207)" /><path d="M89.52724 64.98755 L86.82185 64 L89.52724 63.01245 Z " fill="#000000" fill-opacity="1" transform="matrix(1.000302 0 0 1.000302 -25.55824 -16.5207)" /><path d="M89.52724 64.98755 L86.82185 64 L89.52724 63.01245 Z " fill="none" stroke="#000000" stroke-width="0.6" stroke-linecap="butt" stroke-linejoin="miter" stroke-dasharray="none" transform="matrix(1.000302 0 0 1.000302 -25.55824 -16.5207)" /><rect x="63.91631" y="43.90218" width="8.183243" height="7.097816" fill="#FFFFFF" fill-opacity="1" transform="matrix(1.000302 0 0 1.000302 -25.55824 -16.5207)" /><rect x="63.91631" y="43.90218" width="8.183243" height="7.097816" fill="none" stroke="#000000" stroke-width="1" stroke-linecap="butt" stroke-linejoin="miter" stroke-dasharray="none" transform="matrix(1.000302 0 0 1.000302 -25.55824 -16.5207)" /><path d="M68 48 L68.00794 57.51423" fill="#000000" fill-opacity="1" transform="matrix(1.000302 0 0 1.000302 -25.55824 -16.5207)" /><g clip-path="url(#clip_6)"><path d="M68 48 L68.00794 57.51423" fill="none" stroke="#000000" stroke-width="0.6" stroke-linecap="butt" stroke-linejoin="miter" stroke-dasharray="none" transform="matrix(1.000302 0 0 1.000302 -25.55824 -16.5207)" /></g><path d="M68.99255 53.98616 L68.00726 56.69238 L67.01745 53.98781 Z " fill="#000000" fill-opacity="1" transform="matrix(1.000302 0 0 1.000302 -25.55824 -16.5207)" /><path d="M68.99255 53.98616 L68.00726 56.69238 L67.01745 53.98781 Z " fill="none" stroke="#000000" stroke-width="0.6" stroke-linecap="butt" stroke-linejoin="miter" stroke-dasharray="none" transform="matrix(1.000302 0 0 1.000302 -25.55824 -16.5207)" /><rect x="138.9163" y="84" width="6.083679" height="6" fill="#FFFFFF" fill-opacity="1" transform="matrix(1.000302 0 0 1.000302 -25.55824 -16.5207)" /><rect x="138.9163" y="84" width="6.083679" height="6" fill="none" stroke="#999999" stroke-width="1" stroke-linecap="butt" stroke-linejoin="miter" stroke-dasharray="none" transform="matrix(1.000302 0 0 1.000302 -25.55824 -16.5207)" /><path d="M142 87 L142 97" fill="#000000" fill-opacity="1" transform="matrix(1.000302 0 0 1.000302 -25.55824 -16.5207)" /><g clip-path="url(#clip_7)"><path d="M142 87 L142 97" fill="none" stroke="#999999" stroke-width="0.6" stroke-linecap="butt" stroke-linejoin="miter" stroke-dasharray="none" transform="matrix(1.000302 0 0 1.000302 -25.55824 -16.5207)" /></g><path d="M142.9875 93.47276 L142 96.17815 L141.0125 93.47276 Z " fill="#999999" fill-opacity="1" transform="matrix(1.000302 0 0 1.000302 -25.55824 -16.5207)" /><path d="M142.9875 93.47276 L142 96.17815 L141.0125 93.47276 Z " fill="none" stroke="#999999" stroke-width="0.6" stroke-linecap="butt" stroke-linejoin="miter" stroke-dasharray="none" transform="matrix(1.000302 0 0 1.000302 -25.55824 -16.5207)" /><rect x="149" y="87" width="11" height="6" fill="#FFFFFF" fill-opacity="1" transform="matrix(1.000302 0 0 1.000302 -25.55824 -16.5207)" /><rect x="149" y="87" width="11" height="6" fill="none" stroke="#999999" stroke-width="1" stroke-linecap="butt" stroke-linejoin="miter" stroke-dasharray="none" transform="matrix(1.000302 0 0 1.000302 -25.55824 -16.5207)" /></svg>