<?xml version="1.0" encoding="utf-8"?><svg viewBox="0 0 199 127" width="100%" height="100%" version="1.1" xmlns:xlink="http://www.w3.org/1999/xlink" xmlns="http://www.w3.org/2000/svg"><defs /><rect x="0" y="0" width="199" height="127" fill="#FFFFFF" fill-opacity="1" /><rect x="243.0179" y="189.0195" width="197.9801" height="125.9801" fill="#333333" fill-opacity="1" transform="matrix(1.0001 0 0 1.0001 -242.5422 -188.5384)" /><rect x="243.0179" y="189.0195" width="197.9801" height="125.9801" fill="none" stroke="#000000" stroke-width="1" stroke-linecap="butt" stroke-linejoin="miter" stroke-dasharray="" transform="matrix(1.0001 0 0 1.0001 -242.5422 -188.5384)" /><path d="M402.3742 289.0587 L402.8033 290.422 L403.4945 292.2332 L404.4827 293.9884 L405.1752 295.165 L406.0708 296.1919 L406.8171 296.8828 L407.1154 297.4244 L406.9112 297.6671 L406.7807 297.9285 L407.3213 299.3104 L407.8635 299.8519 L408.3503 300.8416 L409.0211 301.9247 L409.8615 303.4558 L410.1049 304.8751 L410.1978 307.1161 L410.3091 307.4519 L410.2542 308.0869 L409.805 308.3297 L409.8615 308.6845 L409.7485 309.0394 L409.805 309.4875 L409.8994 309.8423 L409.395 310.4398 L408.8167 310.7198 L408.0879 310.7571 L407.8066 311.056 L407.3591 311.2427 L407.1154 311.1494 L406.9112 310.9626 L406.8549 310.4211 L406.7056 309.7862 L406.0708 308.8152 L405.3983 308.3857 L404.6711 308.3297 L404.5216 308.5724 L403.9422 307.7508 L403.8306 307.0786 L403.3436 306.3316 L403.0074 306.1263 L402.709 306.5183 L402.3742 306.4624 L401.9802 305.5287 L401.4396 304.8003 L400.8977 303.8108 L400.4138 303.2318 L399.7397 302.5409 L400.1324 302.0926 L400.7296 301.0657 L400.692 300.7669 L399.8529 300.5801 L399.553 300.6924 L399.6109 300.8043 L400.0948 300.991 L399.8151 301.8313 L399.6659 301.9247 L399.3298 301.1777 L399.0864 300.2815 L399.0312 299.7773 L399.311 298.8996 L399.311 297.1255 L398.7501 296.4346 L398.5081 295.8559 L397.5358 295.613 L397.1821 295.5011 L396.8838 295.0155 L396.249 294.7168 L396.0431 294.0818 L395.5392 293.8951 L395.0912 293.2042 L394.3058 292.9241 L393.7656 292.644 L393.2798 292.644 L392.5321 292.7935 L392.496 293.1482 L392.6451 293.335 L392.5512 293.5403 L391.9729 293.5029 L391.2816 294.1752 L390.6093 294.5299 L389.8805 294.5299 L389.2835 294.7728 L389.227 294.2685 L388.9299 293.9137 L388.3865 293.7083 L388.0881 293.4282 L386.5751 292.7 L385.1565 292.3639 L384.3348 292.4759 L383.2147 292.5692 L382.0946 292.9614 L381.4411 293.0736 L381.4033 291.5796 L380.9179 291.2247 L380.5816 290.8888 L380.6367 290.3098 L382.5422 290.067 L387.3038 289.5255 L388.5732 289.4134 L389.5832 289.4695 L390.0674 290.1977 L390.347 290.4778 L391.8599 290.5712 L393.877 290.4592 L397.8924 290.2165 L398.8992 290.0857 L399.7601 290.0857 L399.7964 290.6272 L400.5063 290.7766 L400.5615 289.8803 L400.263 289.0399 L400.4499 288.9093 L401.4019 289.0026 L402.3742 289.0587 Z M404.7072 313.7823 L405.1549 313.6704 L405.3983 313.6328 L405.6797 313.2035 L406.1086 312.9047 L406.3506 312.998 L406.6694 313.054 L406.7433 313.2594 L406.0882 313.4836 L405.3044 313.7638 L404.8738 313.9878 L404.7072 313.7823 Z M407.2272 312.8485 L407.453 313.054 L407.9559 312.6618 L408.9457 311.8775 L409.6385 311.1494 L410.1049 309.9169 L410.2905 309.5994 L410.3282 308.9645 L410.1978 309.058 L410.0106 309.5808 L409.7296 310.4398 L409.1328 311.4296 L408.311 312.2138 L407.6765 312.5684 L407.2272 312.8485 Z " fill-rule="nonzero" fill="#D3D3D3" fill-opacity="0.58" transform="matrix(1.0001 0 0 1.0001 -242.5422 -188.5384)" /><path d="M403.4566 282.971 L403.1205 283.1579 L402.6351 282.9152 L402.5237 282.5231 L402.2801 281.8508 L401.8511 281.4586 L401.3657 281.3466 L401.0656 280.4503 L400.5615 279.3298 L399.7789 278.975 L399.3862 278.6202 L399.1428 278.1348 L398.7501 277.7612 L398.321 277.5185 L397.8924 276.9769 L397.3126 276.5474 L396.4721 276.2114 L396.3795 275.9312 L395.9303 275.3897 L395.8389 275.1098 L395.2027 274.1386 L394.5681 274.176 L393.8204 273.7278 L393.577 273.485 L393.5219 273.149 L393.6712 272.7941 L394.1015 272.6073 L394.045 272.2153 L395.184 271.7298 L396.8838 270.8894 L398.2473 270.7402 L401.3278 270.6467 L401.757 271.0015 L402.0554 271.5992 L402.8772 271.5056 L405.2303 271.2256 L405.771 271.375 L408.1242 272.7941 L410.0106 274.3067 L409.0023 275.3338 L408.5168 276.4728 L408.424 277.6492 L408.1242 277.7987 L407.9197 278.3028 L407.4706 278.4149 L407.0793 279.0871 L406.5751 279.5914 L406.1461 280.2261 L405.8477 280.3755 L405.1752 281.0105 L404.6333 281.0478 L404.8188 281.6454 L403.8855 282.6724 L403.4566 282.971 Z " fill="#D3D3D3" fill-opacity="0.58" transform="matrix(1.0001 0 0 1.0001 -242.5422 -188.5384)" /><path d="M390.0862 272.7195 L389.1906 272.8688 L387.6213 273.0742 L386.0156 273.2423 L386.0156 273.6531 L386.0534 274.0452 L386.1649 274.6801 L386.7996 276.1553 L387.2488 278.004 L387.5273 279.1431 L387.8271 280.0393 L388.1066 281.3466 L388.4981 282.5231 L388.9834 283.1579 L389.0775 283.7928 L389.4327 283.9423 L389.4704 284.3344 L389.1327 285.2306 L389.0413 285.8281 L389.0038 286.1829 L389.3024 287.0047 L389.3587 287.9942 L389.2079 288.4424 L389.3211 288.5919 L389.6007 288.7414 L389.7125 289.3762 L390.1978 290.1044 L390.4775 290.3845 L391.9525 290.422 L393.9713 290.3098 L397.9866 290.067 L398.9936 289.9363 L399.8529 289.9363 L399.8889 290.4779 L400.3747 290.6273 L400.4312 289.8056 L400.1324 288.9654 L400.3384 288.6666 L401.4222 288.8158 L402.3554 288.8719 L402.2045 287.6955 L402.6351 285.8281 L402.9147 285.0439 L402.8219 284.5584 L403.438 283.4006 L403.3436 283.1391 L402.99 283.2699 L402.5046 283.0272 L402.3918 282.6351 L402.1482 281.9629 L401.7193 281.5708 L401.2353 281.4586 L400.9352 280.5623 L400.3949 279.386 L399.6109 279.0311 L399.2183 278.6763 L398.9748 278.1909 L398.5821 277.836 L398.1531 277.5933 L397.7227 277.0517 L397.1447 276.6222 L396.3054 276.2861 L396.2113 276.006 L395.7622 275.4644 L395.6693 275.1843 L395.0349 274.2695 L394.4001 274.3067 L393.6349 273.7465 L393.3914 273.5039 L393.3351 273.1677 L393.4857 272.8129 L393.9335 272.5888 L393.7278 272.3647 L393.7465 272.3086 L392.664 272.4955 L391.3571 272.6449 L390.0862 272.7195 Z " fill="#D3D3D3" fill-opacity="0.58" transform="matrix(1.0001 0 0 1.0001 -242.5422 -188.5384)" /><path d="M378.1357 293.0362 L377.8358 290.1977 L377.3317 286.687 L377.3708 284.0543 L377.52 278.2655 L377.4822 275.147 L377.52 273.9519 L378.9762 273.8771 L384.1667 273.3916 L385.829 273.261 L385.81 273.6717 L385.8476 274.0639 L385.9593 274.6988 L386.5954 276.174 L387.0431 278.0227 L387.323 279.1618 L387.6213 280.058 L387.9025 281.3653 L388.2938 282.5417 L388.7791 283.1765 L388.8716 283.8114 L389.227 283.9609 L389.2659 284.353 L388.9299 285.2492 L388.8357 285.8469 L388.7979 286.2016 L389.0981 287.0232 L389.153 288.0129 L389.0038 288.4612 L389.1166 288.6106 L389.3964 288.7598 L389.5832 289.2267 L388.4052 289.2267 L387.1357 289.3389 L382.3742 289.8803 L380.4325 290.1418 L380.4137 290.8512 L380.7499 291.1874 L381.2354 291.5423 L381.3484 293.0175 L380.3194 293.5029 L379.8166 293.447 L380.3194 293.0922 L380.3194 292.9054 L379.7413 291.785 L379.3125 291.6731 L379.0312 292.4945 L378.7892 292.9987 L378.6778 292.9614 L378.1357 292.9614 Z " fill="#D3D3D3" fill-opacity="0.58" transform="matrix(1.0001 0 0 1.0001 -242.5422 -188.5384)" /><path d="M416.6953 261.6088 L417.0125 262.4865 L417.685 263.7002 L418.1344 264.1483 L418.2457 264.578 L417.7981 264.6152 L417.9471 264.7272 L417.8909 265.5115 L417.4053 265.7542 L417.2939 266.1465 L417.0517 266.688 L416.3607 266.9868 L415.9114 266.9306 L415.632 266.8933 L415.3333 266.6506 L415.3883 266.8933 L415.3883 267.0801 L415.7432 267.0801 L415.8925 267.3228 L415.5376 268.4992 L416.323 268.4992 L416.433 268.798 L416.8635 268.3687 L417.1069 268.2752 L416.7518 268.9474 L416.1737 269.8438 L415.9305 269.8438 L415.7245 269.7504 L415.2218 269.8624 L414.2508 270.3106 L413.0351 271.3003 L412.4019 272.1778 L412.0467 273.3916 L411.9525 273.8399 L411.0759 273.9332 L410.0486 274.176 L408.1979 272.6446 L405.8477 271.2256 L405.3044 271.0762 L402.9525 271.3563 L402.1482 271.5056 L401.8511 270.9081 L401.2903 270.516 L398.2097 270.6094 L396.846 270.7588 L395.1478 271.599 L394.0088 272.0846 L393.7088 272.1406 L392.6266 272.3272 L391.3181 272.4767 L390.0484 272.5701 L390.1427 271.8046 L390.4775 271.5244 L390.983 271.4123 L391.0948 270.7214 L391.8787 270.2172 L392.6075 269.9371 L393.3914 269.2648 L394.2133 268.8728 L394.3247 268.2939 L395.0535 267.5655 L395.1665 267.5283 C395.1665 267.5283 395.1665 267.7336 395.3145 267.7336 C395.4637 267.7336 395.6693 267.7897 395.6693 267.7897 L396.0983 267.1172 L396.4909 267.0054 L396.9199 267.0615 L397.2184 266.389 L397.7603 265.9036 L397.8545 265.5115 L397.8545 264.7645 L398.6951 264.8953 L400.021 264.6525 L402.9713 264.2977 L406.1637 263.8123 L409.8789 263.0654 L413.5582 262.2811 L415.6883 261.7581 L416.6953 261.6088 Z M417.4244 267.771 L417.9096 267.3042 L418.5066 266.8187 L418.788 266.7066 L418.8254 266.3331 L418.7125 265.1941 L418.4312 264.7647 L418.3199 264.4099 L418.4518 264.3725 L418.9544 265.3995 L419.0298 266.2211 L418.9936 266.8561 L418.3589 267.136 L417.8342 267.5843 L417.6299 267.8084 L417.4244 267.771 Z " fill-rule="nonzero" fill="#D3D3D3" fill-opacity="0.58" transform="matrix(1.0001 0 0 1.0001 -242.5422 -188.5384)" /><path d="M391.4859 265.7357 L381.796 266.6694 L378.8457 267.0055 L377.9865 267.0988 L377.2576 267.0988 L377.2576 267.827 L375.6882 267.9204 L374.3827 268.0324 L372.3091 268.0511 L372.2525 269.1343 L371.8614 270.3106 L371.6744 270.8708 L371.4308 271.6924 L371.3759 272.1778 L370.6283 272.6073 L370.9091 273.2796 L370.7224 274.1013 L370.534 274.2507 L371.8989 274.2132 L376.3984 273.8585 L377.3879 273.8212 L378.9008 273.7277 L384.0913 273.2423 L385.9968 273.0928 L387.5662 272.9062 L389.1327 272.7007 L390.031 272.5513 L390.0122 271.7111 L390.347 271.4311 L390.8513 271.3189 L390.9644 270.628 L391.7482 270.1238 L392.4757 269.8438 L393.2595 269.1715 L394.0828 268.7794 L394.2505 268.1258 L395.0535 267.3974 L395.1665 267.3602 C395.1665 267.3602 395.1665 267.5655 395.3145 267.5655 C395.4637 267.5655 395.6693 267.6217 395.6693 267.6217 L396.0983 266.9493 L396.4909 266.8373 L396.9199 266.8933 L397.2184 266.2211 L397.6111 265.8102 L397.7227 265.6236 L397.7603 264.8953 L397.4806 264.8393 L397.033 265.1941 L395.558 265.2314 L393.3177 265.5862 L391.4859 265.7357 Z " fill="#D3D3D3" fill-opacity="0.58" transform="matrix(1.0001 0 0 1.0001 -242.5422 -188.5384)" /><path d="M424.5392 239.4434 L424.4451 238.6593 L424.2959 237.8375 L423.9785 236.7358 L425.0434 236.4557 L425.3419 236.6613 L425.9766 237.4828 L426.5186 238.3044 L425.9766 238.5845 L425.7332 238.5471 L425.5289 238.8833 L425.0797 239.2381 L424.5392 239.4434 Z " fill="#D3D3D3" fill-opacity="0.58" transform="matrix(1.0001 0 0 1.0001 -242.5422 -188.5384)" /><path d="M424.3711 239.4995 L424.2594 238.7152 L424.1086 237.8936 L423.8102 236.7732 L423.0262 236.9412 L418.9544 237.8375 L419.0672 238.4538 L419.3471 239.817 L419.3471 241.3295 L419.1414 241.7589 L419.4791 242.1511 L420.4122 241.5163 L421.0846 240.9186 L421.4397 240.5265 L421.589 240.6385 L422.0931 240.3586 L423.0639 240.153 L424.3711 239.4995 Z " fill="#D3D3D3" fill-opacity="0.58" transform="matrix(1.0001 0 0 1.0001 -242.5422 -188.5384)" /><path d="M429.3747 238.3417 L429.7861 238.211 L429.8802 237.8936 L430.0659 237.9123 L430.2527 238.3417 L430.0093 238.4351 L429.2821 238.4538 L429.3747 238.3417 Z M427.6199 238.4911 L428.0489 238.0056 L428.3488 238.0056 L428.6849 238.2858 L428.2357 238.4726 L427.8256 238.6593 L427.6199 238.4911 Z M421.1207 234.3829 L424.3884 233.5987 L424.8188 233.4866 L425.2115 232.889 L425.9012 232.5717 L426.4448 233.3933 L425.9955 234.3643 L425.9391 234.6444 L426.294 235.1301 L426.4998 234.9806 L426.8359 234.9806 L427.2649 235.4661 L427.994 236.5865 L428.6647 236.6798 L429.095 236.4931 L429.4313 236.157 L429.2821 235.6528 L428.8893 235.354 L428.6095 235.5034 L428.4224 235.2607 L428.5168 235.1673 L428.9079 235.1301 L429.2442 235.2792 L429.5995 235.7275 L429.7861 236.2689 L429.8427 236.7171 L429.0573 236.9972 L428.33 237.352 L427.6025 238.1924 L427.2458 238.4725 L427.2458 238.2858 L427.6936 238.0056 L427.7881 237.6694 L427.6386 237.0906 L427.0967 237.3707 L426.9476 237.6508 L427.0402 238.0802 L426.6491 238.267 L426.1447 237.4268 L425.5101 236.605 L425.1174 236.2689 L423.9044 236.6237 L422.9526 236.8291 L418.8807 237.7255 L418.8052 236.8104 L418.9182 234.8312 L419.889 234.6631 L421.1207 234.3829 Z " fill-rule="nonzero" fill="#D3D3D3" fill-opacity="0.58" transform="matrix(1.0001 0 0 1.0001 -242.5422 -188.5384)" /><path d="M433.7073 220.3032 L434.0623 220.6955 L434.4913 221.3863 L434.4913 221.7411 L434.1002 222.6188 L433.7452 222.7308 L433.1102 223.3096 L432.2135 224.3367 C432.2135 224.3367 432.1016 224.3367 431.9713 224.3367 C431.86 224.3367 431.783 223.9446 431.783 223.9446 L431.4481 223.9819 L431.2611 224.2619 L430.8137 224.5421 L430.6266 224.8222 L430.9251 225.1023 L430.831 225.2143 L430.7381 225.7185 L430.3829 225.6811 L430.3829 225.3825 L430.328 225.1396 L430.0486 225.1956 L429.7112 224.5982 L429.3197 224.8408 L429.5617 225.1209 L429.6167 225.3264 L429.4688 225.5692 L429.524 226.148 L429.5617 226.4468 L429.2631 226.9323 L428.7211 227.0257 L428.6647 227.5672 L427.6761 228.1461 L427.4327 228.2395 L427.1345 227.9593 L426.5549 228.6315 L426.7432 229.2291 L426.4619 229.4718 L426.4244 230.2936 L426.2201 231.4699 L425.752 231.2458 L425.6594 230.667 L424.9303 230.4615 L424.8752 229.9573 L423.5117 225.5878 L422.7264 223.0482 L422.9886 223.0295 L423.2698 223.1043 L423.2698 222.6188 L423.4191 221.5917 L423.9044 220.7141 L424.1856 219.9671 L423.8289 219.5189 L423.8289 218.3985 L423.9785 218.2118 L424.1277 217.7076 L424.0915 217.4275 L424.0536 216.5314 L424.3884 215.6349 L424.9303 213.973 L425.3231 213.1886 L425.5665 213.1886 L425.8098 213.2261 L425.8098 213.4315 L426.052 213.861 L426.5549 213.973 L426.7041 213.8236 L426.7041 213.6368 L427.4517 213.0955 L427.7881 212.7592 L428.0677 212.7966 L429.1892 213.2446 L429.5424 213.4315 L431.241 219.0149 L432.3626 219.0149 L432.5121 219.3695 L432.5494 220.2659 L433.0902 220.6955 L433.2408 220.6955 L433.2786 220.6019 L433.1845 220.3966 L433.7073 220.3032 Z M429.805 225.9427 L430.0846 225.6625 L430.3455 225.8679 L430.4573 226.3162 L430.1412 226.4841 L429.805 225.9427 Z M431.0555 224.8408 L431.3919 225.1956 C431.3919 225.1956 431.6354 225.2143 431.6354 225.1583 C431.6354 225.1023 431.6715 224.7848 431.6715 224.7848 L431.8408 224.6355 L431.6916 224.2993 L431.3175 224.4301 L431.0555 224.8408 Z " fill-rule="nonzero" fill="#D3D3D3" fill-opacity="0.58" transform="matrix(1.0001 0 0 1.0001 -242.5422 -188.5384)" /><path d="M425.7912 232.4596 L425.9578 232.2542 L426.1635 231.6381 L425.6969 231.4699 L425.6028 230.891 L424.8752 230.6857 L424.8188 230.1815 L423.4565 225.8119 L422.5959 223.1043 L422.4277 223.1043 L422.3164 223.403 L422.2048 223.3096 L422.0193 223.1229 L421.7382 223.4778 L421.7382 224.4115 L421.7932 225.4758 L422.1497 225.9799 L422.1497 226.7268 L421.4571 227.6792 L420.9716 227.8846 L420.9716 228.09 L421.1772 228.4262 L421.1772 230.0321 L421.028 231.7501 L420.9905 232.6463 L421.1772 232.889 L421.1398 233.7295 L421.0454 234.0655 L421.3265 234.2336 L424.3884 233.356 L424.8188 233.244 L425.097 232.7584 L425.7912 232.4596 Z " fill="#D3D3D3" fill-opacity="0.58" transform="matrix(1.0001 0 0 1.0001 -242.5422 -188.5384)" /><path d="M418.9748 234.5697 L418.8254 233.5053 L418.3762 231.6381 L418.2648 231.5819 L417.7242 231.3392 L417.8721 230.7977 L417.7242 230.4056 L417.2201 229.5467 L417.4053 228.8183 L417.2561 227.8473 L416.8082 226.6335 L416.6591 225.7185 L421.5511 224.4674 L421.6077 225.5504 L421.9612 226.0546 L421.9612 226.8017 L421.2713 227.5486 L420.7861 227.7539 L420.7861 227.9593 L420.9905 228.2956 L420.9905 229.9014 L420.8412 231.6194 L420.8036 232.5156 L420.9905 232.7584 L420.954 233.5987 L420.8599 233.9349 L420.9905 234.2336 L419.6846 234.4951 L418.9748 234.5697 Z " fill="#D3D3D3" fill-opacity="0.58" transform="matrix(1.0001 0 0 1.0001 -242.5422 -188.5384)" /><path d="M416.0416 241.2361 L415.8375 241.0494 L415.352 241.012 L414.9218 240.6573 L414.623 239.5182 L413.9695 239.5368 L413.522 239.0326 L409.8994 239.8542 L401.87 241.4789 L400.4688 241.703 L400.3384 240.4892 L400.5992 240.2838 L400.8411 240.0785 L401.0282 239.7796 L401.3657 239.5742 L401.7193 239.2381 L401.8135 238.9393 L402.2045 238.4351 L402.4106 238.2483 L402.3742 238.0617 L402.131 237.4828 L401.7933 237.4454 L401.4396 236.3063 L401.9802 235.9701 L402.8033 235.6901 L403.5495 235.4474 L404.1477 235.354 L405.3229 235.3167 L405.6797 235.5594 L405.9781 235.5967 L406.3694 235.354 L406.8549 235.1486 L407.8271 235.0553 L408.2185 234.7191 L408.5545 234.1216 L408.853 233.7668 L409.2458 233.7668 L409.5992 233.5613 L409.6385 233.1318 L409.3574 232.7398 L409.3008 232.4596 L409.5066 232.0674 L409.5066 231.7873 L409.1702 231.7873 L408.8343 231.638 L408.6849 231.4325 L408.6472 230.9471 L409.7296 229.9201 L409.8427 229.7706 L410.124 229.2291 L410.6643 228.3887 L411.1686 227.6979 L411.5613 227.2497 L412.0076 226.9136 L412.5874 226.6896 L413.6161 226.4468 L414.2133 226.4841 L415.0536 226.204 L416.4723 225.8118 L416.565 226.7455 L417.0125 227.9593 L417.1634 228.9303 L416.9767 229.6585 L417.4618 230.499 L417.6112 230.891 L417.4618 231.4325 L418.0023 231.6753 L418.1154 231.7314 L418.6937 233.7854 L418.6008 234.7376 L418.5066 236.7546 L418.6574 237.7815 L418.8052 238.4538 L419.0849 239.817 L419.0849 241.3295 L418.8807 241.7589 L419.2166 242.1323 L419.3658 242.4498 L419.0123 242.7859 L419.0672 243.0288 L419.3109 242.9727 L419.5905 242.7299 L420.0195 242.2444 L420.2253 242.1323 L420.5239 242.2444 L420.954 242.2819 L422.4277 241.5535 L422.9714 241.0494 L423.213 240.7693 L423.9973 241.068 L423.3624 241.7402 L422.6351 242.2819 L421.3077 243.2715 L420.8235 243.4582 L419.7398 243.8131 L418.9936 244.0184 L418.7689 243.925 L418.7314 243.2342 L418.8254 242.7299 L418.788 242.3378 L418.2648 242.0204 L417.4244 241.8336 L416.6953 241.6282 L416.0416 241.2361 Z " fill="#D3D3D3" fill-opacity="0.58" transform="matrix(1.0001 0 0 1.0001 -242.5422 -188.5384)" /><path d="M415.9677 241.4043 L415.5751 241.8523 L415.5751 242.4312 L415.2218 243.0101 L415.1841 243.3089 L415.426 243.5517 L415.3883 243.9998 L414.9593 244.2052 L415.1086 244.7094 L415.1462 244.9149 L415.6507 244.9709 L415.8375 245.4562 L416.5099 245.9045 L416.9576 246.2032 L416.9576 246.3528 L416.3607 246.9316 L416.0608 247.361 L415.7823 247.8653 L415.352 248.1079 L415.1275 248.2386 L415.0899 248.4627 L414.9768 248.9483 L415.1841 249.359 L415.7823 249.9005 L416.6765 250.33 L417.4244 250.4422 L417.4618 250.7223 L417.3125 250.9088 L417.3677 251.4131 L417.5169 251.4131 L417.9096 250.9649 L418.0591 250.0687 L418.5631 249.3217 L419.1414 248.1079 L419.3471 247.0808 L419.2357 246.8755 L419.1978 245.1203 L418.8994 244.4853 L418.6937 244.6346 L418.1906 244.6906 L418.0965 244.5972 L418.3023 244.4105 L418.6937 244.0557 L418.7125 243.8504 L418.6373 243.2156 L418.7314 242.7113 L418.6937 242.3192 L418.2082 242.1137 L417.3677 241.927 L416.6403 241.7217 L415.9677 241.4043 Z " fill="#D3D3D3" fill-opacity="0.58" transform="matrix(1.0001 0 0 1.0001 -242.5422 -188.5384)" /><path d="M414.8478 248.164 L415.0536 248.052 L415.4826 247.9398 L415.7636 247.4356 L416.0608 247.0063 L416.6591 246.4273 L416.6591 246.2779 L416.21 245.9792 L415.5376 245.531 L415.352 245.0454 L414.8478 244.9894 L414.8102 244.7841 L414.6595 244.2799 L415.0899 244.0745 L415.1275 243.6263 L414.8856 243.3835 L414.9218 243.0848 L415.2768 242.5059 L415.2768 241.927 L415.7057 241.4789 L415.7432 241.2734 L415.2579 241.2361 L414.8289 240.8813 L414.3797 239.8918 L413.8204 239.7236 L413.39 239.3315 L409.9165 240.0785 L401.8887 241.703 L400.2268 241.9831 L400.1324 240.6573 L399.1051 241.703 L398.8631 241.7964 L398.0792 242.3565 L398.6198 245.9231 L399.0864 247.7344 L399.7601 251.3384 L400.3747 251.2263 L402.5974 250.9463 L409.6747 249.5084 L412.457 248.9856 L414.0071 248.6868 L414.0642 248.6496 L414.455 248.3507 L414.8478 248.164 Z " fill="#D3D3D3" fill-opacity="0.58" transform="matrix(1.0001 0 0 1.0001 -242.5422 -188.5384)" /><path d="M414.8856 248.8923 L414.9957 248.5 L414.9957 248.276 L414.7535 248.2574 L414.3609 248.5561 L414.0827 248.8362 L414.3609 249.6204 L414.7897 250.6848 L415.1841 252.4962 L415.4826 253.6726 L416.417 253.6353 L417.5561 253.4111 L417.1259 252.0293 L416.9388 252.1227 L416.2651 251.6746 L415.9305 250.7968 L415.5751 250.1246 L415.1462 249.9379 L414.7535 249.2657 L414.8856 248.8923 Z " fill="#D3D3D3" fill-opacity="0.58" transform="matrix(1.0001 0 0 1.0001 -242.5422 -188.5384)" /><path d="M417.6112 253.5418 L416.4723 253.7846 L415.3883 253.822 L415.0536 252.4962 L414.6595 250.6848 L414.232 249.6204 L413.9886 248.7988 L412.5874 249.0977 L409.805 249.6204 L402.8033 251.0397 L403.0074 251.9734 L403.1943 253.0377 L403.251 252.9816 L403.6435 252.5336 L404.074 252.048 L404.5216 251.9359 L404.8014 251.6558 L405.1361 251.1703 L405.3795 251.2825 L405.9215 251.2263 L406.4072 250.8342 L406.7807 250.5542 L407.1154 250.4608 L407.4156 250.6661 L407.9559 250.9463 L408.311 251.2825 L408.5358 251.5626 L409.3008 251.88 L409.3008 252.4216 L410.3282 252.6642 L410.5338 252.7577 L410.7948 252.3841 L411.3379 252.7577 L411.0934 253.2244 L410.944 253.9714 L410.6093 254.4568 L410.6093 254.849 L410.7209 255.1852 L411.6715 255.4466 L412.4758 255.4279 L413.0551 255.6145 L413.4465 255.6706 L413.6332 255.2786 L413.354 254.8863 L413.354 254.5502 L412.9046 254.1581 L412.5132 253.131 L412.7556 252.1415 L412.7191 251.7492 L412.4758 251.5065 C412.4758 251.5065 412.7556 251.2077 412.7556 251.077 C412.7556 250.9649 412.8495 250.6848 412.8495 250.6848 L413.2043 250.4422 L413.5582 250.1433 L413.6525 250.33 L413.371 250.6288 L413.1305 251.3197 L413.1843 251.5251 L413.522 251.5813 L413.6161 252.6081 L413.2219 252.7949 L413.2785 253.4671 L413.371 253.4299 L413.5769 253.075 L413.8769 253.4111 L413.5769 253.654 L413.522 254.2888 L414.0071 254.9237 L414.7363 255.0171 L415.0349 254.8677 L415.632 255.6521 L415.8925 255.7453 L417.143 255.2224 L417.5169 254.4755 L417.6112 253.5418 Z M414.4928 255.2224 L414.6986 255.6893 L414.7363 256.0255 L414.9405 256.3802 C414.9405 256.3802 415.1086 256.2121 415.1086 256.1563 C415.1086 256.1001 414.9768 255.5773 414.9768 255.5773 L414.8478 255.1478 L414.4928 255.2224 Z " fill-rule="nonzero" fill="#D3D3D3" fill-opacity="0.58" transform="matrix(1.0001 0 0 1.0001 -242.5422 -188.5384)" /><path d="M402.5974 251.0583 L402.8033 251.9734 L403.0074 253.2618 L403.68 252.7577 L404.1102 252.1787 L404.5768 252.0667 L404.8564 251.7866 L405.1941 251.3011 L405.4172 251.4131 L405.9577 251.3571 L406.4447 250.9649 L406.8171 250.6848 L407.1547 250.5915 L407.3967 250.7782 L407.8066 250.9835 L408.1634 251.3197 L408.424 251.5626 L408.4054 252.4402 L407.3402 251.8613 L406.5013 251.5251 L406.4636 252.5147 L406.3694 252.9071 L406.0708 253.4111 L405.9577 253.7099 L405.3795 254.1581 L405.287 254.5876 L404.6508 254.6436 L404.5958 255.2224 L404.3899 256.2495 L403.9044 256.2495 L403.6609 256.1001 L403.3624 255.596 L403.0279 255.6333 L402.9713 256.4549 L402.5801 257.6873 L401.644 259.7041 L401.7933 259.9469 L401.757 260.4511 L401.3657 260.8058 L401.0861 260.7498 L400.4874 261.198 L400.0022 261.0112 L399.6659 261.8889 C399.6659 261.8889 398.9748 262.0383 398.8442 262.0757 C398.7327 262.113 398.3965 261.8327 398.3965 261.8327 L397.9474 262.2623 L397.4619 262.3744 L396.9199 262.2251 L396.678 261.9822 L396.2679 261.422 L395.6884 261.0486 L395.2027 260.5444 L394.6608 259.8535 L394.5493 259.424 L394.0638 259.1439 L393.9145 258.8451 L393.877 257.8555 L394.2868 257.8369 L394.642 257.6873 L394.6797 257.1833 L394.9782 256.9031 L395.0173 255.9694 L395.2027 255.2411 L395.4463 255.129 L395.6884 255.3346 L395.7825 255.6706 L396.1171 255.4839 L396.2113 255.1852 L396.0056 254.849 L396.0056 254.4008 L396.1925 254.1581 L396.6231 253.5232 L396.8648 253.2431 L397.2576 253.3365 L397.6864 253.0377 L398.2661 252.4028 L398.6951 251.6746 L398.7501 250.6103 L398.8442 249.6766 L398.8442 248.7988 L398.6386 248.2199 L398.8241 247.9398 L399.0688 247.6971 L399.7224 251.3945 L400.5816 251.2451 L402.5974 251.0583 Z " fill="#D3D3D3" fill-opacity="0.58" transform="matrix(1.0001 0 0 1.0001 -242.5422 -188.5384)" /><path d="M396.0983 261.4781 L395.6693 261.9822 L394.8855 262.6545 L394.0828 263.7563 L393.7465 264.0923 L393.7465 264.4846 L393.0175 264.8767 L391.9525 265.5115 L391.2992 265.5862 L381.6092 266.5012 L378.659 266.8373 L377.7995 266.9306 L377.0707 266.9306 L377.033 267.7151 L375.5028 267.7336 L374.1959 267.8457 L372.2525 267.8831 L372.6088 267.8457 L373.019 267.5096 L373.4105 267.3042 L373.4479 266.7066 L373.616 266.3705 L373.3176 265.9036 L373.4668 265.549 L373.8958 265.2127 L374.2885 265.1008 L374.793 265.3435 L375.4653 265.5862 L375.6696 265.5302 L375.7071 265.1008 L375.4653 264.6525 L375.5217 264.2231 L375.875 263.943 L376.3622 263.831 L376.6606 263.7189 L376.5099 263.3828 L376.3984 263.028 L376.6042 262.8786 L376.8099 262.2623 L377.3708 261.9449 L378.453 261.7581 L379.1256 261.6649 L379.4053 262.0197 L379.7413 262.169 L380.0775 261.5714 L380.6194 261.2914 L380.973 261.5901 L381.1224 261.7955 L381.515 261.7021 L381.4773 261.0673 L382.0192 260.7684 L382.225 260.6191 L382.4308 260.9178 L383.3088 260.9178 L383.4567 260.5257 L383.4018 260.0962 L383.9436 259.424 L384.8204 258.6959 L384.9147 257.8555 L385.4174 257.7995 L386.1461 257.4634 L386.6506 257.1086 L386.5954 256.7537 L386.3141 256.4736 L386.4258 256.0629 L387.1924 256.0255 L387.6402 255.876 L388.1822 256.1748 L388.4806 256.9965 L389.5645 257.0525 L389.8992 257.3885 L390.2921 257.426 L390.7397 257.1458 L391.3181 257.2392 L391.5613 257.5193 L392.0658 257.0337 L392.4018 256.7912 L392.7004 256.7912 L392.8134 257.2952 L393.1497 257.482 L393.5974 257.8928 L393.6349 258.9198 L393.7841 259.2187 L394.2696 259.4986 L394.3799 259.9283 L394.9217 260.6192 L395.4086 261.1233 L396.0983 261.4781 Z " fill="#D3D3D3" fill-opacity="0.58" transform="matrix(1.0001 0 0 1.0001 -242.5422 -188.5384)" /><path d="M397.8924 242.2819 L396.7532 243.0475 L396.0244 243.4769 L395.3899 244.1679 L394.642 244.8961 L394.045 245.0454 L393.5031 245.1388 L392.4757 245.6244 L392.0844 245.6618 L391.4496 245.0827 L390.4775 245.1948 L389.9934 244.9149 L389.544 244.6534 L388.6298 244.7841 L386.7245 245.0827 L385.2681 245.307 L385.5114 248.0332 L385.8476 250.5915 L386.3333 254.9611 L386.4463 255.8575 L387.2111 255.8388 L387.6576 255.6893 L388.2938 255.9694 L388.6848 256.7912 L389.6383 256.7912 L389.9934 257.1833 L390.3294 257.1646 L390.7963 256.9218 L391.2629 256.9965 L391.6368 257.2766 L391.9525 256.8843 L392.3829 256.6417 L392.774 256.511 L392.8871 257.0151 L393.2235 257.2018 L393.877 257.6313 L394.2868 257.6127 L394.4928 257.4073 L394.474 257.1458 L394.7737 256.8658 L394.8116 255.9321 L394.9986 255.2039 L395.2782 254.9424 L395.558 255.1105 L395.7072 255.3346 L395.9303 255.2972 L395.8564 254.849 L395.745 254.737 L395.745 254.2888 L395.9303 254.0461 L396.3607 253.4112 L396.6025 253.131 L396.9953 253.2244 L397.4258 252.9257 L398.0038 252.2908 L398.4328 251.5626 L398.4703 250.5542 L398.5647 249.6204 L398.5647 248.7429 L398.3574 248.164 L398.5457 247.8839 L398.7137 247.6971 L398.4515 245.867 L397.8924 242.2819 Z " fill="#D3D3D3" fill-opacity="0.58" transform="matrix(1.0001 0 0 1.0001 -242.5422 -188.5384)" /><path d="M369.9196 221.1996 L370.2543 220.8075 L370.6658 220.658 L371.6744 219.9298 L372.1032 219.8177 L372.1975 219.9111 L371.2453 220.8634 L370.6283 221.2183 L370.2368 221.3863 L369.9196 221.1996 Z M386.0156 227.1938 L386.1274 227.6606 L386.7245 227.6979 L386.9664 227.4738 C386.9664 227.4738 386.9489 227.1938 386.8925 227.1751 C386.8374 227.1377 386.5954 226.8202 386.5954 226.8202 L386.184 226.8575 L385.8839 226.895 L385.829 227.1004 L386.0156 227.1938 Z M391.6368 238.958 L391.0383 237.4268 L390.6093 235.7275 L390.1615 235.1301 L389.6762 234.7938 L389.3761 234.9991 L388.6474 235.3354 L388.2938 236.2689 L387.7895 236.96 L387.585 237.0719 L387.3038 236.96 C387.3038 236.96 386.8184 236.6798 386.8562 236.5678 C386.8925 236.4557 386.9489 235.6341 386.9489 235.6341 L387.585 235.3914 L387.7345 234.7565 L387.8458 234.2709 L388.2938 233.9721 L388.2372 232.1049 L387.9387 231.6753 L387.6952 231.5259 L387.5472 231.1338 L387.6952 230.9844 L387.9952 231.0404 L388.0328 230.7416 L387.5472 230.3308 L387.3038 229.8453 L386.8184 229.8453 L385.9781 229.5652 L384.9505 228.9303 L384.4466 228.9303 L384.3348 229.0424 L384.148 228.949 L383.5698 228.5195 L383.0279 228.8557 L382.4858 229.2851 L382.5422 229.9573 L382.7293 230.0135 L383.1221 230.1069 L383.2147 230.2561 L382.7293 230.4056 L382.2438 230.4615 L381.9641 230.7977 L381.9077 231.1898 L381.9641 231.4886 L382.0192 232.5156 L381.3484 232.9077 L381.2354 232.8705 L381.2354 232.0861 L381.4773 231.6381 L381.5905 231.1898 L381.4411 231.0404 L381.0859 231.1898 L380.8992 231.9741 L380.3948 232.1795 L380.0599 232.5343 L380.021 232.7211 L380.1338 232.8705 L380.021 233.356 L379.592 233.4493 L379.592 233.6548 L379.7413 234.103 L379.5369 235.242 L379.237 235.9891 L379.3485 236.8666 L379.4427 237.0719 L379.2921 237.5202 L379.237 237.6695 L379.1805 238.1736 L379.853 239.2941 L380.3948 240.5079 L380.6747 241.4043 L380.5253 242.2819 L380.3382 243.4023 L379.8921 244.3733 L379.8355 244.8774 L379.2181 245.4563 L380.0399 245.419 L384.0363 244.9894 L385.3984 244.8027 L385.4174 245.1203 L386.7056 244.8961 L388.6298 244.616 L389.3587 244.5227 L389.3761 244.4106 L389.4137 244.1305 L389.8065 243.4396 L390.179 243.1222 L390.1427 242.1698 L390.4412 241.871 L390.6455 241.815 L390.6832 241.1428 L390.9644 240.5825 L391.1687 240.6945 L391.2078 240.8066 L391.3571 240.844 L391.7107 240.6573 L391.6368 238.958 Z M367.2866 226.6335 L367.417 226.5215 L367.9211 226.372 L368.5923 225.9427 L368.5923 225.7559 L368.7052 225.6439 L369.8254 225.4571 L370.2747 225.1023 L371.0947 224.7102 L371.1323 224.4674 L371.4874 223.9258 L371.8235 223.7765 L372.067 223.4404 L372.4959 223.0109 L373.3176 222.5627 L374.1959 222.4693 L374.4016 222.6748 L374.3451 222.8615 L373.6539 223.0482 L373.3741 223.627 L372.9453 223.7765 L372.8511 224.2247 L372.4031 224.8222 L372.3467 225.3077 L372.4959 225.4011 L372.683 225.1956 L373.3553 224.6541 L373.5973 224.897 L374.0276 224.897 L374.6245 225.0837 L374.9044 225.289 L375.1856 225.8679 L375.6882 226.372 L376.4172 226.3347 L376.6968 226.148 L376.9953 226.3909 L377.2937 226.4841 L377.5388 226.3347 L377.743 226.3347 L378.0417 226.148 L378.7878 225.4758 L379.4239 225.2704 L380.6558 225.2143 L381.4962 224.8595 L381.9831 224.6168 L382.2613 224.6541 L382.2613 225.7185 L382.3554 225.7746 L382.8974 225.9239 L383.2525 225.8307 L384.3914 225.5317 L384.597 225.3264 L384.8767 225.4197 L384.8767 226.7268 L385.474 227.3058 L385.7172 227.4178 L385.9593 227.6045 L385.7172 227.6606 L385.5679 227.6045 L384.8767 227.5112 L384.4857 227.6232 L384.0551 227.5858 L383.4567 227.866 L383.1221 227.866 L382.0382 227.6232 L381.0674 227.6606 L380.7137 228.1461 L379.4053 228.258 L378.9559 228.4076 L378.7515 228.9864 L378.5081 229.1918 L378.4155 229.1545 L378.1357 228.8557 L377.2937 229.3037 L377.1837 229.3037 L376.9779 229.0051 L376.8285 229.0424 L376.4737 229.864 L376.2867 230.611 L375.6882 231.9182 L375.4653 231.7314 L375.2043 231.5447 L374.8491 229.6212 L374.1959 229.3599 L373.8032 228.9303 L371.5439 228.4262 L371.0007 228.2395 L369.4719 227.8287 L367.9952 227.6232 L367.2866 226.6335 Z " fill-rule="nonzero" fill="#D3D3D3" fill-opacity="0.58" transform="matrix(1.0001 0 0 1.0001 -242.5422 -188.5384)" /><path d="M327.4736 232.7211 L325.5143 232.5717 L319.5196 231.9554 L316.4939 231.5633 L311.2107 230.7977 L307.4939 230.2375 L307.2329 232.3289 L306.5242 236.8666 L305.5332 242.5433 L305.2536 244.5039 L304.9348 246.7262 L306.149 246.8941 L310.9861 247.361 L314.8333 247.7905 L321.7048 248.556 L326.149 249.0975 L326.9895 240.844 L327.2505 236.101 L327.4736 232.7211 Z " fill="#D3D3D3" fill-opacity="0.58" transform="matrix(1.0001 0 0 1.0001 -242.5422 -188.5384)" /><path d="M327.9227 228.7063 L328.0343 226.6149 L328.4649 221.9839 C328.5575 221.0502 328.6703 220.3966 328.7255 219.1082 L328.8936 216.3818 L323.1611 215.859 L317.7083 215.2055 L312.2366 214.4585 L306.2056 213.4688 L302.7698 212.834 L296.6635 211.5453 L295.8231 215.5229 L296.4578 216.9234 L296.1969 217.7824 L296.5316 218.6413 L297.13 218.9028 L297.9894 220.9195 L298.4936 221.517 L298.5879 221.7224 L299.2226 221.9278 L299.3139 222.3201 L297.9894 225.6065 L297.9894 226.0733 L298.456 226.6708 L298.6241 226.6708 L299.5195 226.1106 L299.6516 225.9052 L299.9501 226.0361 L299.9122 227.0257 L300.4165 229.3785 L300.976 229.8453 L301.1456 229.976 L301.4817 230.4056 L301.389 231.0404 L301.5179 231.6753 L301.7236 231.8434 L302.1525 231.4139 L302.6569 231.4139 L303.2554 231.7128 L303.7219 231.5447 L304.4886 231.5447 L305.1782 231.8434 L305.6826 231.7501 L305.7767 231.1898 L306.3359 231.0592 L306.5967 231.3206 L306.691 231.9182 L307.0273 232.1795 L307.3068 230.0135 L311.1729 230.5737 L316.4388 231.3206 L319.5385 231.6753 L325.4013 232.3289 L327.4548 232.609 L327.6604 229.7334 L327.9227 228.7063 Z " fill="#D3D3D3" fill-opacity="0.58" transform="matrix(1.0001 0 0 1.0001 -242.5422 -188.5384)" /><path d="M291.5831 239.6676 C287.3649 238.8646 288.9515 239.1447 287.6447 238.846 L288.4663 235.578 L289.2689 232.2729 L289.5298 231.4886 L289.9979 230.3867 L289.7545 229.9573 L289.2864 229.976 L289.1384 229.7894 L289.2313 229.584 L289.2864 229.0051 L290.1268 227.978 L290.4629 227.8846 L290.6688 227.6792 L290.7818 227.0817 L290.9485 226.9509 L291.6772 225.8679 L292.4062 225.0651 L292.4439 224.3554 L291.8092 223.8699 L291.5658 223.0482 L291.6396 221.2369 L292.3308 218.1558 L293.1713 214.2717 L293.8813 211.7509 L294.0305 211.0413 L296.4578 211.5081 L295.6737 215.5229 L296.2144 216.9607 L296.0101 217.8197 L296.3837 218.6786 L296.9808 218.9962 L297.8214 220.8261 L298.3243 221.5356 L298.4373 221.7411 L299.0718 221.9466 L299.1647 222.4134 L297.8765 225.5504 L297.9329 226.1667 L298.4373 226.7083 L298.7921 226.8017 L299.6878 226.1294 L299.7629 226.0361 L299.8008 226.1853 L299.8559 226.9509 L300.3412 229.3599 L300.9961 229.864 L301.0702 230.0135 L301.4629 230.4615 L301.3121 230.9844 L301.4454 231.694 L301.7989 231.862 L302.1916 231.5633 L302.6756 231.4699 L303.3119 231.7686 L303.7771 231.6567 L304.4886 231.6194 L305.2349 231.9182 L305.739 231.862 L305.9072 231.4325 L306.3722 231.1338 L306.5054 231.4513 L306.6156 231.862 L307.0461 232.3289 L306.3359 236.8105 L305.384 242.2257 L304.5987 242.1697 L303.0684 241.8898 L301.2383 241.5535 L298.9603 241.1054 L296.6259 240.6385 L295.0392 240.3025 L293.3017 239.9851 L291.5831 239.6676 Z " fill="#D3D3D3" fill-opacity="0.58" transform="matrix(1.0001 0 0 1.0001 -242.5422 -188.5384)" /><path d="M278.7923 207.0638 L279.614 207.3439 L281.4253 207.848 L283.0323 208.2029 L286.7664 209.2673 L291.0614 210.3316 L293.9002 210.9666 L293.7132 211.6949 L292.9482 214.2717 L292.1078 218.1558 L291.5091 221.1622 L291.4338 222.9175 L288.9704 222.1893 L286.0577 221.5544 L283.4988 221.6665 L283.2003 221.3863 L282.209 221.7411 L281.4644 221.685 L280.96 221.349 L280.66 221.4423 L279.8762 221.405 L279.521 221.1435 L278.6255 220.8261 L278.3634 220.7887 L277.4287 220.5459 L277.0939 220.8261 L276.0289 220.7701 L275.1333 220.0605 L275.1709 219.9111 L275.1884 218.4359 L274.7971 217.7076 L274.0321 217.577 L273.9565 217.1287 L273.49 217.0168 L272.9481 216.9234 L272.6121 217.1102 L272.1831 216.5686 L272.2381 216.027 L272.7439 215.971 L273.0423 215.2241 L272.5569 215.0187 L272.593 214.3277 L273.4147 214.2157 L272.9118 213.7115 L272.6309 212.3857 L272.7439 211.8441 L272.7439 210.369 L272.4077 209.7716 L272.8365 208.0161 L273.2291 208.1095 L273.6755 208.6511 L274.1813 209.1366 L274.7782 209.4913 L275.6186 209.8835 L276.1969 209.9956 L276.7389 210.2756 L277.3736 210.4624 L277.8039 210.425 L277.8039 209.9769 L278.0461 209.7716 L278.4388 209.5286 L278.4938 209.7341 L278.5501 210.0701 L278.1199 210.1635 L278.0648 210.5558 L278.4009 210.8359 L278.6068 211.284 L278.7169 211.6387 L278.9979 211.6015 L279.037 211.3587 L278.8487 211.116 L278.7561 210.5184 L278.9037 210.1823 L278.7923 209.9022 L278.7923 209.4167 L279.1299 208.7445 L278.9225 208.2589 L278.4763 207.3625 L278.5313 207.2133 L278.7923 207.0638 Z M277.0186 208.1657 L277.3924 208.1281 L277.4866 208.3896 L277.7648 208.0909 L278.1953 208.0909 L278.3446 208.371 L278.0648 208.6883 L278.1762 208.8379 L278.0461 209.2112 L277.7851 209.286 C277.7851 209.286 277.617 209.3047 277.617 209.2486 C277.617 209.1926 277.898 208.7631 277.898 208.7631 L277.5793 208.6511 L277.5229 208.9313 L277.3924 209.0432 L277.1111 208.6137 L277.0186 208.1657 Z " fill-rule="nonzero" fill="#D3D3D3" fill-opacity="0.58" transform="matrix(1.0001 0 0 1.0001 -242.5422 -188.5384)" /><path d="M327.9981 268.1258 L332.2367 268.3312 L338.0445 268.5366 L337.6141 272.9249 L337.5576 276.3234 L337.5764 276.7156 L338.379 277.4252 L338.6979 277.5745 L339.0327 277.6305 L339.1633 277.3878 L339.3328 277.5558 L339.6501 277.6492 L339.9486 277.5185 L340.1541 277.5933 L340.0978 278.228 L340.9007 278.4149 L341.4048 278.5643 L342.1511 278.6576 L342.5625 278.9937 L343.1598 278.6949 L343.6827 278.7696 L344.0565 279.2926 L344.2625 279.3484 L344.2247 279.7219 L344.8028 279.9459 L345.326 279.6099 L345.6072 279.6845 L346.0534 279.7219 L346.1288 280.0768 L346.988 280.4503 L347.4924 280.4129 L347.8663 279.6473 L347.9213 279.6473 L348.127 280.0021 L348.9486 280.1888 L349.5645 280.4129 L350.1818 280.5623 L350.5732 280.4129 L350.7237 279.9459 L351.4136 279.9459 L351.7686 280.0954 L352.3482 279.7967 L352.4786 279.7967 L352.5526 280.0021 L353.3553 280.0021 L353.8031 279.7593 L354.1204 279.8153 L354.3826 280.1701 L354.9246 280.4876 L355.5781 280.693 L356.081 280.9544 L356.5302 281.2532 L357.1461 281.0851 L357.5012 281.2718 L357.5953 283.1579 L357.6517 284.9692 L357.7807 286.7432 L357.8735 287.4901 L358.3792 288.3491 L358.5851 289.1147 L359.311 290.291 L359.4051 290.8327 L359.4994 291.0195 L359.3704 292.4199 L358.8645 293.2415 L359.05 293.783 L358.9761 294.2499 L358.827 295.613 L358.5646 296.1172 L358.6778 296.9387 L357.6126 297.2377 L355.765 298.0779 L355.5781 298.4326 L355.0913 298.7878 L354.7 299.0677 L354.4565 299.217 L353.393 300.2067 L352.8901 300.5988 L351.8989 301.1964 L350.8338 301.6447 L349.6586 302.2795 L349.3226 302.5597 L348.2386 303.2318 L347.6039 303.3438 L346.8751 304.3707 L346.1288 304.4268 L345.9418 304.7817 L346.3723 305.1364 L346.0911 306.1635 L345.8491 307.0038 L345.6433 307.732 L345.494 308.5724 L345.6433 309.0206 L345.9796 310.3276 L346.1664 311.4668 L346.5027 311.971 L346.3157 312.251 L345.7375 312.606 L344.674 311.8775 L343.6451 311.6723 L343.4032 311.7656 L342.8063 311.6535 L342.0207 311.0746 L341.05 310.8694 L339.6313 310.2343 L339.2398 309.5061 L338.9964 308.2923 L338.398 307.9376 L338.2865 307.5081 L338.398 307.3959 L338.4546 306.761 L338.2112 306.6492 L338.0994 306.4624 L338.3429 305.6407 L338.0445 305.2112 L337.446 304.9684 L336.8128 304.1468 L336.1388 302.9144 L335.355 302.4289 L335.3914 302.0741 L334.4029 299.7773 L334.2537 298.993 L333.9176 298.6381 L333.8798 298.358 L332.7596 297.3682 L332.2743 296.7896 L332.2743 296.5841 L331.7874 296.1919 L330.518 295.9865 L329.137 295.8744 L328.5575 295.4449 L327.717 295.781 L327.0446 296.0611 L326.6156 296.6588 L326.4288 297.3498 L325.6072 298.4887 L325.1594 298.9369 L324.6738 298.7503 L324.3378 298.5448 L323.9827 298.433 L323.2552 298.0034 L323.2552 297.8912 L322.9192 297.5366 L321.9467 297.1442 L320.5659 295.6877 L320.1354 294.8102 L320.1354 293.2977 L319.5385 292.0838 L319.4458 291.5797 L319.1457 291.393 L318.94 291.0008 L318.0083 290.6087 L317.7633 290.3098 L316.4388 288.8347 L316.197 288.2371 L315.3187 287.8076 L315.0377 286.9861 L314.5521 286.4445 L314.1972 286.351 L314.0856 285.4735 L315.5796 285.6042 L320.9962 286.1083 L326.4101 286.4071 L326.8402 281.963 L327.5677 271.5804 L327.8663 268.0886 L328.1273 268.0886M346.6895 311.8029 L346.5765 310.4772 L346.0738 309.1326 L345.9608 307.8255 L346.2405 306.2942 L346.8563 305.0058 L347.5097 303.9975 L348.1082 303.3251 L348.2211 303.3625 L347.3243 304.595 L346.5027 305.8089 L346.1288 307.041 L346.0738 308.0122 L346.2405 309.1513 L346.7258 310.4959 L346.82 311.4668 L346.8563 311.7469 L346.6895 311.8029 Z " fill-rule="nonzero" fill="#D3D3D3" fill-opacity="0.58" transform="matrix(1.0001 0 0 1.0001 -242.5422 -188.5384)" /><path d="M286.8417 278.0974 L287.5504 278.004 L287.8315 277.6305 L287.9603 277.2758 L287.3649 277.2571 L287.1591 276.9209 L287.3071 276.6034 L287.3071 275.4458 L287.7185 275.203 L288.2226 274.7174 L288.298 273.8026 L288.5965 273.149 L288.9515 272.7569 L289.5674 272.4394 L289.8095 272.3086 L289.9601 272.0285 L289.792 271.8605 L289.6052 271.5803 L289.437 270.5907 L288.8951 269.6197 L288.914 269.0967 L288.5023 268.4992 L285.7012 264.1671 L282.0801 258.8078 L277.898 252.6456 L275.5246 249.0043 L275.8608 247.6597 L277.1315 242.8235 L278.6443 236.96 L276.3289 236.3438 L273.806 235.7089 L271.454 234.9433 L270.0542 234.551 L267.9256 233.9908 L266.5998 233.5427 L266.2999 234.4203 L266.2635 235.8022 L265.2926 238.0056 L264.7131 238.4911 L264.6565 238.6965 L264.3204 238.846 L264.0407 239.6302 L263.8914 240.2277 L264.3958 241.012 L264.6943 241.7964 L264.9 242.4686 L264.8435 243.6823 L264.5088 244.2613 L264.3958 245.3442 L264.2087 246.0352 L264.545 246.7634 L265.0491 247.6038 L265.4782 248.5 L265.7216 249.247 L265.6653 249.8445 L265.6086 249.9379 L265.6086 250.33 L266.675 251.5065 L266.5808 251.9547 L266.4679 252.3841 L266.3564 252.7389 L266.394 254.2702 L266.7853 254.9611 L267.1418 255.4466 L267.6446 255.5399 L267.8314 256.0442 L267.6258 256.7164 L267.2344 257.0151 L267.0288 257.0151 L266.878 257.7434 L266.9722 258.2849 L267.5692 259.1065 L267.8677 260.0962 L268.1487 260.974 L268.3922 261.5528 L269.0269 262.6358 L269.3067 263.1213 L269.4009 263.6628 L269.6994 263.8496 L269.6994 264.2978 L269.5501 264.6525 L269.2138 265.9783 L269.1196 266.3331 L269.5689 266.8373 L270.3529 266.9306 L271.1934 267.2668 L271.9222 267.659 L272.4628 267.659 L273.0032 268.2378 L273.49 269.1343 L273.6959 269.5636 L274.4234 269.9557 L275.3202 270.1053 L275.5999 270.4974 L275.7115 271.0949 L275.4319 271.2069 L275.4882 271.3937 L276.0854 271.5431 L276.5896 271.5803 L277.1315 272.4581 L277.8589 273.2423 L278.0082 273.6717 L278.4938 274.4562 L278.5501 275.0537 L278.5501 276.8089 L278.6443 277.145 L280.5108 277.4252 L284.19 277.9293 L286.8417 278.0974 Z M270.4268 268.798 L270.6703 269.0782 L270.6324 269.3208 L270.0353 269.3022 L269.924 269.0782 L269.8108 268.798 L270.4268 268.798 Z M270.7816 268.798 L271.0063 268.686 L271.6787 269.0782 L272.2569 269.3022 L272.0902 269.4144 L271.2484 269.3769 L270.95 269.0782 L270.7816 268.798 Z M274.6478 272.4955 L274.984 272.9249 L275.1333 273.1115 L275.413 273.2237 L275.5246 272.9437 L275.3376 272.6073 L274.8349 272.2339 L274.629 272.2714 L274.629 272.4955 Z M274.3855 274.1199 L274.7219 274.7174 L274.9449 275.0723 L274.6653 275.1098 L274.4234 274.8856 C274.4234 274.8856 274.2914 274.6055 274.2914 274.5307 C274.2914 274.4562 274.2914 274.1199 274.2914 274.1199 L274.3855 274.1199 Z " fill-rule="nonzero" fill="#D3D3D3" fill-opacity="0.58" transform="matrix(1.0001 0 0 1.0001 -242.5422 -188.5384)" /><path d="M287.0273 278.228 L286.5432 278.6388 L286.4866 278.9191 L286.5795 279.1058 L290.108 281.1039 L292.3685 282.5231 L295.1144 284.1288 L298.2502 285.9962 L300.547 286.4445 L305.2349 286.9487 L305.7014 284.6146 L306.4113 279.5352 L307.7185 269.657 L308.5211 263.8683 L303.9276 263.1774 L298.8487 262.3184 L292.6119 261.142 L292.0699 264.5219 L291.9757 264.6152 L291.6584 265.1008 L291.1919 265.082 L290.9485 264.578 L290.4441 264.5219 L290.2776 264.3165 L290.108 264.3165 L289.9413 264.4285 L289.5862 264.6152 L289.5674 265.9224 L289.5298 266.2398 L289.4182 268.5926 L289.1384 269.0034 L289.0255 269.6198 L289.5298 270.5347 L289.7733 271.6178 L289.9225 271.8046 L290.108 271.9166 L290.0906 272.346 L289.792 272.6073 L289.1559 272.9249 L288.8024 273.2797 L288.5213 273.9705 L288.4097 274.8857 L287.8677 275.3897 L287.475 275.5204 L287.4576 276.6034 L287.3649 276.9209 L287.4576 277.0704 L288.1488 277.1824 L288.0358 277.6867 L287.7561 278.0974 L287.0273 278.228 Z " fill="#D3D3D3" fill-opacity="0.58" transform="matrix(1.0001 0 0 1.0001 -242.5422 -188.5384)" /><path d="M287.588 239.0326 L291.5091 239.873 L293.3205 240.2277 L295.058 240.5639 L296.2896 240.8626 L296.1781 241.9644 L295.5245 245.1948 L294.7595 248.9296 L294.403 250.7409 L293.993 253.2244 L293.396 256.2868 L292.7423 259.2187 L292.3685 261.1233 L291.9019 264.2604 L291.8092 264.4659 L291.6018 264.9326 L291.2469 264.914 L291.0427 264.4099 L290.5383 264.3165 L290.2776 264.1297 L289.9036 264.1856 L289.7355 264.3165 L289.492 264.5592 L289.4182 265.8663 L289.324 266.1837 L289.2502 268.4432 L289.0067 268.7607 L288.6531 268.3312 L285.9448 264.0923 L282.3221 258.6771 L278.0461 252.3655 L275.7303 248.8923 L276.0289 247.6597 L277.3374 242.8235 L278.8124 236.9786 L285.0855 238.4911 L287.6447 239.0514" fill="#D3D3D3" fill-opacity="0.58" transform="matrix(1.0001 0 0 1.0001 -242.5422 -188.5384)" /><path d="M308.559 263.6254 L303.9639 262.972 L298.998 262.0569 L292.6873 260.9365 L292.9844 259.2187 L293.5828 256.3802 L294.1798 253.2992 L294.5899 250.7596 L294.9464 249.0977 L295.6549 245.2695 L296.3086 242.0017 L296.5141 240.956 L298.8849 241.3855 L301.1252 241.7778 L303.0496 242.1137 L304.5987 242.3753 L305.2912 242.4686 L305.0101 244.4481 L304.5812 246.9129 L306.0361 247.0808 L309.0993 247.417 L310.631 247.5852 L310.2383 251.6932 L309.6412 255.9135 L308.9328 261.1046 L308.614 263.1774 L308.559 263.6254 Z " fill="#D3D3D3" fill-opacity="0.58" transform="matrix(1.0001 0 0 1.0001 -242.5422 -188.5384)" /><path d="M332.0121 253.822 L332.2743 249.8445 L326.2796 249.2657 L321.7048 248.7615 L314.7391 247.9959 L310.8745 247.529 L310.3891 251.6746 L309.7906 255.8575 L309.0805 261.086 L308.8009 263.1588 L308.7444 263.6815 L315.0753 264.3912 L322.1149 265.1941 L328.0909 265.7916 L331.1904 265.941" fill="#D3D3D3" fill-opacity="0.58" transform="matrix(1.0001 0 0 1.0001 -242.5422 -188.5384)" /><path d="M314.1044 286.351 L313.9726 285.2119 L315.5796 285.3053 L321.0891 285.8842 L326.391 286.1457 L326.7649 281.9814 L327.4548 271.5431 L327.6604 267.9204 L328.0343 267.9764 L328.0343 265.9036 L322.0221 265.4555 L315.1304 264.6338 L308.6894 263.8683 L307.9053 269.6197 L306.5967 279.5539 L305.8881 284.5771 L305.5145 287.0605 L308.4097 287.434 L308.6516 285.5668 L311.7715 286.0523 L314.1044 286.351 Z " fill="#D3D3D3" fill-opacity="0.58" transform="matrix(1.0001 0 0 1.0001 -242.5422 -188.5384)" /><path d="M287.5142 238.8646 L288.3168 235.5221 L289.1935 232.1795 L289.4009 231.3953 L289.8471 230.3495 L289.7355 230.1255 L289.2689 230.1255 L289.0255 229.808 L289.1197 229.5279 L289.2125 228.9303 L290.0529 227.9032 L290.389 227.6979 L290.5949 227.4925 L290.8746 226.8202 L291.6221 225.7559 L292.2946 225.0276 L292.3308 224.374 L291.7164 223.9072 L291.4904 223.0669 L289.0255 222.376 L286.207 221.7224 L283.3292 221.7411 L283.2379 221.4797 L282.209 221.8718 L281.3702 221.7599 L280.9209 221.4611 L280.6788 221.5917 L279.8008 221.5544 L279.4835 221.2929 L278.4938 220.9008 L278.3446 220.9195 L277.5417 220.6394 L277.1865 220.9755 L276.0289 220.9195 L274.9275 220.1539 L275.058 220.0044 L275.0955 218.5479 L274.6653 217.8197 L273.9002 217.7076 L273.7699 217.2408 L273.322 217.1474 L272.2381 217.5396 L271.8091 218.7533 L271.2107 220.6207 L270.6136 221.8344 L269.6806 224.4674 L268.4662 227.007 L266.9533 229.3599 L266.5998 229.9014 L266.449 231.5073 L266.2071 232.6277 L266.7113 233.2812 L267.962 233.7108 L270.1283 234.327 L271.6034 234.7938 L273.9203 235.4661 L276.4027 236.1382 L278.8674 236.8105" fill="#D3D3D3" fill-opacity="0.58" transform="matrix(1.0001 0 0 1.0001 -242.5422 -188.5384)" /><path d="M349.3226 229.7146 L349.2487 228.3142 L348.8733 226.9509 L348.5388 224.4115 L348.4445 222.5815 L348.0705 222.0026 L347.7721 220.9942 L347.7721 219.0708 L347.9026 218.3425 L347.5097 217.3155 L342.2076 217.2036 L338.7341 217.0914 L333.7856 216.8487 L329.137 216.4939 L328.8936 219.1455 L328.6328 221.9651 L328.2023 226.6149 L328.1082 228.6688 L338.7154 229.3785 L349.3226 229.7146 Z " fill="#D3D3D3" fill-opacity="0.58" transform="matrix(1.0001 0 0 1.0001 -242.5422 -188.5384)" /><path d="M349.6023 243.8131 L349.4152 243.6077 L349.134 242.9354 L349.4718 242.2444 L349.6776 241.1988 L349.1922 240.8066 L349.134 240.3024 L349.2487 239.7422 L349.6586 239.5928 L349.7152 238.5284 L349.6964 232.9077 L349.5847 232.3474 L348.8182 231.6753 L348.6313 231.3019 L348.6313 230.9471 L348.9865 230.7043 L349.2675 230.3495 L349.3037 229.8453 L338.585 229.5467 L328.0909 228.8183 L327.9417 229.808 L327.6432 232.7771 L327.3997 236.1196 L327.1013 240.7132 L330.0891 240.8999 L333.7495 241.1054 L337.1097 241.3481 L341.554 241.5909 L343.5525 241.4415 L344.0944 241.871 L344.897 242.4312 L345.0825 242.5805 L345.7375 242.4126 L346.4839 242.3565 L346.988 242.3378 L347.5663 242.562 L348.4066 242.8235 L348.9865 243.1595 L349.0994 243.5143 L349.2675 243.869 L349.3963 243.7758 L349.6023 243.8131 Z " fill="#D3D3D3" fill-opacity="0.58" transform="matrix(1.0001 0 0 1.0001 -242.5422 -188.5384)" /><path d="M351.7309 251.992 L351.9932 252.4962 L352.0105 252.8883 L352.4599 253.5793 L352.9639 254.1768 L352.0293 254.1768 L343.9073 254.0087 L336.2868 253.8406 L332.3293 253.654 L332.5352 249.6766 L326.2984 249.1723 L327.1013 240.956 L329.9948 241.1428 L333.7668 241.3481 L337.091 241.5535 L341.5352 241.7589 L343.5334 241.6656 L343.9261 242.0951 L344.8218 242.6553 L345.0275 242.8235 L345.8304 242.562 L346.5591 242.4686 L347.0634 242.4312 L347.3981 242.6926 L348.3328 242.9914 L348.8923 243.2901 L348.9865 243.589 L349.1545 243.9811 L349.4906 243.9811 L349.6399 243.9811 L349.8268 244.9521 L350.3296 246.446 L350.5543 247.305 L350.947 248.0145 L351.0396 248.9296 L351.3019 249.7325 L351.3961 250.9463" fill="#D3D3D3" fill-opacity="0.58" transform="matrix(1.0001 0 0 1.0001 -242.5422 -188.5384)" /><path d="M367.1184 243.5143 L367.1562 243.869 L367.5851 244.0745 L367.7895 244.3172 L367.8474 244.56 L368.5747 245.1574 L368.7052 245.5684 L368.556 246.1098 L368.275 246.7634 L368.1258 247.2676 L367.7156 247.5663 L367.3983 247.6786 L366.3708 247.9586 L366.239 248.388 L366.0911 248.8175 L366.2026 249.0789 L366.52 249.3965 L366.52 250.0872 L366.1085 250.386 L366.016 250.6661 L366.016 251.133 L365.7362 251.2263 L365.4185 251.4879 L365.326 251.768 L365.4185 252.0853 L365.158 252.3094 L364.7274 251.8052 L364.4479 251.3197 L362.8974 251.4691 L360.9935 251.5813 L356.3245 251.7119 L353.8957 251.7492 L352.1423 251.7867 L351.8989 251.8052 L351.5817 250.9649 L351.5424 249.7325 L351.2455 248.9669 L351.115 247.9773 L350.6845 247.2863 L350.5165 246.39 L350.0123 244.9894 L349.8078 243.9811 L349.5473 243.5703 L349.2487 243.0661 L349.5847 242.2632 L349.8441 241.1988 L349.3413 240.8066 L349.2487 240.3024 L349.4152 239.8356 L349.734 239.8356 L351.88 239.8356 L361.1427 239.705 L364.8595 239.5742 L365.213 240.0785 L365.5491 240.5639 L365.642 240.7132 L365.3057 241.2176 L365.3998 242.0017 L365.8664 242.7301 L366.4275 243.0661 L366.8764 243.1034 L367.1184 243.5143 Z " fill="#D3D3D3" fill-opacity="0.58" transform="matrix(1.0001 0 0 1.0001 -242.5422 -188.5384)" /><path d="M377.9487 293.0737 L377.8922 293.3161 L376.9216 293.3161 L376.6418 293.1667 L376.249 293.1109 L374.9797 293.4656 L374.6421 293.3161 L374.1596 294.1007 L373.9522 294.2499 L373.748 293.783 L373.5421 293.0548 L372.9059 292.4574 L373.1116 291.0568 L372.9814 290.8888 L372.6452 290.9261 L371.1134 291.0568 L366.5954 291.1874 L366.5012 290.8888 L366.6329 289.3949 L367.2679 288.2371 L368.2575 286.5378 L368.0895 286.1457 L368.2938 286.1457 L368.4255 285.5481 L367.9952 285.2119 L368.0328 284.8759 L367.6402 284.0169 L367.5851 283.0272 L367.8474 282.5231 L367.772 281.72 L367.5111 281.1598 L367.772 280.8984 L367.5111 280.5063 L367.604 280.1702 L367.772 279.0123 L368.3329 278.5082 L368.201 278.1161 L368.8921 277.1265 L369.3964 276.9584 L369.3964 276.4915 L369.266 276.23 L369.7702 275.2404 L370.2747 275.035 L370.2918 274.4001 L371.9164 274.3814 L376.4172 274.0266 L377.2766 273.9893 L377.2766 275.1843 L377.3141 278.3028 L377.1633 284.0916 L377.1274 286.7245 L377.6314 290.2352 L377.9487 293.0737 Z " fill="#D3D3D3" fill-opacity="0.58" transform="matrix(1.0001 0 0 1.0001 -242.5422 -188.5384)" /><path d="M376.7909 262.0569 L376.8099 261.5154 L376.9039 260.6751 L377.3317 260.1336 L377.6677 259.4053 L378.1545 258.6211 L378.0604 257.538 L377.7256 257.0337 L377.6677 256.4363 L377.8184 255.4092 L377.7256 254.1021 L377.4822 251.1143 L377.2387 248.2386 L377.0533 246.0538 L377.6314 246.2219 L377.9111 246.4086 L378.117 246.3528 L378.5081 245.9978 L379.0312 245.6991 L379.9833 245.6618 L384.0913 245.2322 L385.1376 245.1388 L385.4174 248.1266 L386.2199 254.9985 L386.3333 256.0814 L386.239 256.4736 L386.4634 256.8098 L386.4824 257.0711 L386.0156 257.37 L385.3623 257.6687 L384.7638 257.7807 L384.6521 258.6958 L383.7929 259.3119 L383.2698 260.0589 L383.3264 260.5072 L383.2147 260.7872 L382.5987 260.7872 L382.3004 260.4884 L381.8322 260.7311 L381.3293 261.0112 L381.3658 261.5901 L381.1426 261.6462 L381.0483 261.4594 L380.6367 261.1794 L380.021 261.422 L379.7239 261.9822 L379.4616 261.8327 L379.1805 261.5342 L378.3414 261.6274 L377.2937 261.8141 L376.7909 262.0569 Z " fill="#D3D3D3" fill-opacity="0.58" transform="matrix(1.0001 0 0 1.0001 -242.5422 -188.5384)" /><path d="M376.678 262.1877 L376.678 261.5154 L376.7359 260.6006 L377.1837 260.0217 L377.52 259.3119 L378.0052 258.5838 L377.9299 257.594 L377.5576 256.9404 L377.5388 256.3243 L377.6677 255.3346 L377.52 253.99 L377.3141 251.0397 L377.0707 248.2386 L376.9039 246.0725 L376.8476 245.9045 L376.6968 245.419 L376.4549 244.728 L376.1564 244.3918 L375.875 243.9064 L375.8389 242.8794 L373.99 243.1221 L368.9111 243.4396 L367.2866 243.3648 L367.3229 243.8131 L367.7531 243.9438 L367.9211 244.1491 L368.0141 244.4853 L368.7429 245.1203 L368.8733 245.5497 L368.7429 246.1846 L368.4068 246.8755 L368.275 247.3423 L367.8474 247.6786 L367.5111 247.8091 L366.52 248.0706 L366.3895 248.4067 L366.2594 248.8175 L366.3895 249.0789 L366.7259 249.3777 L366.688 250.1433 L366.3519 250.4422 L366.2215 250.7409 L366.2215 251.2451 L365.8852 251.3384 L365.587 251.5438 L365.5491 251.8052 L365.587 252.1974 L365.271 252.4402 L365.0825 252.963 L365.1767 253.654 L365.6058 255.0171 L366.9678 256.4177 L367.9952 257.1085 L367.959 257.9114 L368.1258 258.1729 L369.321 258.2662 L369.8254 258.5277 L369.6949 259.2187 L369.266 260.3204 L369.1341 260.9178 L369.5645 261.6462 L370.76 262.6358 L371.6178 262.7665 L372.009 263.7002 L372.4031 264.2978 L372.2337 264.8579 L372.5338 265.6236 L372.8699 266.0157 L373.2235 265.8663 L373.3553 265.4555 L373.7278 265.1941 L374.3261 264.9886 L374.9044 265.2127 L375.4462 265.4181 L375.5955 265.3808 L375.5767 265.1569 L375.3725 264.6338 L375.4462 264.1856 L375.875 263.8869 L376.3243 263.7002 L376.549 263.6254 L376.436 263.3828 L376.2867 262.972 L376.5099 262.7292 L376.678 262.1877 Z " fill="#D3D3D3" fill-opacity="0.58" transform="matrix(1.0001 0 0 1.0001 -242.5422 -188.5384)" /><path d="M349.4355 229.864 L349.3413 228.2767 L349.0052 226.9136 L348.669 224.3927 L348.5748 222.5627 L348.2386 221.9278 L347.9401 220.9942 L347.9401 219.0708 L348.0705 218.3425 L347.7343 217.3155 L353.3553 217.3155 L353.4117 215.7843 L353.5247 215.7469 L353.9536 215.8403 L354.3088 215.9897 L354.4565 217.0168 L354.7376 218.1558 L355.0363 218.4546 L355.9333 218.4546 L355.9898 218.7347 L357.1649 218.7906 L357.1649 219.183 L358.0619 219.183 L358.1182 218.9401 L358.3226 218.7347 L358.7514 218.6227 L358.995 218.8094 L359.537 218.8094 L360.2644 219.2949 L361.2541 219.743 L361.7034 219.8364 L361.796 219.6496 L362.0758 219.5563 L362.1699 220.0978 L362.6554 220.3407 L362.7481 220.2473 L362.9915 220.2845 L362.9915 220.6767 L363.4772 220.8634 L364.055 220.8634 L364.3552 220.7141 L364.9521 220.1165 L365.439 220.0232 L365.587 220.3593 L365.681 220.6019 L365.8664 220.6019 L366.0535 220.4527 L367.7156 220.3966 L368.0516 220.9755 L368.1649 220.9755 L368.2938 220.7701 L369.1154 220.6955 L369.0037 221.1249 L368.275 221.4611 L366.5578 222.2266 L365.6621 222.6 L365.0825 223.0857 L364.6334 223.7579 L364.2045 224.4861 L363.8681 224.6355 L363.0279 225.5692 L362.7859 225.6065 L362.0758 226.148 L361.5541 226.7455 L361.5164 227.3058 L361.5541 228.7622 L361.2541 229.061 L360.2847 229.7706 L359.9471 230.8351 L360.4136 231.5073 L360.5065 231.9741 L360.3021 232.5342 L360.2644 233.2253 L360.3586 234.5511 L360.9935 235.3167 L361.5541 235.3167 L362.0206 235.7461 L362.6177 236.0076 L363.3088 236.9412 L364.6334 237.8749 L364.9709 238.267 L365.0071 239.2941 L361.1613 239.4248 L349.9195 239.5182 L349.8631 232.8517 L349.7703 232.2916 L349.0052 231.6567 L348.8009 231.3206 L348.8009 231.0217 L349.1922 230.7229 L349.4529 230.4615 L349.4355 229.864 Z " fill="#D3D3D3" fill-opacity="0.58" transform="matrix(1.0001 0 0 1.0001 -242.5422 -188.5384)" /><path d="M375.7637 242.6926 L375.8389 242.1324 L375.539 241.2922 L375.4274 240.153 L375.2231 239.705 L375.4086 239.1261 L375.5578 238.5845 L375.8389 238.099 L375.7257 237.4641 L375.6146 236.7919 L375.7071 236.4557 L376.0623 236.0076 L376.0998 235.5034 L375.9504 235.2607 L376.0623 234.7751 L376.1564 234.1775 L376.6606 233.1132 L377.2025 231.8434 L377.2387 231.4139 L377.1837 231.2271 L377.033 231.3206 L376.249 232.497 L375.7447 233.244 L375.3912 233.58 L375.2406 234.0095 L374.9608 234.159 L374.7551 234.5136 L374.4753 234.4577 L374.4377 234.1216 L374.6812 233.6734 L375.0726 232.7957 L375.4086 232.497 L375.6146 232.0675 L375.3143 231.8994 L375.0551 231.6381 L374.7551 229.7146 L374.0653 229.5092 L373.8032 229.0798 L371.4498 228.5755 L370.9831 228.3701 L369.4515 227.9407 L367.9211 227.7353 L367.1374 226.7268 L367.0447 226.9698 L366.8374 226.9323 L366.7259 226.7268 L366.2215 226.5775 L366.016 226.6149 L365.681 226.8017 L365.494 226.6896 L365.6058 226.3347 L365.9607 225.7559 L366.1665 225.5504 L365.8113 225.2704 L365.4185 225.4197 L364.8767 225.7746 L363.4959 226.372 L362.954 226.4841 L362.412 226.3909 L362.2249 226.2228 L361.8338 226.7455 L361.796 227.2497 L361.796 228.837 L361.5903 229.1358 L360.6007 229.864 L360.1717 230.9659 L360.2644 231.0031 L360.7325 231.3953 L360.8613 231.9929 L360.5253 232.5905 L360.5253 233.3186 L360.6196 234.5511 L361.1802 235.1112 L361.8135 235.1112 L362.1511 235.7089 L362.7859 235.8022 L363.5131 236.8666 L364.8392 237.6322 L365.2319 238.1363 L365.3998 239.5182 L365.5304 240.1343 L365.9607 240.4331 L365.9984 240.6945 L365.6058 241.3295 L365.642 241.927 L366.1085 242.6553 L366.5766 242.8607 L367.1374 242.9541 L367.3807 243.2156 L369.0979 243.2156 L373.9713 242.9354 L375.7637 242.6926 Z " fill="#D3D3D3" fill-opacity="0.58" transform="matrix(1.0001 0 0 1.0001 -242.5422 -188.5384)" /><path d="M365.1013 252.4588 L364.6334 251.88 L364.429 251.4505 L362.9727 251.5813 L361.1427 251.6746 L356.3998 251.8425 L353.8785 251.88 L352.4033 251.8986 L351.9743 251.9172 L352.2164 252.3841 L352.1786 252.8137 L352.6467 253.5418 L353.2249 254.3074 L353.8031 254.8117 L354.2334 254.849 L354.4956 255.0171 L354.4956 255.5773 L354.1596 255.876 L354.0653 256.3055 L354.4565 256.9404 L354.9246 257.5006 L355.3913 257.8369 L355.652 260.0217 L355.5201 266.6133 L355.5593 267.4909 L355.652 268.4992 L360.0225 268.4807 L364.3552 268.3498 L368.2387 268.2006 L370.4239 268.1631 L370.8339 268.798 L370.702 269.4144 L370.124 269.8624 L370.0122 270.1986 L371.0222 270.292 L371.7484 270.1611 L372.067 269.1343 L372.1975 268.0324 L372.6281 267.659 L372.9453 267.3788 L373.3365 267.1921 L373.3553 266.6506 L373.4668 266.3331 L373.2814 266.0157 L372.7756 266.0344 L372.3655 265.5489 L372.1032 264.7645 L372.2525 264.2978 L371.8989 263.6628 L371.5628 262.8038 L370.6658 262.6545 L369.3588 261.6088 L369.0428 260.8432 L369.1906 260.2457 L369.5833 259.1065 L369.6761 258.565 L369.321 258.3782 L368.0328 258.2289 L367.8474 257.9114 L367.8272 257.1271 L366.8012 256.4923 L365.494 255.0357 L365.0638 253.6726 L365.026 252.8883 L365.1013 252.4588 Z " fill="#D3D3D3" fill-opacity="0.58" transform="matrix(1.0001 0 0 1.0001 -242.5422 -188.5384)" /><path d="M371.6744 270.292 L370.9644 270.4599 L369.8066 270.3667 L369.9384 269.8065 L370.534 269.3022 L370.6283 268.8728 L370.2918 268.3125 L368.2387 268.4059 L364.3552 268.5741 L360.0037 268.7047 L355.6145 268.798 L355.9129 270.0865 L355.9129 271.6178 L356.1752 273.6717 L356.2127 280.7304 L356.6432 281.0851 L357.204 280.8238 L357.7068 281.0291 L357.7807 282.9524 L362.0569 282.9339 L365.587 282.7844 L367.4721 282.7472 L367.6794 282.355 L367.6226 281.7013 L367.2866 281.1411 L367.5851 280.861 L367.2866 280.3942 L367.417 279.9274 L367.6794 278.8817 L368.1458 278.4894 L368.0141 278.0601 L368.7052 277.0517 L369.2096 276.7902 L369.1906 276.5101 L369.1341 276.174 L369.6761 275.1284 L370.124 274.8856 L370.1994 274.2507 L370.534 274.0266 L370.702 273.2423 L370.4615 272.4955 L371.2078 272.0472 L371.3207 271.6737 L371.5439 270.8708 L371.6744 270.292 Z " fill="#D3D3D3" fill-opacity="0.58" transform="matrix(1.0001 0 0 1.0001 -242.5422 -188.5384)" /><path d="M331.3961 266.1092 L329.3978 266.0157 L328.2023 265.9224 L328.259 265.9597 L328.1273 267.9018 L332.2367 268.1631 L338.2299 268.4059 L337.8009 272.9622 L337.7067 276.2861 L337.7445 276.5848 L338.5472 277.2758 L338.9398 277.4812 L339.0718 277.4439 L339.2008 277.0517 L339.4631 277.3878 L339.8543 277.3878 L339.8543 277.1263 L340.3586 277.3878 L340.2659 278.1161 L341.0324 278.1535 L341.499 278.3589 L342.2628 278.4894 L342.7308 278.8258 L343.1598 278.4335 L343.7943 278.5643 L344.2625 279.1991 L344.4292 279.1991 L344.4292 279.6285 L344.8593 279.7595 L345.2897 279.3298 L345.6261 279.4605 L346.0911 279.4605 L346.2606 279.9274 L347.1561 280.2635 L347.417 280.1328 L347.7547 279.3671 L347.959 279.3671 L348.1649 279.7595 L348.9299 279.8901 L349.621 280.1514 L350.1818 280.3195 L350.5165 280.1514 L350.6485 279.6847 L351.4499 279.6847 L351.8439 279.8527 L352.3482 279.4605 L352.5526 279.4605 L352.683 279.7595 L353.4495 279.7595 L353.748 279.3671 L354.0841 279.4605 L354.4755 279.9274 L355.0738 280.2635 L355.6708 280.4316 L356.0258 280.6371 L355.9521 273.6906 L355.6898 271.6364 L355.652 269.9744 L355.3913 268.7607 L355.2418 267.4161 L355.223 266.7066 L352.9639 266.7626 L344.2987 266.6694 L335.897 266.2771 L331.3961 266.1092 Z " fill="#D3D3D3" fill-opacity="0.58" transform="matrix(1.0001 0 0 1.0001 -242.5422 -188.5384)" /><path d="M355.3173 266.576 L352.9639 266.6133 L344.3551 266.5199 L336.0259 266.1278 L331.4323 265.885 L332.1989 253.8033 L336.2693 253.9527 L343.832 254.2141 L352.0671 254.3074 L353.019 254.3074 L353.6176 254.9051 L354.1392 254.9424 L354.3088 255.1478 L354.3088 255.5212 L353.9711 255.82 L353.8785 256.3055 L354.2899 256.9777 L354.7566 257.5567 L355.223 257.9302 L355.4289 260.0217 L355.3173 266.576 Z " fill="#D3D3D3" fill-opacity="0.58" transform="matrix(1.0001 0 0 1.0001 -242.5422 -188.5384)" /><path d="M373.7654 294.1938 L373.5799 293.7083 L373.3741 293.1294 L372.7582 292.4759 L372.9264 291.2062 L372.9059 291.0007 L372.664 291.0568 L371.1323 291.2247 L366.4649 291.3181 L366.3331 290.8699 L366.5012 289.2828 L367.1184 288.181 L368.0516 286.5565 L367.9401 286.1083 L368.1821 285.9776 L368.275 285.6042 L367.8474 285.2119 L367.8272 284.8571 L367.491 284.0543 L367.3983 282.9524 L365.587 282.971 L362.002 283.1391 L357.8561 283.1391 L357.8561 284.9319 L357.988 286.687 L358.1182 287.4154 L358.5851 288.181 L358.7514 289.1147 L359.5545 290.1418 L359.5918 290.7394 L359.7224 290.8699 L359.5918 292.4574 L359.0328 293.391 L359.3313 293.783 L359.2009 294.2499 L359.0704 295.613 L358.8094 296.2106 L358.827 296.8828 L359.7036 296.6028 L361.218 296.5468 L363.1408 297.2191 L364.3552 297.4244 L365.0449 297.1442 L365.642 297.3497 L366.239 297.5366 L366.3895 297.1442 L365.7926 296.9387 L365.3057 297.0321 L364.803 296.7335 C364.803 296.7335 364.8392 296.4908 364.9521 296.4532 C365.0638 296.416 365.5304 296.2667 365.5304 296.2667 L365.8664 296.5468 L366.2026 296.36 L366.8012 296.4719 L367.0807 296.9202 L367.1374 297.3497 L367.9765 297.4057 L368.3142 297.7418 L368.1649 298.0405 L367.9211 298.1899 L368.2199 298.4886 L369.7891 299.161 L370.4615 298.9183 L370.6472 298.4699 L371.1323 298.358 L371.4687 298.0779 L371.7121 298.2646 L371.8614 298.8062 L371.4308 298.9556 L371.5439 299.0677 L372.1786 298.8248 L372.6088 298.1899 L372.7582 298.0966 L372.3655 298.0405 L372.5148 297.7418 L372.4772 297.4616 L372.8699 297.3682 L373.0756 297.1255 L373.1857 297.275 C373.1857 297.275 373.1495 297.8539 373.2987 297.8539 C373.4479 297.8539 374.0827 297.9658 374.0827 297.9658 L374.8305 298.3207 L375.0172 298.6008 L375.5578 298.6008 L375.7637 298.7878 L376.1939 298.2085 L376.1939 297.9285 L375.9504 297.9285 L375.3143 297.4244 L374.2319 297.275 L373.6349 296.8454 L373.8406 296.3412 L374.2696 296.3972 L374.3072 296.2853 L373.9713 296.0984 L373.9713 296.0051 L374.5681 296.0051 L374.9044 295.4262 L374.6624 295.0715 L374.6058 294.5674 L374.3261 294.6048 L373.9713 294.9968 L373.8594 295.4823 L373.2814 295.3702 L373.093 295.0341 L373.4292 294.6794 L373.8032 294.3433 L373.7654 294.1938 Z " fill="#D3D3D3" fill-opacity="0.58" transform="matrix(1.0001 0 0 1.0001 -242.5422 -188.5384)" /><path d="M416.0984 256.1375 L416.0797 255.7827 L417.2939 255.3158 L417.143 255.9135 L416.6011 256.623 L416.5275 257.4819 L416.6215 258.1168 L416.2853 259.0505 L415.8737 259.4053 L415.594 258.5464 L415.6696 257.538 L415.9677 256.7537 L416.0984 256.1375 Z M416.5275 261.422 L405.6608 263.7749 L398.6762 264.7647 L397.4258 264.6899 L396.9403 265.0447 L395.5767 265.082 L394.0088 265.2687 L392.3468 265.4555 L393.9335 264.5405 L393.9335 264.1483 L394.2133 263.7563 L396.1925 261.6088 L396.9199 262.4491 L397.6299 262.6358 L398.0966 262.4304 L398.5081 262.1877 L398.9748 262.4304 L399.7038 262.169 L400.0586 261.31 L400.544 261.4033 L401.0861 261.0112 L401.4222 261.1046 L401.9437 260.4138 L401.9991 260.0217 L401.8135 259.7787 L401.9991 259.424 L402.99 257.1273 L403.1029 256.0628 L403.3263 255.9694 L403.7363 256.4177 L404.4654 256.3615 L404.8188 254.9424 L405.3419 254.8303 L405.5304 254.3262 L406.0158 253.8966 L406.2563 253.4671 L406.5374 252.8322 L406.5563 251.88 L408.3865 252.5895 C408.5168 252.6456 408.5168 251.6932 408.5168 251.6932 L409.282 251.9547 L409.189 252.4402 L410.7209 252.9816 L410.9628 253.3178 L410.7948 254.0087 L410.5514 254.2514 L410.4572 254.5689 L410.5514 255.0171 L410.9265 255.2598 L411.654 255.5212 L412.196 255.708 L413.1105 255.876 L413.522 256.2681 L414.1191 256.3429 L414.2869 256.567 L414.2133 257.4446 L414.4738 257.6501 L414.3797 258.0048 L414.6042 258.1542 L414.5667 258.4157 L414.0642 258.3969 L414.0827 258.6958 L414.5118 258.976 L414.5289 259.2374 L414.8666 259.5733 L414.9593 260.0402 L414.4738 260.3016 L414.7723 260.5818 L415.8566 260.2642 L416.5275 261.422 Z " fill-rule="nonzero" fill="#D3D3D3" fill-opacity="0.58" transform="matrix(1.0001 0 0 1.0001 -242.5422 -188.5384)" /><path d="M411.0381 253.2618 L410.8324 252.963 L410.6456 252.8137 L410.8512 252.5147 L411.2614 252.7949 L411.0381 253.2618 Z " fill="#D3D3D3" fill-opacity="0.58" transform="matrix(1.0001 0 0 1.0001 -242.5422 -188.5384)" /><ellipse cx="410.9447" cy="252.8884" rx="0.9340438" ry="0.9336834" fill="#D3D3D3" fill-opacity="0.58" transform="matrix(1.0001 0 0 1.0001 -242.5422 -188.5384)" /><ellipse cx="410.9447" cy="252.8884" rx="0.9340438" ry="0.9336834" fill="none" stroke="#FFFFFF" stroke-width="1.5" stroke-linecap="butt" stroke-linejoin="miter" stroke-dasharray="" transform="matrix(1.0001 0 0 1.0001 -242.5422 -188.5384)" /><rect x="258.7837" y="228.6435" width="47.40896" height="47.5925" fill="#B2B2B2" fill-opacity="1" transform="matrix(1.0001 0 0 1.0001 -242.5422 -188.5384)" /><rect x="258.7837" y="228.6435" width="47.40896" height="47.5925" fill="none" stroke="#E5E5E5" stroke-width="1" stroke-linecap="butt" stroke-linejoin="miter" stroke-dasharray="" transform="matrix(1.0001 0 0 1.0001 -242.5422 -188.5384)" /><text x="274.6317" y="233.6435" font-size="5" fill="#000000" fill-opacity="1" font-family="Arial" font-weight="normal" font-style="normal" transform="matrix(1.0001 0 0 1.0001 -242.5422 -188.5384)">tracks</text><line x1="258.9646" y1="235.7026" x2="306.211" y2="235.7026" stroke="#E5E5E5" stroke-width="1" stroke-linecap="butt" stroke-linejoin="miter" stroke-dasharray="" transform="matrix(1.0001 0 0 1.0001 -242.5422 -188.5384)" /><rect x="267.7682" y="244.2762" width="31.85307" height="15.34423" fill="#7F7F7F" fill-opacity="1" transform="matrix(1.0001 0 0 1.0001 -242.5422 -188.5384)" /><rect x="267.7682" y="244.2762" width="31.85307" height="15.34423" fill="none" stroke="#666666" stroke-width="1" stroke-linecap="butt" stroke-linejoin="miter" stroke-dasharray="" transform="matrix(1.0001 0 0 1.0001 -242.5422 -188.5384)" /><text x="268.7682" y="248.2762" font-size="3" fill="#FFFFFF" fill-opacity="1" font-family="Arial" font-weight="normal" font-style="normal" transform="matrix(1.0001 0 0 1.0001 -242.5422 -188.5384)">xyz  37.982  -122.892
</text><text x="268.7682" y="252.2762" font-size="3" fill="#FFFFFF" fill-opacity="1" font-family="Arial" font-weight="normal" font-style="normal" transform="matrix(1.0001 0 0 1.0001 -242.5422 -188.5384)">jkd  36.988  -121.234
</text><text x="268.7682" y="256.2762" font-size="3" fill="#FFFFFF" fill-opacity="1" font-family="Arial" font-weight="normal" font-style="normal" transform="matrix(1.0001 0 0 1.0001 -242.5422 -188.5384)">oiu  38.928. -122.873</text><rect x="264.6002" y="264.5739" width="5.084885" height="4.983604" fill="#CCCCCC" fill-opacity="1" transform="matrix(1.0001 0 0 1.0001 -242.5422 -188.5384)" /><rect x="264.6002" y="264.5739" width="5.084885" height="4.983604" fill="none" stroke="#7F7F7F" stroke-width="1" stroke-linecap="butt" stroke-linejoin="miter" stroke-dasharray="" transform="matrix(1.0001 0 0 1.0001 -242.5422 -188.5384)" /><text x="271.3743" y="268.4647" font-size="4" fill="#000000" fill-opacity="1" font-family="Arial" font-weight="normal" font-style="normal" transform="matrix(1.0001 0 0 1.0001 -242.5422 -188.5384)">option</text><rect x="285.5809" y="266.2225" width="17.18633" height="7.511285" rx="3.755642" ry="3.755642" fill="#CCCCCC" fill-opacity="1" transform="matrix(1.0001 0 0 1.0001 -242.5422 -188.5384)" /><rect x="285.5809" y="266.2225" width="17.18633" height="7.511285" rx="3.755642" ry="3.755642" fill="none" stroke="#7F7F7F" stroke-width="1" stroke-linecap="butt" stroke-linejoin="miter" stroke-dasharray="" transform="matrix(1.0001 0 0 1.0001 -242.5422 -188.5384)" /><text x="291.6184" y="271.7438" font-size="4" fill="#000000" fill-opacity="1" font-family="Arial" font-weight="normal" font-style="normal" transform="matrix(1.0001 0 0 1.0001 -242.5422 -188.5384)">Ok</text><ellipse cx="410.8392" cy="253.1076" rx="1.822701" ry="1.822701" fill="#FFFFFF" fill-opacity="1" transform="matrix(1.0001 0 0 1.0001 -242.5422 -188.5384)" /><ellipse cx="410.8392" cy="253.1076" rx="1.822701" ry="1.822701" fill="none" stroke="#000000" stroke-width="1" stroke-linecap="butt" stroke-linejoin="miter" stroke-dasharray="" transform="matrix(1.0001 0 0 1.0001 -242.5422 -188.5384)" /><ellipse cx="375.6702" cy="227.3805" rx="1.822701" ry="1.822701" fill="#FFFFFF" fill-opacity="1" transform="matrix(1.0001 0 0 1.0001 -242.5422 -188.5384)" /><ellipse cx="375.6702" cy="227.3805" rx="1.822701" ry="1.822701" fill="none" stroke="#000000" stroke-width="1" stroke-linecap="butt" stroke-linejoin="miter" stroke-dasharray="" transform="matrix(1.0001 0 0 1.0001 -242.5422 -188.5384)" /><ellipse cx="317.9928" cy="288.5359" rx="1.23567" ry="0.7681932" fill="#00F424" fill-opacity="1" transform="matrix(1.0001 0 0 1.0001 -242.5422 -188.5384)" /><ellipse cx="317.9928" cy="288.5359" rx="1.23567" ry="0.7681932" fill="none" stroke="#000000" stroke-width="1" stroke-linecap="butt" stroke-linejoin="miter" stroke-dasharray="" transform="matrix(1.0001 0 0 1.0001 -242.5422 -188.5384)" /><ellipse cx="338.7375" cy="253.4488" rx="1.822701" ry="1.822701" fill="#FFFFFF" fill-opacity="1" transform="matrix(1.0001 0 0 1.0001 -242.5422 -188.5384)" /><ellipse cx="338.7375" cy="253.4488" rx="1.822701" ry="1.822701" fill="none" stroke="#000000" stroke-width="1" stroke-linecap="butt" stroke-linejoin="miter" stroke-dasharray="" transform="matrix(1.0001 0 0 1.0001 -242.5422 -188.5384)" /><ellipse cx="374.7375" cy="271.4488" rx="1.822701" ry="1.822701" fill="#FFFFFF" fill-opacity="1" transform="matrix(1.0001 0 0 1.0001 -242.5422 -188.5384)" /><ellipse cx="374.7375" cy="271.4488" rx="1.822701" ry="1.822701" fill="none" stroke="#000000" stroke-width="1" stroke-linecap="butt" stroke-linejoin="miter" stroke-dasharray="" transform="matrix(1.0001 0 0 1.0001 -242.5422 -188.5384)" /><ellipse cx="365.7375" cy="253.4488" rx="1.822701" ry="1.822701" fill="#FFFFFF" fill-opacity="1" transform="matrix(1.0001 0 0 1.0001 -242.5422 -188.5384)" /><ellipse cx="365.7375" cy="253.4488" rx="1.822701" ry="1.822701" fill="none" stroke="#000000" stroke-width="1" stroke-linecap="butt" stroke-linejoin="miter" stroke-dasharray="" transform="matrix(1.0001 0 0 1.0001 -242.5422 -188.5384)" /><rect x="269.3153" y="193.5482" width="14.86086" height="14.86086" fill="#B2B2B2" fill-opacity="1" transform="matrix(1.0001 0 0 1.0001 -242.5422 -188.5384)" /><rect x="269.3153" y="193.5482" width="14.86086" height="14.86086" fill="none" stroke="#E5E5E5" stroke-width="1" stroke-linecap="butt" stroke-linejoin="miter" stroke-dasharray="" transform="matrix(1.0001 0 0 1.0001 -242.5422 -188.5384)" /><rect x="249.9826" y="193.4666" width="14.86086" height="14.86086" fill="#B2B2B2" fill-opacity="1" transform="matrix(1.0001 0 0 1.0001 -242.5422 -188.5384)" /><rect x="249.9826" y="193.4666" width="14.86086" height="14.86086" fill="none" stroke="#E5E5E5" stroke-width="1" stroke-linecap="butt" stroke-linejoin="miter" stroke-dasharray="" transform="matrix(1.0001 0 0 1.0001 -242.5422 -188.5384)" /><path d="M252.9575 204.0189 L254.5847 200.3072 L255.7033 201.6037 L258.3726 198.4004 L262.0846 204.0443 Z " fill="#525252" fill-opacity="1" transform="matrix(1.0001 0 0 1.0001 -242.5422 -188.5384)" /><path d="M252.9575 204.0189 L254.5847 200.3072 L255.7033 201.6037 L258.3726 198.4004 L262.0846 204.0443 Z " fill="none" stroke="#E2DFDF" stroke-width="0.92" stroke-linecap="butt" stroke-linejoin="miter" stroke-dasharray="" transform="matrix(1.0001 0 0 1.0001 -242.5422 -188.5384)" /><path d="M255.7033 201.5783 L256.593 202.6715" fill="#525252" fill-opacity="1" transform="matrix(1.0001 0 0 1.0001 -242.5422 -188.5384)" /><path d="M255.7033 201.5783 L256.593 202.6715" fill="none" stroke="#E2DFDF" stroke-width="0.92" stroke-linecap="butt" stroke-linejoin="miter" stroke-dasharray="" transform="matrix(1.0001 0 0 1.0001 -242.5422 -188.5384)" /><path d="M254.0507 198.0445 C254.0507 197.611 254.4054 197.2564 254.8388 197.2564 C255.2723 197.2564 255.627 197.611 255.627 198.0445 C255.627 198.478 255.2723 198.8326 254.8388 198.8326 C254.4054 198.8326 254.0507 198.478 254.0507 198.0445 Z " fill="#525252" fill-opacity="1" transform="matrix(1.0001 0 0 1.0001 -242.5422 -188.5384)" /><path d="M254.0507 198.0445 C254.0507 197.611 254.4054 197.2564 254.8388 197.2564 C255.2723 197.2564 255.627 197.611 255.627 198.0445 C255.627 198.478 255.2723 198.8326 254.8388 198.8326 C254.4054 198.8326 254.0507 198.478 254.0507 198.0445 Z " fill="none" stroke="#E2DFDF" stroke-width="0.92" stroke-linecap="butt" stroke-linejoin="miter" stroke-dasharray="" transform="matrix(1.0001 0 0 1.0001 -242.5422 -188.5384)" /><path d="M271.8387 199.3276 L281.9954 199.7035 L280.114 201.2083 L280.4905 203.4654 Z " fill="#666666" fill-opacity="1" transform="matrix(1.0001 0 0 1.0001 -242.5422 -188.5384)" /><path d="M271.8387 199.3276 L281.9954 199.7035 L280.114 201.2083 L280.4905 203.4654 Z " fill="none" stroke="#E2DFDF" stroke-width="1" stroke-linecap="round" stroke-linejoin="round" stroke-dasharray="" transform="matrix(1.0001 0 0 1.0001 -242.5422 -188.5384)" /><text x="294.8011" y="204.0699" font-size="10" fill="#FFFFFF" fill-opacity="1" font-family="Arial" font-weight="bold" font-style="italic" transform="matrix(1.0001 0 0 1.0001 -242.5422 -188.5384)">icon box</text><text x="252.4357" y="290.5912" font-size="10" fill="#FFFFFF" fill-opacity="1" font-family="Arial" font-weight="bold" font-style="italic" transform="matrix(1.0001 0 0 1.0001 -242.5422 -188.5384)">UI windows</text><text x="357.8042" y="216.2768" font-size="10" fill="#FFFFFF" fill-opacity="1" font-family="Arial" font-weight="bold" font-style="italic" transform="matrix(1.0001 0 0 1.0001 -242.5422 -188.5384)">virtual globe</text><text x="368.8659" y="266.5414" font-size="10" fill="#FFFFFF" fill-opacity="1" font-family="Arial" font-weight="bold" font-style="italic" transform="matrix(1.0001 0 0 1.0001 -242.5422 -188.5384)">data </text></svg>