<?xml version="1.0" encoding="utf-8"?><svg viewBox="0 0 50 56" width="100%" height="100%" version="1.1" xmlns:xlink="http://www.w3.org/1999/xlink" xmlns="http://www.w3.org/2000/svg"><defs /><rect x="0" y="0" width="50" height="56" fill="#FFFFFF" fill-opacity="1" /><rect x="283.729" y="227.3" width="49.10003" height="55.18218" fill="none" stroke="#000000" stroke-width="0.2" stroke-linecap="butt" stroke-linejoin="miter" stroke-dasharray="" transform="matrix(1.011155 0 0 1.011155 -286.793 -229.7345)" /><rect x="284.4512" y="228.0506" width="47.40896" height="53.78752" fill="#999999" fill-opacity="1" transform="matrix(1.011155 0 0 1.011155 -286.793 -229.7345)" /><rect x="284.4512" y="228.0506" width="47.40896" height="53.78752" fill="none" stroke="#E5E5E5" stroke-width="1" stroke-linecap="butt" stroke-linejoin="miter" stroke-dasharray="" transform="matrix(1.011155 0 0 1.011155 -286.793 -229.7345)" /><text x="300.2993" y="233.0506" font-size="5" fill="#E5E5E5" fill-opacity="1" font-family="Arial" font-weight="normal" font-style="normal" transform="matrix(1.011155 0 0 1.011155 -286.793 -229.7345)">tracks</text><line x1="284.6322" y1="235.0436" x2="331.8785" y2="235.0436" stroke="#E5E5E5" stroke-width="1" stroke-linecap="butt" stroke-linejoin="miter" stroke-dasharray="" transform="matrix(1.011155 0 0 1.011155 -286.793 -229.7345)" /><text x="285.9907" y="241.6978" font-size="4" fill="#E5E5E5" fill-opacity="1" font-family="Arial" font-weight="normal" font-style="normal" transform="matrix(1.011155 0 0 1.011155 -286.793 -229.7345)">▷ layer: tracking ...</text><line x1="284.5618" y1="244.0436" x2="331.8081" y2="244.0436" stroke="#E5E5E5" stroke-width="0.5" stroke-linecap="butt" stroke-linejoin="miter" stroke-dasharray="" transform="matrix(1.011155 0 0 1.011155 -286.793 -229.7345)" /><text x="285.9907" y="250.1003" font-size="4" fill="#E5E5E5" fill-opacity="1" font-family="Arial" font-weight="normal" font-style="normal" transform="matrix(1.011155 0 0 1.011155 -286.793 -229.7345)">▽ engines</text><rect x="296.8784" y="253.5237" width="31.85307" height="15.34423" fill="#7F7F7F" fill-opacity="1" transform="matrix(1.011155 0 0 1.011155 -286.793 -229.7345)" /><rect x="296.8784" y="253.5237" width="31.85307" height="15.34423" fill="none" stroke="#666666" stroke-width="1" stroke-linecap="butt" stroke-linejoin="miter" stroke-dasharray="" transform="matrix(1.011155 0 0 1.011155 -286.793 -229.7345)" /><text x="297.8784" y="257.5237" font-size="3" fill="#FFFFFF" fill-opacity="1" font-family="Arial" font-weight="normal" font-style="normal" transform="matrix(1.011155 0 0 1.011155 -286.793 -229.7345)">xyz  37.982  -122.892
</text><text x="297.8784" y="261.5237" font-size="3" fill="#FFFFFF" fill-opacity="1" font-family="Arial" font-weight="normal" font-style="normal" transform="matrix(1.011155 0 0 1.011155 -286.793 -229.7345)">jkd  36.988  -121.234
</text><text x="297.8784" y="265.5237" font-size="3" fill="#FFFFFF" fill-opacity="1" font-family="Arial" font-weight="normal" font-style="normal" transform="matrix(1.011155 0 0 1.011155 -286.793 -229.7345)">oiu  38.928. -122.873</text><text x="285.9701" y="278.7055" font-size="4" fill="#E5E5E5" fill-opacity="1" font-family="Arial" font-weight="normal" font-style="normal" transform="matrix(1.011155 0 0 1.011155 -286.793 -229.7345)">▷ preferences ...</text><line x1="284.9151" y1="272.797" x2="332.1614" y2="272.797" stroke="#E5E5E5" stroke-width="0.5" stroke-linecap="butt" stroke-linejoin="miter" stroke-dasharray="" transform="matrix(1.011155 0 0 1.011155 -286.793 -229.7345)" /><text x="314.7809" y="251.0772" font-size="5" fill="#FFFFFF" fill-opacity="1" font-family="Arial" font-weight="bold" font-style="italic" transform="matrix(1.011155 0 0 1.011155 -286.793 -229.7345)">Panel</text></svg>