<?xml version="1.0" encoding="utf-8"?><svg viewBox="0 0 604 277" width="100%" height="100%" version="1.1" xmlns:xlink="http://www.w3.org/1999/xlink" xmlns="http://www.w3.org/2000/svg"><defs><clipPath id="clip_0"><path d="M 0 0 l 604,0 l 0,277 l -604,0 z M187.5 126 C187.5 125.175 188.175 124.5 189 124.5 C189.825 124.5 190.5 125.175 190.5 126 C190.5 126.825 189.825 127.5 189 127.5 C188.175 127.5 187.5 126.825 187.5 126 Z " clip-rule="nonzero" /></clipPath><clipPath id="clip_1"><path d="M 0 0 l 604,0 l 0,277 l -604,0 z M187.5 171 C187.5 170.175 188.175 169.5 189 169.5 C189.825 169.5 190.5 170.175 190.5 171 C190.5 171.825 189.825 172.5 189 172.5 C188.175 172.5 187.5 171.825 187.5 171 Z " clip-rule="nonzero" /></clipPath><clipPath id="clip_2"><path d="M 0 0 l 604,0 l 0,277 l -604,0 z M187.5 225 C187.5 224.175 188.175 223.5 189 223.5 C189.825 223.5 190.5 224.175 190.5 225 C190.5 225.825 189.825 226.5 189 226.5 C188.175 226.5 187.5 225.825 187.5 225 Z " clip-rule="nonzero" /></clipPath><clipPath id="clip_3"><path d="M 0 0 l 604,0 l 0,277 l -604,0 z M295.5 171 C295.5 170.175 296.175 169.5 297 169.5 C297.825 169.5 298.5 170.175 298.5 171 C298.5 171.825 297.825 172.5 297 172.5 C296.175 172.5 295.5 171.825 295.5 171 Z " clip-rule="nonzero" /></clipPath><clipPath id="clip_4"><path d="M 0 0 l 604,0 l 0,277 l -604,0 z M322.5 153 C322.5 152.175 323.175 151.5 324 151.5 C324.825 151.5 325.5 152.175 325.5 153 C325.5 153.825 324.825 154.5 324 154.5 C323.175 154.5 322.5 153.825 322.5 153 Z " clip-rule="nonzero" /></clipPath><clipPath id="clip_5"><path d="M 0 0 l 604,0 l 0,277 l -604,0 z M322.5 198 C322.5 197.175 323.175 196.5 324 196.5 C324.825 196.5 325.5 197.175 325.5 198 C325.5 198.825 324.825 199.5 324 199.5 C323.175 199.5 322.5 198.825 322.5 198 Z " clip-rule="nonzero" /></clipPath><clipPath id="clip_6"><path d="M 0 0 l 604,0 l 0,277 l -604,0 z M511.5 171 C511.5 170.175 512.175 169.5 513 169.5 C513.825 169.5 514.5 170.175 514.5 171 C514.5 171.825 513.825 172.5 513 172.5 C512.175 172.5 511.5 171.825 511.5 171 Z " clip-rule="nonzero" /></clipPath><clipPath id="clip_7"><path d="M 0 0 l 604,0 l 0,277 l -604,0 z M511.5 216 C511.5 215.175 512.175 214.5 513 214.5 C513.825 214.5 514.5 215.175 514.5 216 C514.5 216.825 513.825 217.5 513 217.5 C512.175 217.5 511.5 216.825 511.5 216 Z " clip-rule="nonzero" /></clipPath><clipPath id="clip_8"><path d="M 0 0 l 604,0 l 0,277 l -604,0 z M592.5 171 C592.5 170.175 593.175 169.5 594 169.5 C594.825 169.5 595.5 170.175 595.5 171 C595.5 171.825 594.825 172.5 594 172.5 C593.175 172.5 592.5 171.825 592.5 171 Z " clip-rule="nonzero" /></clipPath><clipPath id="clip_9"><path d="M 0 0 l 604,0 l 0,277 l -604,0 z M592.5 216 C592.5 215.175 593.175 214.5 594 214.5 C594.825 214.5 595.5 215.175 595.5 216 C595.5 216.825 594.825 217.5 594 217.5 C593.175 217.5 592.5 216.825 592.5 216 Z " clip-rule="nonzero" /></clipPath></defs><rect x="0" y="0" width="604" height="277" fill="#FFFFFF" fill-opacity="1" /><rect x="495" y="126" width="180" height="135" rx="18" ry="18" fill="none" stroke="#999999" stroke-width="1" stroke-linecap="butt" stroke-linejoin="miter" stroke-dasharray="" transform="matrix(1.000829 0 0 1.000829 -71.80944 -17.71895)" /><text x="544.9915" y="143" font-size="15" fill="#7F7F7F" fill-opacity="1" font-family="Arial" font-weight="normal" font-style="normal" transform="matrix(1.000829 0 0 1.000829 -71.80944 -17.71895)">User Server</text><rect x="171" y="81" width="225" height="171" rx="18" ry="18" fill="none" stroke="#000000" stroke-width="1" stroke-linecap="butt" stroke-linejoin="miter" stroke-dasharray="" transform="matrix(1.000829 0 0 1.000829 -71.80944 -17.71895)" /><text x="182.6162" y="98" font-size="15" fill="#000000" fill-opacity="1" font-family="Arial" font-weight="normal" font-style="normal" transform="matrix(1.000829 0 0 1.000829 -71.80944 -17.71895)">ODIN Edge Server Application</text><path d="M123.2449 163.3488 L100.8459 163.3488 L100.8459 199.0372 L123.2449 199.0372" fill="#666666" fill-opacity="1" transform="matrix(1.000829 0 0 1.000829 -71.80944 -17.71895)" /><path d="M123.2449 163.3488 L100.8459 163.3488 L100.8459 199.0372 L123.2449 199.0372" fill="none" stroke="#FFFFFF" stroke-width="1" stroke-linecap="butt" stroke-linejoin="miter" stroke-dasharray="" transform="matrix(1.000829 0 0 1.000829 -71.80944 -17.71895)" /><path d="M123.2449 163.3488 L100.8459 163.3488 L100.8459 199.0372 L123.2449 199.0372" fill="#666666" fill-opacity="1" transform="matrix(1.000829 0 0 1.000829 -71.80944 -17.71895)" /><path d="M123.2449 163.3488 L100.8459 163.3488 L100.8459 199.0372 L123.2449 199.0372" fill="none" stroke="#FFFFFF" stroke-width="1" stroke-linecap="butt" stroke-linejoin="miter" stroke-dasharray="" transform="matrix(1.000829 0 0 1.000829 -71.80944 -17.71895)" /><path d="M123.2449 199.0372 L130.3985 191.8779 L130.3985 156.1951 L107.9995 156.1951 L100.8459 163.3488 L123.2449 163.3488 Z " fill="#666666" fill-opacity="1" transform="matrix(1.000829 0 0 1.000829 -71.80944 -17.71895)" /><path d="M123.2449 199.0372 L130.3985 191.8779 L130.3985 156.1951 L107.9995 156.1951 L100.8459 163.3488 L123.2449 163.3488 Z " fill="none" stroke="#FFFFFF" stroke-width="1" stroke-linecap="butt" stroke-linejoin="miter" stroke-dasharray="" transform="matrix(1.000829 0 0 1.000829 -71.80944 -17.71895)" /><path d="M123.2449 199.0372 L130.3985 191.8779 L130.3985 156.1951 L107.9995 156.1951 L100.8459 163.3488 L123.2449 163.3488 Z " fill="#666666" fill-opacity="1" transform="matrix(1.000829 0 0 1.000829 -71.80944 -17.71895)" /><path d="M123.2449 199.0372 L130.3985 191.8779 L130.3985 156.1951 L107.9995 156.1951 L100.8459 163.3488 L123.2449 163.3488 Z " fill="none" stroke="#FFFFFF" stroke-width="1" stroke-linecap="butt" stroke-linejoin="miter" stroke-dasharray="" transform="matrix(1.000829 0 0 1.000829 -71.80944 -17.71895)" /><line x1="123.2449" y1="163.3488" x2="130.3985" y2="156.1951" stroke="#FFFFFF" stroke-width="1" stroke-linecap="butt" stroke-linejoin="miter" stroke-dasharray="" transform="matrix(1.000829 0 0 1.000829 -71.80944 -17.71895)" /><line x1="123.2449" y1="163.3488" x2="130.3985" y2="156.1951" stroke="#FFFFFF" stroke-width="1" stroke-linecap="butt" stroke-linejoin="miter" stroke-dasharray="" transform="matrix(1.000829 0 0 1.000829 -71.80944 -17.71895)" /><line x1="101.2041" y1="177.2526" x2="123.0411" y2="177.2526" stroke="#FFFFFF" stroke-width="1" stroke-linecap="butt" stroke-linejoin="miter" stroke-dasharray="" transform="matrix(1.000829 0 0 1.000829 -71.80944 -17.71895)" /><line x1="101.2041" y1="193.6294" x2="123.0411" y2="193.6294" stroke="#FFFFFF" stroke-width="1" stroke-linecap="butt" stroke-linejoin="miter" stroke-dasharray="" transform="matrix(1.000829 0 0 1.000829 -71.80944 -17.71895)" /><line x1="106.2992" y1="168.8821" x2="112.6683" y2="168.8821" stroke="#FFFFFF" stroke-width="1" stroke-linecap="butt" stroke-linejoin="miter" stroke-dasharray="" transform="matrix(1.000829 0 0 1.000829 -71.80944 -17.71895)" /><path d="M103.7518 171.0656 L115.0345 171.0656 L115.0345 166.5165 L103.7518 166.5165 Z " fill="#666666" fill-opacity="1" transform="matrix(1.000829 0 0 1.000829 -71.80944 -17.71895)" /><path d="M103.7518 171.0656 L115.0345 171.0656 L115.0345 166.5165 L103.7518 166.5165 Z " fill="none" stroke="#FFFFFF" stroke-width="1" stroke-linecap="butt" stroke-linejoin="miter" stroke-dasharray="" transform="matrix(1.000829 0 0 1.000829 -71.80944 -17.71895)" /><path d="M98.7894 104.9603 L79.09834 104.9603 L79.09834 142.2251 L98.7894 142.2251" fill="#666666" fill-opacity="1" transform="matrix(1.000829 0 0 1.000829 -71.80944 -17.71895)" /><path d="M98.7894 104.9603 L79.09834 104.9603 L79.09834 142.2251 L98.7894 142.2251" fill="none" stroke="#FFFFFF" stroke-width="1" stroke-linecap="butt" stroke-linejoin="miter" stroke-dasharray="" transform="matrix(1.000829 0 0 1.000829 -71.80944 -17.71895)" /><path d="M98.8015 142.3708 L105.09 136.9578 L105.09 99.30672 L85.39891 99.30672 L79.11036 104.7198 L98.8015 104.7198 Z " fill="#666666" fill-opacity="1" transform="matrix(1.000829 0 0 1.000829 -71.80944 -17.71895)" /><path d="M98.8015 142.3708 L105.09 136.9578 L105.09 99.30672 L85.39891 99.30672 L79.11036 104.7198 L98.8015 104.7198 Z " fill="none" stroke="#FFFFFF" stroke-width="1" stroke-linecap="butt" stroke-linejoin="miter" stroke-dasharray="" transform="matrix(1.000829 0 0 1.000829 -71.80944 -17.71895)" /><line x1="98.80153" y1="104.7198" x2="105.0718" y2="99" stroke="#FFFFFF" stroke-width="1" stroke-linecap="butt" stroke-linejoin="miter" stroke-dasharray="" transform="matrix(1.000829 0 0 1.000829 -71.80944 -17.71895)" /><path d="M90.72079 125.3028 L90.72079 123.863 L80.80293 123.863 L80.80293 125.3028 Z " fill="#666666" fill-opacity="1" transform="matrix(1.000829 0 0 1.000829 -71.80944 -17.71895)" /><path d="M90.72079 128.2787 L90.72079 126.8391 L80.80293 126.8391 L80.80293 128.2787 Z " fill="#666666" fill-opacity="1" transform="matrix(1.000829 0 0 1.000829 -71.80944 -17.71895)" /><path d="M90.72079 131.2682 L90.72079 129.8284 L80.80293 129.8284 L80.80293 131.2682 Z " fill="#666666" fill-opacity="1" transform="matrix(1.000829 0 0 1.000829 -71.80944 -17.71895)" /><path d="M80.80293 131.2682 L90.72079 131.2682 L90.72079 129.8284 L80.80293 129.8284 Z " fill="#666666" fill-opacity="1" transform="matrix(1.000829 0 0 1.000829 -71.80944 -17.71895)" /><path d="M80.80293 131.2682 L90.72079 131.2682 L90.72079 129.8284 L80.80293 129.8284 Z " fill="none" transform="matrix(1.000829 0 0 1.000829 -71.80944 -17.71895)" /><path d="M90.72079 134.2526 L90.72079 132.8129 L80.80293 132.8129 L80.80293 134.2526 Z " fill="#666666" fill-opacity="1" transform="matrix(1.000829 0 0 1.000829 -71.80944 -17.71895)" /><path d="M80.80293 134.2526 L90.72079 134.2526 L90.72079 132.8129 L80.80293 132.8129 Z " fill="#666666" fill-opacity="1" transform="matrix(1.000829 0 0 1.000829 -71.80944 -17.71895)" /><path d="M80.80293 134.2526 L90.72079 134.2526 L90.72079 132.8129 L80.80293 132.8129 Z " fill="none" transform="matrix(1.000829 0 0 1.000829 -71.80944 -17.71895)" /><path d="M90.72079 137.2363 L90.72079 135.797 L80.80293 135.797 L80.80293 137.2363 Z " fill="#666666" fill-opacity="1" transform="matrix(1.000829 0 0 1.000829 -71.80944 -17.71895)" /><path d="M90.72079 140.2208 L90.72079 138.7812 L80.80293 138.7812 L80.80293 140.2208 Z " fill="#666666" fill-opacity="1" transform="matrix(1.000829 0 0 1.000829 -71.80944 -17.71895)" /><path d="M80.80293 128.1696 L90.72079 128.1696 L90.72079 126.7299 L80.80293 126.7299 Z " fill="#666666" fill-opacity="1" transform="matrix(1.000829 0 0 1.000829 -71.80944 -17.71895)" /><path d="M80.80293 128.1696 L90.72079 128.1696 L90.72079 126.7299 L80.80293 126.7299 Z " fill="none" transform="matrix(1.000829 0 0 1.000829 -71.80944 -17.71895)" /><path d="M91.91607 110.3818 L91.90324 110.5713 L91.86473 110.7593 L91.80087 110.9435 L91.71381 111.1242 L91.60243 111.3034 L91.468 111.4774 L91.31068 111.6489 L91.13271 111.8166 L90.9332 111.9789 L90.71294 112.1388 L90.47369 112.2925 L90.21507 112.4423 L89.93758 112.5867 L89.64194 112.7262 L89.32832 112.8594 L88.99834 112.9874 L88.65273 113.109 L88.29188 113.2253 L87.91575 113.3343 L87.52536 113.4379 L87.12086 113.5326 L86.70391 113.6221 L86.27486 113.7026 L85.83357 113.7768 L85.38163 113.8436 L84.91853 113.9013 L84.44614 113.9512 L83.96445 113.9919 L83.47406 114.0239 L82.97582 114.0471 L82.47002 114.0612 L81.95803 114.066 C76.45889 114.066 72 112.4166 72 110.3818 L72 118.8804 C72 120.9102 76.45889 122.5647 81.95803 122.5647 C87.45617 122.5647 91.91607 120.9102 91.91607 118.8804 Z " fill="#666666" fill-opacity="1" transform="matrix(1.000829 0 0 1.000829 -71.80944 -17.71895)" /><path d="M91.91607 110.3818 L91.90324 110.5713 L91.86473 110.7593 L91.80087 110.9435 L91.71381 111.1242 L91.60243 111.3034 L91.468 111.4774 L91.31068 111.6489 L91.13271 111.8166 L90.9332 111.9789 L90.71294 112.1388 L90.47369 112.2925 L90.21507 112.4423 L89.93758 112.5867 L89.64194 112.7262 L89.32832 112.8594 L88.99834 112.9874 L88.65273 113.109 L88.29188 113.2253 L87.91575 113.3343 L87.52536 113.4379 L87.12086 113.5326 L86.70391 113.6221 L86.27486 113.7026 L85.83357 113.7768 L85.38163 113.8436 L84.91853 113.9013 L84.44614 113.9512 L83.96445 113.9919 L83.47406 114.0239 L82.97582 114.0471 L82.47002 114.0612 L81.95803 114.066 C76.45889 114.066 72 112.4166 72 110.3818 L72 118.8804 C72 120.9102 76.45889 122.5647 81.95803 122.5647 C87.45617 122.5647 91.91607 120.9102 91.91607 118.8804 Z " fill="#666666" fill-opacity="1" transform="matrix(1.000829 0 0 1.000829 -71.80944 -17.71895)" /><path d="M91.91607 110.3818 L91.90324 110.5713 L91.86473 110.7593 L91.80087 110.9435 L91.71381 111.1242 L91.60243 111.3034 L91.468 111.4774 L91.31068 111.6489 L91.13271 111.8166 L90.9332 111.9789 L90.71294 112.1388 L90.47369 112.2925 L90.21507 112.4423 L89.93758 112.5867 L89.64194 112.7262 L89.32832 112.8594 L88.99834 112.9874 L88.65273 113.109 L88.29188 113.2253 L87.91575 113.3343 L87.52536 113.4379 L87.12086 113.5326 L86.70391 113.6221 L86.27486 113.7026 L85.83357 113.7768 L85.38163 113.8436 L84.91853 113.9013 L84.44614 113.9512 L83.96445 113.9919 L83.47406 114.0239 L82.97582 114.0471 L82.47002 114.0612 L81.95803 114.066 C76.45889 114.066 72 112.4166 72 110.3818 L72 118.8804 C72 120.9102 76.45889 122.5647 81.95803 122.5647 C87.45617 122.5647 91.91607 120.9102 91.91607 118.8804 Z " fill="none" stroke="#FFFFFF" stroke-width="1" stroke-linecap="butt" stroke-linejoin="miter" stroke-dasharray="" transform="matrix(1.000829 0 0 1.000829 -71.80944 -17.71895)" /><path d="M81.95803 114.066 L82.47002 114.0612 L82.97582 114.0471 L83.47406 114.0239 L83.96445 113.9919 L84.44614 113.9512 L84.91853 113.9013 L85.38163 113.8436 L85.83357 113.7768 L86.27486 113.7026 L86.70391 113.6221 L87.12086 113.5326 L87.52536 113.4379 L87.91575 113.3343 L88.29188 113.2253 L88.65273 113.109 L88.99834 112.9874 L89.32832 112.8594 L89.64194 112.7262 L89.93758 112.5867 L90.21507 112.4423 L90.47369 112.2925 L90.71294 112.1388 L90.9332 111.9789 L91.13271 111.8166 L91.31068 111.6489 L91.468 111.4774 L91.60243 111.3034 L91.71381 111.1242 L91.80087 110.9435 L91.86473 110.7593 L91.90324 110.5713 L91.91607 110.3818 C91.91607 108.3432 87.45617 106.6936 81.95803 106.6936 C76.45889 106.6936 72 108.3432 72 110.3818 C72 112.4166 76.45889 114.066 81.95803 114.066 Z " fill="#666666" fill-opacity="1" transform="matrix(1.000829 0 0 1.000829 -71.80944 -17.71895)" /><path d="M81.95803 114.066 L82.47002 114.0612 L82.97582 114.0471 L83.47406 114.0239 L83.96445 113.9919 L84.44614 113.9512 L84.91853 113.9013 L85.38163 113.8436 L85.83357 113.7768 L86.27486 113.7026 L86.70391 113.6221 L87.12086 113.5326 L87.52536 113.4379 L87.91575 113.3343 L88.29188 113.2253 L88.65273 113.109 L88.99834 112.9874 L89.32832 112.8594 L89.64194 112.7262 L89.93758 112.5867 L90.21507 112.4423 L90.47369 112.2925 L90.71294 112.1388 L90.9332 111.9789 L91.13271 111.8166 L91.31068 111.6489 L91.468 111.4774 L91.60243 111.3034 L91.71381 111.1242 L91.80087 110.9435 L91.86473 110.7593 L91.90324 110.5713 L91.91607 110.3818 C91.91607 108.3432 87.45617 106.6936 81.95803 106.6936 C76.45889 106.6936 72 108.3432 72 110.3818 C72 112.4166 76.45889 114.066 81.95803 114.066 Z " fill="#666666" fill-opacity="1" transform="matrix(1.000829 0 0 1.000829 -71.80944 -17.71895)" /><path d="M81.95803 114.066 L82.47002 114.0612 L82.97582 114.0471 L83.47406 114.0239 L83.96445 113.9919 L84.44614 113.9512 L84.91853 113.9013 L85.38163 113.8436 L85.83357 113.7768 L86.27486 113.7026 L86.70391 113.6221 L87.12086 113.5326 L87.52536 113.4379 L87.91575 113.3343 L88.29188 113.2253 L88.65273 113.109 L88.99834 112.9874 L89.32832 112.8594 L89.64194 112.7262 L89.93758 112.5867 L90.21507 112.4423 L90.47369 112.2925 L90.71294 112.1388 L90.9332 111.9789 L91.13271 111.8166 L91.31068 111.6489 L91.468 111.4774 L91.60243 111.3034 L91.71381 111.1242 L91.80087 110.9435 L91.86473 110.7593 L91.90324 110.5713 L91.91607 110.3818 C91.91607 108.3432 87.45617 106.6936 81.95803 106.6936 C76.45889 106.6936 72 108.3432 72 110.3818 C72 112.4166 76.45889 114.066 81.95803 114.066 Z " fill="none" stroke="#FFFFFF" stroke-width="1" stroke-linecap="butt" stroke-linejoin="miter" stroke-dasharray="" transform="matrix(1.000829 0 0 1.000829 -71.80944 -17.71895)" /><path d="M80.79019 137.2315 L90.70761 137.2315 L90.70761 135.7918 L80.79019 135.7918 Z " fill="#666666" fill-opacity="1" transform="matrix(1.000829 0 0 1.000829 -71.80944 -17.71895)" /><path d="M80.79019 137.2315 L90.70761 137.2315 L90.70761 135.7918 L80.79019 135.7918 Z " fill="none" transform="matrix(1.000829 0 0 1.000829 -71.80944 -17.71895)" /><path d="M98.7894 221.9603 L79.09834 221.9603 L79.09834 259.2251 L98.7894 259.2251" fill="#666666" fill-opacity="1" transform="matrix(1.000829 0 0 1.000829 -71.80944 -17.71895)" /><path d="M98.7894 221.9603 L79.09834 221.9603 L79.09834 259.2251 L98.7894 259.2251" fill="none" stroke="#FFFFFF" stroke-width="1" stroke-linecap="butt" stroke-linejoin="miter" stroke-dasharray="" transform="matrix(1.000829 0 0 1.000829 -71.80944 -17.71895)" /><path d="M98.8015 259.3708 L105.09 253.9578 L105.09 216.3067 L85.39891 216.3067 L79.11036 221.7198 L98.8015 221.7198 Z " fill="#666666" fill-opacity="1" transform="matrix(1.000829 0 0 1.000829 -71.80944 -17.71895)" /><path d="M98.8015 259.3708 L105.09 253.9578 L105.09 216.3067 L85.39891 216.3067 L79.11036 221.7198 L98.8015 221.7198 Z " fill="none" stroke="#FFFFFF" stroke-width="1" stroke-linecap="butt" stroke-linejoin="miter" stroke-dasharray="" transform="matrix(1.000829 0 0 1.000829 -71.80944 -17.71895)" /><line x1="98.80153" y1="221.7198" x2="105.0718" y2="216" stroke="#FFFFFF" stroke-width="1" stroke-linecap="butt" stroke-linejoin="miter" stroke-dasharray="" transform="matrix(1.000829 0 0 1.000829 -71.80944 -17.71895)" /><path d="M90.72079 242.3027 L90.72079 240.863 L80.80293 240.863 L80.80293 242.3027 Z " fill="#666666" fill-opacity="1" transform="matrix(1.000829 0 0 1.000829 -71.80944 -17.71895)" /><path d="M90.72079 245.2787 L90.72079 243.8391 L80.80293 243.8391 L80.80293 245.2787 Z " fill="#666666" fill-opacity="1" transform="matrix(1.000829 0 0 1.000829 -71.80944 -17.71895)" /><path d="M90.72079 248.2682 L90.72079 246.8285 L80.80293 246.8285 L80.80293 248.2682 Z " fill="#666666" fill-opacity="1" transform="matrix(1.000829 0 0 1.000829 -71.80944 -17.71895)" /><path d="M80.80293 248.2682 L90.72079 248.2682 L90.72079 246.8285 L80.80293 246.8285 Z " fill="#666666" fill-opacity="1" transform="matrix(1.000829 0 0 1.000829 -71.80944 -17.71895)" /><path d="M80.80293 248.2682 L90.72079 248.2682 L90.72079 246.8285 L80.80293 246.8285 Z " fill="none" transform="matrix(1.000829 0 0 1.000829 -71.80944 -17.71895)" /><path d="M90.72079 251.2526 L90.72079 249.8129 L80.80293 249.8129 L80.80293 251.2526 Z " fill="#666666" fill-opacity="1" transform="matrix(1.000829 0 0 1.000829 -71.80944 -17.71895)" /><path d="M80.80293 251.2526 L90.72079 251.2526 L90.72079 249.8129 L80.80293 249.8129 Z " fill="#666666" fill-opacity="1" transform="matrix(1.000829 0 0 1.000829 -71.80944 -17.71895)" /><path d="M80.80293 251.2526 L90.72079 251.2526 L90.72079 249.8129 L80.80293 249.8129 Z " fill="none" transform="matrix(1.000829 0 0 1.000829 -71.80944 -17.71895)" /><path d="M90.72079 254.2363 L90.72079 252.797 L80.80293 252.797 L80.80293 254.2363 Z " fill="#666666" fill-opacity="1" transform="matrix(1.000829 0 0 1.000829 -71.80944 -17.71895)" /><path d="M90.72079 257.2208 L90.72079 255.7812 L80.80293 255.7812 L80.80293 257.2208 Z " fill="#666666" fill-opacity="1" transform="matrix(1.000829 0 0 1.000829 -71.80944 -17.71895)" /><path d="M80.80293 245.1696 L90.72079 245.1696 L90.72079 243.7299 L80.80293 243.7299 Z " fill="#666666" fill-opacity="1" transform="matrix(1.000829 0 0 1.000829 -71.80944 -17.71895)" /><path d="M80.80293 245.1696 L90.72079 245.1696 L90.72079 243.7299 L80.80293 243.7299 Z " fill="none" transform="matrix(1.000829 0 0 1.000829 -71.80944 -17.71895)" /><path d="M91.91607 227.3818 L91.90324 227.5713 L91.86473 227.7593 L91.80087 227.9435 L91.71381 228.1241 L91.60243 228.3034 L91.468 228.4774 L91.31068 228.6489 L91.13271 228.8166 L90.9332 228.9789 L90.71294 229.1388 L90.47369 229.2925 L90.21507 229.4423 L89.93758 229.5867 L89.64194 229.7262 L89.32832 229.8594 L88.99834 229.9874 L88.65273 230.109 L88.29188 230.2253 L87.91575 230.3343 L87.52536 230.4379 L87.12086 230.5326 L86.70391 230.6221 L86.27486 230.7026 L85.83357 230.7768 L85.38163 230.8436 L84.91853 230.9013 L84.44614 230.9512 L83.96445 230.9919 L83.47406 231.0239 L82.97582 231.0471 L82.47002 231.0612 L81.95803 231.066 C76.45889 231.066 72 229.4165 72 227.3818 L72 235.8803 C72 237.9102 76.45889 239.5647 81.95803 239.5647 C87.45617 239.5647 91.91607 237.9102 91.91607 235.8803 Z " fill="#666666" fill-opacity="1" transform="matrix(1.000829 0 0 1.000829 -71.80944 -17.71895)" /><path d="M91.91607 227.3818 L91.90324 227.5713 L91.86473 227.7593 L91.80087 227.9435 L91.71381 228.1241 L91.60243 228.3034 L91.468 228.4774 L91.31068 228.6489 L91.13271 228.8166 L90.9332 228.9789 L90.71294 229.1388 L90.47369 229.2925 L90.21507 229.4423 L89.93758 229.5867 L89.64194 229.7262 L89.32832 229.8594 L88.99834 229.9874 L88.65273 230.109 L88.29188 230.2253 L87.91575 230.3343 L87.52536 230.4379 L87.12086 230.5326 L86.70391 230.6221 L86.27486 230.7026 L85.83357 230.7768 L85.38163 230.8436 L84.91853 230.9013 L84.44614 230.9512 L83.96445 230.9919 L83.47406 231.0239 L82.97582 231.0471 L82.47002 231.0612 L81.95803 231.066 C76.45889 231.066 72 229.4165 72 227.3818 L72 235.8803 C72 237.9102 76.45889 239.5647 81.95803 239.5647 C87.45617 239.5647 91.91607 237.9102 91.91607 235.8803 Z " fill="#666666" fill-opacity="1" transform="matrix(1.000829 0 0 1.000829 -71.80944 -17.71895)" /><path d="M91.91607 227.3818 L91.90324 227.5713 L91.86473 227.7593 L91.80087 227.9435 L91.71381 228.1241 L91.60243 228.3034 L91.468 228.4774 L91.31068 228.6489 L91.13271 228.8166 L90.9332 228.9789 L90.71294 229.1388 L90.47369 229.2925 L90.21507 229.4423 L89.93758 229.5867 L89.64194 229.7262 L89.32832 229.8594 L88.99834 229.9874 L88.65273 230.109 L88.29188 230.2253 L87.91575 230.3343 L87.52536 230.4379 L87.12086 230.5326 L86.70391 230.6221 L86.27486 230.7026 L85.83357 230.7768 L85.38163 230.8436 L84.91853 230.9013 L84.44614 230.9512 L83.96445 230.9919 L83.47406 231.0239 L82.97582 231.0471 L82.47002 231.0612 L81.95803 231.066 C76.45889 231.066 72 229.4165 72 227.3818 L72 235.8803 C72 237.9102 76.45889 239.5647 81.95803 239.5647 C87.45617 239.5647 91.91607 237.9102 91.91607 235.8803 Z " fill="none" stroke="#FFFFFF" stroke-width="1" stroke-linecap="butt" stroke-linejoin="miter" stroke-dasharray="" transform="matrix(1.000829 0 0 1.000829 -71.80944 -17.71895)" /><path d="M81.95803 231.066 L82.47002 231.0612 L82.97582 231.0471 L83.47406 231.0239 L83.96445 230.9919 L84.44614 230.9512 L84.91853 230.9013 L85.38163 230.8436 L85.83357 230.7768 L86.27486 230.7026 L86.70391 230.6221 L87.12086 230.5326 L87.52536 230.4379 L87.91575 230.3343 L88.29188 230.2253 L88.65273 230.109 L88.99834 229.9874 L89.32832 229.8594 L89.64194 229.7262 L89.93758 229.5867 L90.21507 229.4423 L90.47369 229.2925 L90.71294 229.1388 L90.9332 228.9789 L91.13271 228.8166 L91.31068 228.6489 L91.468 228.4774 L91.60243 228.3034 L91.71381 228.1241 L91.80087 227.9435 L91.86473 227.7593 L91.90324 227.5713 L91.91607 227.3818 C91.91607 225.3432 87.45617 223.6936 81.95803 223.6936 C76.45889 223.6936 72 225.3432 72 227.3818 C72 229.4165 76.45889 231.066 81.95803 231.066 Z " fill="#666666" fill-opacity="1" transform="matrix(1.000829 0 0 1.000829 -71.80944 -17.71895)" /><path d="M81.95803 231.066 L82.47002 231.0612 L82.97582 231.0471 L83.47406 231.0239 L83.96445 230.9919 L84.44614 230.9512 L84.91853 230.9013 L85.38163 230.8436 L85.83357 230.7768 L86.27486 230.7026 L86.70391 230.6221 L87.12086 230.5326 L87.52536 230.4379 L87.91575 230.3343 L88.29188 230.2253 L88.65273 230.109 L88.99834 229.9874 L89.32832 229.8594 L89.64194 229.7262 L89.93758 229.5867 L90.21507 229.4423 L90.47369 229.2925 L90.71294 229.1388 L90.9332 228.9789 L91.13271 228.8166 L91.31068 228.6489 L91.468 228.4774 L91.60243 228.3034 L91.71381 228.1241 L91.80087 227.9435 L91.86473 227.7593 L91.90324 227.5713 L91.91607 227.3818 C91.91607 225.3432 87.45617 223.6936 81.95803 223.6936 C76.45889 223.6936 72 225.3432 72 227.3818 C72 229.4165 76.45889 231.066 81.95803 231.066 Z " fill="#666666" fill-opacity="1" transform="matrix(1.000829 0 0 1.000829 -71.80944 -17.71895)" /><path d="M81.95803 231.066 L82.47002 231.0612 L82.97582 231.0471 L83.47406 231.0239 L83.96445 230.9919 L84.44614 230.9512 L84.91853 230.9013 L85.38163 230.8436 L85.83357 230.7768 L86.27486 230.7026 L86.70391 230.6221 L87.12086 230.5326 L87.52536 230.4379 L87.91575 230.3343 L88.29188 230.2253 L88.65273 230.109 L88.99834 229.9874 L89.32832 229.8594 L89.64194 229.7262 L89.93758 229.5867 L90.21507 229.4423 L90.47369 229.2925 L90.71294 229.1388 L90.9332 228.9789 L91.13271 228.8166 L91.31068 228.6489 L91.468 228.4774 L91.60243 228.3034 L91.71381 228.1241 L91.80087 227.9435 L91.86473 227.7593 L91.90324 227.5713 L91.91607 227.3818 C91.91607 225.3432 87.45617 223.6936 81.95803 223.6936 C76.45889 223.6936 72 225.3432 72 227.3818 C72 229.4165 76.45889 231.066 81.95803 231.066 Z " fill="none" stroke="#FFFFFF" stroke-width="1" stroke-linecap="butt" stroke-linejoin="miter" stroke-dasharray="" transform="matrix(1.000829 0 0 1.000829 -71.80944 -17.71895)" /><path d="M80.79019 254.2315 L90.70761 254.2315 L90.70761 252.7918 L80.79019 252.7918 Z " fill="#666666" fill-opacity="1" transform="matrix(1.000829 0 0 1.000829 -71.80944 -17.71895)" /><path d="M80.79019 254.2315 L90.70761 254.2315 L90.70761 252.7918 L80.79019 252.7918 Z " fill="none" transform="matrix(1.000829 0 0 1.000829 -71.80944 -17.71895)" /><path d="M463.9298 264.7256 L503.186 264.7256 L506.5676 274.5504 L513 274.5392 L513 289.2604 L463.9298 289.2604 Z " fill="#666666" fill-opacity="1" transform="matrix(1.000829 0 0 1.000829 -71.80944 -17.71895)" /><path d="M463.9298 264.7256 L503.186 264.7256 L506.5676 274.5504 L513 274.5392 L513 289.2604 L463.9298 289.2604 Z " fill="none" stroke="#FEFEFE" stroke-width="1" stroke-linecap="butt" stroke-linejoin="miter" stroke-dasharray="" transform="matrix(1.000829 0 0 1.000829 -71.80944 -17.71895)" /><path d="M498.2789 264.8185 L498.2789 274.5504 L506.5676 274.5504" fill="#666666" fill-opacity="1" transform="matrix(1.000829 0 0 1.000829 -71.80944 -17.71895)" /><path d="M498.2789 264.8185 L498.2789 274.5504 L506.5676 274.5504" fill="none" stroke="#FEFEFE" stroke-width="1" stroke-linecap="butt" stroke-linejoin="miter" stroke-dasharray="" transform="matrix(1.000829 0 0 1.000829 -71.80944 -17.71895)" /><path d="M463.9298 279.4581 L498.2789 279.4581 L498.2789 264.7369" fill="#666666" fill-opacity="1" transform="matrix(1.000829 0 0 1.000829 -71.80944 -17.71895)" /><path d="M463.9298 279.4581 L498.2789 279.4581 L498.2789 264.7369" fill="none" stroke="#FEFEFE" stroke-width="1" stroke-linecap="butt" stroke-linejoin="miter" stroke-dasharray="" transform="matrix(1.000829 0 0 1.000829 -71.80944 -17.71895)" /><ellipse cx="473.7439" cy="289.2723" rx="4.906992" ry="4.90694" fill="#666666" fill-opacity="1" transform="matrix(1.000829 0 0 1.000829 -71.80944 -17.71895)" /><ellipse cx="473.7439" cy="289.2723" rx="4.906992" ry="4.90694" fill="none" stroke="#FEFEFE" stroke-width="1" stroke-linecap="butt" stroke-linejoin="miter" stroke-dasharray="" transform="matrix(1.000829 0 0 1.000829 -71.80944 -17.71895)" /><ellipse cx="503.1859" cy="289.2723" rx="4.906975" ry="4.90694" fill="#666666" fill-opacity="1" transform="matrix(1.000829 0 0 1.000829 -71.80944 -17.71895)" /><ellipse cx="503.1859" cy="289.2723" rx="4.906975" ry="4.90694" fill="none" stroke="#FEFEFE" stroke-width="1" stroke-linecap="butt" stroke-linejoin="miter" stroke-dasharray="" transform="matrix(1.000829 0 0 1.000829 -71.80944 -17.71895)" /><line x1="468.8369" y1="269.6442" x2="493.3719" y2="269.6442" stroke="#FEFEFE" stroke-width="2" stroke-linecap="butt" stroke-linejoin="miter" stroke-dasharray="" transform="matrix(1.000829 0 0 1.000829 -71.80944 -17.71895)" /><line x1="468.8369" y1="274.5504" x2="493.3719" y2="274.5504" stroke="#FEFEFE" stroke-width="2" stroke-linecap="butt" stroke-linejoin="miter" stroke-dasharray="" transform="matrix(1.000829 0 0 1.000829 -71.80944 -17.71895)" /><line x1="473.7439" y1="269.6442" x2="473.7439" y2="274.5504" stroke="#FEFEFE" stroke-width="2" stroke-linecap="butt" stroke-linejoin="miter" stroke-dasharray="" transform="matrix(1.000829 0 0 1.000829 -71.80944 -17.71895)" /><line x1="478.6509" y1="269.6442" x2="478.6509" y2="274.5504" stroke="#FEFEFE" stroke-width="2" stroke-linecap="butt" stroke-linejoin="miter" stroke-dasharray="" transform="matrix(1.000829 0 0 1.000829 -71.80944 -17.71895)" /><line x1="483.558" y1="269.6442" x2="483.558" y2="274.5504" stroke="#FEFEFE" stroke-width="2" stroke-linecap="butt" stroke-linejoin="miter" stroke-dasharray="" transform="matrix(1.000829 0 0 1.000829 -71.80944 -17.71895)" /><line x1="488.465" y1="269.6442" x2="488.465" y2="274.5504" stroke="#FEFEFE" stroke-width="2" stroke-linecap="butt" stroke-linejoin="miter" stroke-dasharray="" transform="matrix(1.000829 0 0 1.000829 -71.80944 -17.71895)" /><path d="M432.5123 270 C432.5123 268.6685 432.7746 267.35 433.2843 266.1198 C433.7937 264.8897 434.5406 263.7719 435.4821 262.8304 C436.4237 261.8889 437.5414 261.1421 438.7715 260.6324 C440.0017 260.123 441.3202 259.8607 442.6518 259.8607 C443.9832 259.8607 445.3017 260.123 446.5318 260.6324 C447.762 261.1421 448.8799 261.8889 449.8213 262.8304 C450.7628 263.7719 451.5096 264.8897 452.0193 266.1198 C452.5287 267.35 452.791 268.6685 452.791 270" fill="none" stroke="#666666" stroke-width="3" stroke-linecap="butt" stroke-linejoin="miter" stroke-dasharray="" transform="matrix(1.000829 0 0 1.000829 -71.80944 -17.71895)" /><line x1="417.3034" y1="252" x2="437.5821" y2="252" stroke="#666666" stroke-width="3" stroke-linecap="butt" stroke-linejoin="miter" stroke-dasharray="" transform="matrix(1.000829 0 0 1.000829 -71.80944 -17.71895)" /><line x1="447.7214" y1="252" x2="468" y2="252" stroke="#666666" stroke-width="3" stroke-linecap="butt" stroke-linejoin="miter" stroke-dasharray="" transform="matrix(1.000829 0 0 1.000829 -71.80944 -17.71895)" /><path d="M427.4428 252 L427.4428 252 L427.4428 257.0697 L457.8607 257.0697 L457.8607 252" fill="none" stroke="#666666" stroke-width="3" stroke-linecap="butt" stroke-linejoin="miter" stroke-dasharray="" transform="matrix(1.000829 0 0 1.000829 -71.80944 -17.71895)" /><ellipse cx="442.6517" cy="259.8607" rx="5.06965" ry="5.069658" fill="#FFFFFF" fill-opacity="1" transform="matrix(1.000829 0 0 1.000829 -71.80944 -17.71895)" /><ellipse cx="442.6517" cy="259.8607" rx="5.06965" ry="5.069658" fill="none" stroke="#666666" stroke-width="3" stroke-linecap="butt" stroke-linejoin="miter" stroke-dasharray="" transform="matrix(1.000829 0 0 1.000829 -71.80944 -17.71895)" /><ellipse cx="442.6517" cy="259.8607" rx="2.534821" ry="2.534821" fill="#000000" fill-opacity="1" transform="matrix(1.000829 0 0 1.000829 -71.80944 -17.71895)" /><ellipse cx="442.6517" cy="259.8607" rx="2.534821" ry="2.534821" fill="none" stroke="#666666" stroke-width="1" stroke-linecap="butt" stroke-linejoin="miter" stroke-dasharray="" transform="matrix(1.000829 0 0 1.000829 -71.80944 -17.71895)" /><rect x="189" y="117" width="81" height="27" fill="none" stroke="#000000" stroke-width="1" stroke-linecap="butt" stroke-linejoin="miter" stroke-dasharray="" transform="matrix(1.000829 0 0 1.000829 -71.80944 -17.71895)" /><text x="195.3215" y="136.1211" font-size="15" fill="#000000" fill-opacity="1" font-family="Arial" font-weight="normal" font-style="normal" transform="matrix(1.000829 0 0 1.000829 -71.80944 -17.71895)">Importer 1</text><rect x="189" y="162" width="81" height="27" fill="none" stroke="#000000" stroke-width="1" stroke-linecap="butt" stroke-linejoin="miter" stroke-dasharray="" transform="matrix(1.000829 0 0 1.000829 -71.80944 -17.71895)" /><text x="195.3215" y="181.1211" font-size="15" fill="#000000" fill-opacity="1" font-family="Arial" font-weight="normal" font-style="normal" transform="matrix(1.000829 0 0 1.000829 -71.80944 -17.71895)">Importer 2</text><rect x="189" y="216" width="81" height="27" fill="none" stroke="#000000" stroke-width="1" stroke-linecap="butt" stroke-linejoin="miter" stroke-dasharray="" transform="matrix(1.000829 0 0 1.000829 -71.80944 -17.71895)" /><text x="194.0764" y="235.1211" font-size="15" fill="#000000" fill-opacity="1" font-family="Arial" font-weight="normal" font-style="normal" transform="matrix(1.000829 0 0 1.000829 -71.80944 -17.71895)">Importer N</text><g clip-path="url(#clip_0)"><line x1="108" y1="126" x2="189" y2="126" stroke="#000000" stroke-width="1" stroke-linecap="butt" stroke-linejoin="miter" stroke-dasharray="2,2" transform="matrix(1.000829 0 0 1.000829 -71.80944 -17.71895)" /></g><path d="M178.6123 122.7082 L187.6302 126 L178.6123 129.2918 Z " fill="#000000" fill-opacity="1" transform="matrix(1.000829 0 0 1.000829 -71.80944 -17.71895)" /><path d="M178.6123 122.7082 L187.6302 126 L178.6123 129.2918 Z " fill="none" stroke="#000000" stroke-width="1" stroke-linecap="butt" stroke-linejoin="miter" stroke-dasharray="" transform="matrix(1.000829 0 0 1.000829 -71.80944 -17.71895)" /><g clip-path="url(#clip_1)"><line x1="135" y1="171" x2="189" y2="171" stroke="#000000" stroke-width="1" stroke-linecap="butt" stroke-linejoin="miter" stroke-dasharray="2,2" transform="matrix(1.000829 0 0 1.000829 -71.80944 -17.71895)" /></g><path d="M178.6123 167.7082 L187.6302 171 L178.6123 174.2918 Z " fill="#000000" fill-opacity="1" transform="matrix(1.000829 0 0 1.000829 -71.80944 -17.71895)" /><path d="M178.6123 167.7082 L187.6302 171 L178.6123 174.2918 Z " fill="none" stroke="#000000" stroke-width="1" stroke-linecap="butt" stroke-linejoin="miter" stroke-dasharray="" transform="matrix(1.000829 0 0 1.000829 -71.80944 -17.71895)" /><g clip-path="url(#clip_2)"><line x1="108" y1="225" x2="189" y2="225" stroke="#000000" stroke-width="1" stroke-linecap="butt" stroke-linejoin="miter" stroke-dasharray="2,2" transform="matrix(1.000829 0 0 1.000829 -71.80944 -17.71895)" /></g><path d="M178.6123 221.7082 L187.6302 225 L178.6123 228.2918 Z " fill="#000000" fill-opacity="1" transform="matrix(1.000829 0 0 1.000829 -71.80944 -17.71895)" /><path d="M178.6123 221.7082 L187.6302 225 L178.6123 228.2918 Z " fill="none" stroke="#000000" stroke-width="1" stroke-linecap="butt" stroke-linejoin="miter" stroke-dasharray="" transform="matrix(1.000829 0 0 1.000829 -71.80944 -17.71895)" /><rect x="297" y="153" width="81" height="45" fill="none" stroke="#000000" stroke-width="1" stroke-linecap="butt" stroke-linejoin="miter" stroke-dasharray="" transform="matrix(1.000829 0 0 1.000829 -71.80944 -17.71895)" /><text x="312.4915" y="181.1211" font-size="15" fill="#000000" fill-opacity="1" font-family="Arial" font-weight="normal" font-style="normal" transform="matrix(1.000829 0 0 1.000829 -71.80944 -17.71895)">Service</text><g clip-path="url(#clip_3)"><line x1="270" y1="171" x2="297" y2="171" stroke="#000000" stroke-width="1" stroke-linecap="butt" stroke-linejoin="miter" stroke-dasharray="2,2" transform="matrix(1.000829 0 0 1.000829 -71.80944 -17.71895)" /></g><path d="M286.6123 167.7082 L295.6302 171 L286.6123 174.2918 Z " fill="#000000" fill-opacity="1" transform="matrix(1.000829 0 0 1.000829 -71.80944 -17.71895)" /><path d="M286.6123 167.7082 L295.6302 171 L286.6123 174.2918 Z " fill="none" stroke="#000000" stroke-width="1" stroke-linecap="butt" stroke-linejoin="miter" stroke-dasharray="" transform="matrix(1.000829 0 0 1.000829 -71.80944 -17.71895)" /><g clip-path="url(#clip_4)"><path d="M270 126 L270 126 L324 126 L324 153" fill="none" stroke="#000000" stroke-width="1" stroke-linecap="butt" stroke-linejoin="miter" stroke-dasharray="2,2" transform="matrix(1.000829 0 0 1.000829 -71.80944 -17.71895)" /></g><path d="M327.2918 142.6123 L324 151.6302 L320.7082 142.6123 Z " fill="#000000" fill-opacity="1" transform="matrix(1.000829 0 0 1.000829 -71.80944 -17.71895)" /><path d="M327.2918 142.6123 L324 151.6302 L320.7082 142.6123 Z " fill="none" stroke="#000000" stroke-width="1" stroke-linecap="butt" stroke-linejoin="miter" stroke-dasharray="" transform="matrix(1.000829 0 0 1.000829 -71.80944 -17.71895)" /><g clip-path="url(#clip_5)"><path d="M270 225 L270 225 L324 225 L324 198" fill="none" stroke="#000000" stroke-width="1" stroke-linecap="butt" stroke-linejoin="miter" stroke-dasharray="2,2" transform="matrix(1.000829 0 0 1.000829 -71.80944 -17.71895)" /></g><path d="M320.7082 208.3877 L324 199.3698 L327.2918 208.3877 Z " fill="#000000" fill-opacity="1" transform="matrix(1.000829 0 0 1.000829 -71.80944 -17.71895)" /><path d="M320.7082 208.3877 L324 199.3698 L327.2918 208.3877 Z " fill="none" stroke="#000000" stroke-width="1" stroke-linecap="butt" stroke-linejoin="miter" stroke-dasharray="" transform="matrix(1.000829 0 0 1.000829 -71.80944 -17.71895)" /><line x1="153" y1="54" x2="153" y2="288" stroke="#7F7F7F" stroke-width="2" stroke-linecap="butt" stroke-linejoin="miter" stroke-dasharray="32,8" transform="matrix(1.000829 0 0 1.000829 -71.80944 -17.71895)" /><rect x="513" y="162" width="54" height="27" fill="none" stroke="#999999" stroke-width="1" stroke-linecap="butt" stroke-linejoin="miter" stroke-dasharray="" transform="matrix(1.000829 0 0 1.000829 -71.80944 -17.71895)" /><rect x="513" y="207" width="54" height="27" fill="none" stroke="#999999" stroke-width="1" stroke-linecap="butt" stroke-linejoin="miter" stroke-dasharray="" transform="matrix(1.000829 0 0 1.000829 -71.80944 -17.71895)" /><text x="227.1255" y="207.0845" font-size="14" fill="#000000" fill-opacity="1" font-family="Arial" font-weight="bold" font-style="normal" transform="matrix(1.000829 0 0 1.000829 -71.80944 -17.71895)">⋮</text><g clip-path="url(#clip_6)"><line x1="378" y1="171" x2="513" y2="171" stroke="#000000" stroke-width="1" stroke-linecap="butt" stroke-linejoin="miter" stroke-dasharray="2,2" transform="matrix(1.000829 0 0 1.000829 -71.80944 -17.71895)" /></g><path d="M502.6122 167.7082 L511.6302 171 L502.6122 174.2918 Z " fill="#000000" fill-opacity="1" transform="matrix(1.000829 0 0 1.000829 -71.80944 -17.71895)" /><path d="M502.6122 167.7082 L511.6302 171 L502.6122 174.2918 Z " fill="none" stroke="#000000" stroke-width="1" stroke-linecap="butt" stroke-linejoin="miter" stroke-dasharray="" transform="matrix(1.000829 0 0 1.000829 -71.80944 -17.71895)" /><g clip-path="url(#clip_7)"><path d="M450 243 L450 216 L513 216" fill="none" stroke="#7F7F7F" stroke-width="1" stroke-linecap="butt" stroke-linejoin="miter" stroke-dasharray="2,2" transform="matrix(1.000829 0 0 1.000829 -71.80944 -17.71895)" /></g><path d="M502.6122 212.7082 L511.6302 216 L502.6122 219.2918 Z " fill="#7F7F7F" fill-opacity="1" transform="matrix(1.000829 0 0 1.000829 -71.80944 -17.71895)" /><path d="M502.6122 212.7082 L511.6302 216 L502.6122 219.2918 Z " fill="none" stroke="#7F7F7F" stroke-width="1" stroke-linecap="butt" stroke-linejoin="miter" stroke-dasharray="" transform="matrix(1.000829 0 0 1.000829 -71.80944 -17.71895)" /><line x1="477" y1="90" x2="477" y2="234" stroke="#7F7F7F" stroke-width="2" stroke-linecap="butt" stroke-linejoin="miter" stroke-dasharray="32,8" transform="matrix(1.000829 0 0 1.000829 -71.80944 -17.71895)" /><rect x="585" y="153" width="72" height="90" fill="none" stroke="#999999" stroke-width="1" stroke-linecap="butt" stroke-linejoin="miter" stroke-dasharray="" transform="matrix(1.000829 0 0 1.000829 -71.80944 -17.71895)" /><rect x="594" y="162" width="54" height="27" fill="none" stroke="#999999" stroke-width="1" stroke-linecap="butt" stroke-linejoin="miter" stroke-dasharray="" transform="matrix(1.000829 0 0 1.000829 -71.80944 -17.71895)" /><rect x="594" y="207" width="54" height="27" fill="none" stroke="#999999" stroke-width="1" stroke-linecap="butt" stroke-linejoin="miter" stroke-dasharray="" transform="matrix(1.000829 0 0 1.000829 -71.80944 -17.71895)" /><g clip-path="url(#clip_8)"><line x1="567" y1="171" x2="594" y2="171" stroke="#999999" stroke-width="1" stroke-linecap="butt" stroke-linejoin="miter" stroke-dasharray="2,2" transform="matrix(1.000829 0 0 1.000829 -71.80944 -17.71895)" /></g><path d="M583.6122 167.7082 L592.6302 171 L583.6122 174.2918 Z " fill="#999999" fill-opacity="1" transform="matrix(1.000829 0 0 1.000829 -71.80944 -17.71895)" /><path d="M583.6122 167.7082 L592.6302 171 L583.6122 174.2918 Z " fill="none" stroke="#999999" stroke-width="1" stroke-linecap="butt" stroke-linejoin="miter" stroke-dasharray="" transform="matrix(1.000829 0 0 1.000829 -71.80944 -17.71895)" /><g clip-path="url(#clip_9)"><line x1="567" y1="216" x2="594" y2="216" stroke="#999999" stroke-width="1" stroke-linecap="butt" stroke-linejoin="miter" stroke-dasharray="2,2" transform="matrix(1.000829 0 0 1.000829 -71.80944 -17.71895)" /></g><path d="M583.6122 212.7082 L592.6302 216 L583.6122 219.2918 Z " fill="#999999" fill-opacity="1" transform="matrix(1.000829 0 0 1.000829 -71.80944 -17.71895)" /><path d="M583.6122 212.7082 L592.6302 216 L583.6122 219.2918 Z " fill="none" stroke="#999999" stroke-width="1" stroke-linecap="butt" stroke-linejoin="miter" stroke-dasharray="" transform="matrix(1.000829 0 0 1.000829 -71.80944 -17.71895)" /><text x="134.3203" y="33.12109" font-size="15" fill="#000000" fill-opacity="1" font-family="Arial" font-weight="normal" font-style="normal" transform="matrix(1.000829 0 0 1.000829 -71.80944 -17.71895)">high 
</text><text x="88.0459" y="50.12109" font-size="15" fill="#000000" fill-opacity="1" font-family="Arial" font-weight="normal" font-style="normal" transform="matrix(1.000829 0 0 1.000829 -71.80944 -17.71895)">bandwidth/volume</text><text x="470.2463" y="69.12109" font-size="15" fill="#000000" fill-opacity="1" font-family="Arial" font-weight="normal" font-style="normal" transform="matrix(1.000829 0 0 1.000829 -71.80944 -17.71895)">low 
</text><text x="421.0459" y="86.12109" font-size="15" fill="#000000" fill-opacity="1" font-family="Arial" font-weight="normal" font-style="normal" transform="matrix(1.000829 0 0 1.000829 -71.80944 -17.71895)">bandwidth/volume</text><text x="260.3203" y="51.12109" font-size="15" fill="#000000" fill-opacity="1" font-family="Arial" font-weight="normal" font-style="normal" transform="matrix(1.000829 0 0 1.000829 -71.80944 -17.71895)">high 
</text><text x="211.541" y="68.12109" font-size="15" fill="#000000" fill-opacity="1" font-family="Arial" font-weight="normal" font-style="normal" transform="matrix(1.000829 0 0 1.000829 -71.80944 -17.71895)">computational load</text><text x="569.2463" y="96.12109" font-size="15" fill="#000000" fill-opacity="1" font-family="Arial" font-weight="normal" font-style="normal" transform="matrix(1.000829 0 0 1.000829 -71.80944 -17.71895)">low
</text><text x="517.541" y="113.1211" font-size="15" fill="#000000" fill-opacity="1" font-family="Arial" font-weight="normal" font-style="normal" transform="matrix(1.000829 0 0 1.000829 -71.80944 -17.71895)">computational load</text></svg>