<?xml version="1.0" encoding="utf-8"?><svg viewBox="0 0 693 360" width="100%" height="100%" version="1.1" xmlns:xlink="http://www.w3.org/1999/xlink" xmlns="http://www.w3.org/2000/svg"><defs><clipPath id="clip_0"><path d="M 0 0 l 693,0 l 0,360 l -693,0 z M528.5409 276.0713 C528.5409 275.2463 529.2159 274.5713 530.0409 274.5713 C530.8659 274.5713 531.5409 275.2463 531.5409 276.0713 C531.5409 276.8963 530.8659 277.5713 530.0409 277.5713 C529.2159 277.5713 528.5409 276.8963 528.5409 276.0713 Z " clip-rule="nonzero" /></clipPath><clipPath id="clip_1"><path d="M 0 0 l 693,0 l 0,360 l -693,0 z M513.2404 331.7017 C513.2404 330.8767 513.9154 330.2017 514.7404 330.2017 C515.5654 330.2017 516.2404 330.8767 516.2404 331.7017 C516.2404 332.5267 515.5654 333.2017 514.7404 333.2017 C513.9154 333.2017 513.2404 332.5267 513.2404 331.7017 Z " clip-rule="nonzero" /></clipPath><clipPath id="clip_2"><path d="M 0 0 l 693,0 l 0,360 l -693,0 z M555.3129 396.1943 C555.3129 395.3693 555.9879 394.6943 556.8129 394.6943 C557.6379 394.6943 558.3129 395.3693 558.3129 396.1943 C558.3129 397.0193 557.6379 397.6943 556.8129 397.6943 C555.9879 397.6943 555.3129 397.0193 555.3129 396.1943 Z " clip-rule="nonzero" /></clipPath><clipPath id="clip_3"><path d="M 0 0 l 693,0 l 0,360 l -693,0 z M504.5 419.354 C504.5 418.529 505.175 417.854 506 417.854 C506.825 417.854 507.5 418.529 507.5 419.354 C507.5 420.179 506.825 420.854 506 420.854 C505.175 420.854 504.5 420.179 504.5 419.354 Z " clip-rule="nonzero" /></clipPath><clipPath id="clip_4"><path d="M 0 0 l 693,0 l 0,360 l -693,0 z M504.5 482.3364 C504.5 481.5114 505.175 480.8364 506 480.8364 C506.825 480.8364 507.5 481.5114 507.5 482.3364 C507.5 483.1614 506.825 483.8364 506 483.8364 C505.175 483.8364 504.5 483.1614 504.5 482.3364 Z " clip-rule="nonzero" /></clipPath><clipPath id="clip_5"><path d="M 0 0 l 693,0 l 0,360 l -693,0 z M408.1075 294.9813 C408.1075 294.1563 408.7825 293.4813 409.6075 293.4813 C410.4325 293.4813 411.1075 294.1563 411.1075 294.9813 C411.1075 295.8063 410.4325 296.4813 409.6075 296.4813 C408.7825 296.4813 408.1075 295.8063 408.1075 294.9813 Z " clip-rule="nonzero" /></clipPath><clipPath id="clip_6"><path d="M 0 0 l 693,0 l 0,360 l -693,0 z M412.9818 419.3981 C412.9818 418.5731 413.6567 417.898 414.4818 417.898 C415.3068 417.898 415.9818 418.5731 415.9818 419.3981 C415.9818 420.2231 415.3068 420.8981 414.4818 420.8981 C413.6567 420.8981 412.9818 420.2231 412.9818 419.3981 Z " clip-rule="nonzero" /></clipPath><clipPath id="clip_7"><path d="M 0 0 l 693,0 l 0,360 l -693,0 z M413.363 482.7406 C413.363 481.9156 414.038 481.2406 414.863 481.2406 C415.688 481.2406 416.363 481.9156 416.363 482.7406 C416.363 483.5656 415.688 484.2406 414.863 484.2406 C414.038 484.2406 413.363 483.5656 413.363 482.7406 Z " clip-rule="nonzero" /></clipPath></defs><rect x="0" y="0" width="693" height="360" fill="#FFFFFF" fill-opacity="1" /><rect x="288.2233" y="279.3176" width="89.77673" height="45" fill="none" stroke="#000000" stroke-width="2" stroke-linecap="butt" stroke-linejoin="miter" stroke-dasharray="" transform="matrix(1 0 0 1 -72 -153)" /><text x="321.9825" y="298.9846" font-size="15" fill="#000000" fill-opacity="1" font-family="Arial" font-weight="normal" font-style="normal" transform="matrix(1 0 0 1 -72 -153)">fire
</text><text x="302.4195" y="316.9846" font-size="15" fill="#000000" fill-opacity="1" font-family="Arial" font-weight="normal" font-style="normal" transform="matrix(1 0 0 1 -72 -153)">agencies</text><rect x="531" y="396.1943" width="81" height="45" fill="none" stroke="#000000" stroke-width="2" stroke-linecap="butt" stroke-linejoin="miter" stroke-dasharray="" transform="matrix(1 0 0 1 -72 -153)" /><text x="543.9939" y="424.8613" font-size="15" fill="#000000" fill-opacity="1" font-family="Arial" font-weight="normal" font-style="normal" transform="matrix(1 0 0 1 -72 -153)">vendors</text><rect x="531" y="459.0972" width="81" height="45" fill="none" stroke="#000000" stroke-width="2" stroke-linecap="butt" stroke-linejoin="miter" stroke-dasharray="" transform="matrix(1 0 0 1 -72 -153)" /><text x="541.7014" y="478.7642" font-size="15" fill="#000000" fill-opacity="1" font-family="Arial" font-weight="normal" font-style="normal" transform="matrix(1 0 0 1 -72 -153)">research
</text><text x="556.2949" y="496.7642" font-size="15" fill="#000000" fill-opacity="1" font-family="Arial" font-weight="normal" font-style="normal" transform="matrix(1 0 0 1 -72 -153)">orgs</text><rect x="603" y="171.0972" width="81" height="45" fill="none" stroke="#000000" stroke-width="2" stroke-linecap="butt" stroke-linejoin="miter" stroke-dasharray="" transform="matrix(1 0 0 1 -72 -153)" /><text x="625.1602" y="190.7642" font-size="15" fill="#000000" fill-opacity="1" font-family="Arial" font-weight="normal" font-style="normal" transform="matrix(1 0 0 1 -72 -153)">ODIN
</text><text x="607.5454" y="208.7642" font-size="15" fill="#000000" fill-opacity="1" font-family="Arial" font-weight="normal" font-style="normal" transform="matrix(1 0 0 1 -72 -153)">maintainer</text><path d="M459 277.875 L459 325.1249 C459 329.4563 475.2001 333 495 333 C514.7999 333 531 329.4563 531 325.1249 L531 277.875 Z " fill="#FFFFFF" fill-opacity="1" transform="matrix(1 0 0 1 -72 -153)" /><path d="M459 277.875 L459 325.1249 C459 329.4563 475.2001 333 495 333 C514.7999 333 531 329.4563 531 325.1249 L531 277.875 Z " fill="none" stroke="#000000" stroke-width="2" stroke-linecap="butt" stroke-linejoin="miter" stroke-dasharray="" transform="matrix(1 0 0 1 -72 -153)" /><text x="476.25" y="311.0586" font-size="15" fill="#000000" fill-opacity="1" font-family="Arial" font-weight="bold" font-style="normal" transform="matrix(1 0 0 1 -72 -153)">ODIN</text><ellipse cx="495" cy="277.875" rx="35.99998" ry="7.874991" fill="#FFFFFF" fill-opacity="1" transform="matrix(1 0 0 1 -72 -153)" /><ellipse cx="495" cy="277.875" rx="35.99998" ry="7.874991" fill="none" stroke="#000000" stroke-width="2" stroke-linecap="butt" stroke-linejoin="miter" stroke-dasharray="" transform="matrix(1 0 0 1 -72 -153)" /><path d="M477 408.625 L477 430.3749 C477 432.3688 483.525 434 491.5 434 C499.4749 434 506 432.3688 506 430.3749 L506 408.625 Z " fill="#E5E5E5" fill-opacity="1" transform="matrix(1 0 0 1 -72 -153)" /><path d="M477 408.625 L477 430.3749 C477 432.3688 483.525 434 491.5 434 C499.4749 434 506 432.3688 506 430.3749 L506 408.625 Z " fill="none" stroke="#000000" stroke-width="1" stroke-linecap="butt" stroke-linejoin="miter" stroke-dasharray="" transform="matrix(1 0 0 1 -72 -153)" /><ellipse cx="491.5" cy="408.625" rx="14.5" ry="3.625009" fill="#E5E5E5" fill-opacity="1" transform="matrix(1 0 0 1 -72 -153)" /><ellipse cx="491.5" cy="408.625" rx="14.5" ry="3.625009" fill="none" stroke="#000000" stroke-width="1" stroke-linecap="butt" stroke-linejoin="miter" stroke-dasharray="" transform="matrix(1 0 0 1 -72 -153)" /><path d="M477 471.625 L477 493.3749 C477 495.3688 483.525 497 491.5 497 C499.4749 497 506 495.3688 506 493.3749 L506 471.625 Z " fill="#FFFFFF" fill-opacity="1" transform="matrix(1 0 0 1 -72 -153)" /><path d="M477 471.625 L477 493.3749 C477 495.3688 483.525 497 491.5 497 C499.4749 497 506 495.3688 506 493.3749 L506 471.625 Z " fill="none" stroke="#000000" stroke-width="1" stroke-linecap="butt" stroke-linejoin="miter" stroke-dasharray="" transform="matrix(1 0 0 1 -72 -153)" /><ellipse cx="491.5" cy="471.625" rx="14.5" ry="3.625009" fill="#FFFFFF" fill-opacity="1" transform="matrix(1 0 0 1 -72 -153)" /><ellipse cx="491.5" cy="471.625" rx="14.5" ry="3.625009" fill="none" stroke="#000000" stroke-width="1" stroke-linecap="butt" stroke-linejoin="miter" stroke-dasharray="" transform="matrix(1 0 0 1 -72 -153)" /><g clip-path="url(#clip_0)"><line x1="612.5346" y1="216.0972" x2="530.0409" y2="276.0713" stroke="#000000" stroke-width="1" stroke-linecap="butt" stroke-linejoin="miter" stroke-dasharray="" transform="matrix(1 0 0 1 -72 -153)" /></g><path d="M540.3785 272.6255 L531.1488 275.2658 L536.5071 267.3004 Z " fill="#000000" fill-opacity="1" transform="matrix(1 0 0 1 -72 -153)" /><path d="M540.3785 272.6255 L531.1488 275.2658 L536.5071 267.3004 Z " fill="none" stroke="#000000" stroke-width="1" stroke-linecap="butt" stroke-linejoin="miter" stroke-dasharray="" transform="matrix(1 0 0 1 -72 -153)" /><g clip-path="url(#clip_1)"><g clip-path="url(#clip_2)"><line x1="514.7404" y1="331.7017" x2="556.8129" y2="396.1943" stroke="#000000" stroke-width="1" stroke-linecap="butt" stroke-linejoin="miter" stroke-dasharray="" transform="matrix(1 0 0 1 -72 -153)" /></g></g><path d="M517.6591 342.2004 L515.4888 332.8489 L523.1731 338.6033 Z " fill="#000000" fill-opacity="1" transform="matrix(1 0 0 1 -72 -153)" /><path d="M517.6591 342.2004 L515.4888 332.8489 L523.1731 338.6033 Z " fill="none" stroke="#000000" stroke-width="1" stroke-linecap="butt" stroke-linejoin="miter" stroke-dasharray="" transform="matrix(1 0 0 1 -72 -153)" /><path d="M553.8942 385.6956 L556.0645 395.0471 L548.3802 389.2928 Z " fill="#000000" fill-opacity="1" transform="matrix(1 0 0 1 -72 -153)" /><path d="M553.8942 385.6956 L556.0645 395.0471 L548.3802 389.2928 Z " fill="none" stroke="#000000" stroke-width="1" stroke-linecap="butt" stroke-linejoin="miter" stroke-dasharray="" transform="matrix(1 0 0 1 -72 -153)" /><g clip-path="url(#clip_3)"><line x1="531" y1="419.1022" x2="506" y2="419.354" stroke="#000000" stroke-width="1" stroke-linecap="butt" stroke-linejoin="miter" stroke-dasharray="" transform="matrix(1 0 0 1 -72 -153)" /></g><path d="M516.4204 422.541 L507.3697 419.3402 L516.3541 415.9577 Z " fill="#000000" fill-opacity="1" transform="matrix(1 0 0 1 -72 -153)" /><path d="M516.4204 422.541 L507.3697 419.3402 L516.3541 415.9577 Z " fill="none" stroke="#000000" stroke-width="1" stroke-linecap="butt" stroke-linejoin="miter" stroke-dasharray="" transform="matrix(1 0 0 1 -72 -153)" /><g clip-path="url(#clip_4)"><line x1="531" y1="482.0542" x2="506" y2="482.3364" stroke="#000000" stroke-width="1" stroke-linecap="butt" stroke-linejoin="miter" stroke-dasharray="" transform="matrix(1 0 0 1 -72 -153)" /></g><path d="M516.4243 485.5108 L507.3697 482.3209 L516.35 478.9276 Z " fill="#000000" fill-opacity="1" transform="matrix(1 0 0 1 -72 -153)" /><path d="M516.4243 485.5108 L507.3697 482.3209 L516.35 478.9276 Z " fill="none" stroke="#000000" stroke-width="1" stroke-linecap="butt" stroke-linejoin="miter" stroke-dasharray="" transform="matrix(1 0 0 1 -72 -153)" /><text x="536.3242" y="357" font-size="16" fill="#4C4C4C" fill-opacity="1" font-family="Helvetica" font-weight="normal" font-style="oblique" transform="matrix(1 0 0 1 -72 -153)">“ODIN as a library”</text><rect x="288.2233" y="351.3176" width="89.77673" height="45" fill="none" stroke="#000000" stroke-width="2" stroke-linecap="butt" stroke-linejoin="miter" stroke-dasharray="" transform="matrix(1 0 0 1 -72 -153)" /><text x="317.1375" y="370.9846" font-size="15" fill="#000000" fill-opacity="1" font-family="Arial" font-weight="normal" font-style="normal" transform="matrix(1 0 0 1 -72 -153)">local
</text><text x="289.3275" y="388.9846" font-size="15" fill="#000000" fill-opacity="1" font-family="Arial" font-weight="normal" font-style="normal" transform="matrix(1 0 0 1 -72 -153)">communities</text><rect x="288" y="423.3176" width="90" height="45" fill="none" stroke="#000000" stroke-width="2" stroke-linecap="butt" stroke-linejoin="miter" stroke-dasharray="" transform="matrix(1 0 0 1 -72 -153)" /><text x="314.3196" y="442.9846" font-size="15" fill="#000000" fill-opacity="1" font-family="Arial" font-weight="normal" font-style="normal" transform="matrix(1 0 0 1 -72 -153)">utility
</text><text x="300.9272" y="460.9846" font-size="15" fill="#000000" fill-opacity="1" font-family="Arial" font-weight="normal" font-style="normal" transform="matrix(1 0 0 1 -72 -153)">providers</text><line x1="441" y1="162" x2="441" y2="513" stroke="#000000" stroke-width="1" stroke-linecap="butt" stroke-linejoin="miter" stroke-dasharray="8,4,2,4" transform="matrix(1 0 0 1 -72 -153)" /><text x="345.998" y="173.4453" font-size="18" fill="#000000" fill-opacity="1" font-family="Arial" font-weight="normal" font-style="normal" transform="matrix(1 0 0 1 -72 -153)">User 
</text><text x="312.4678" y="194.4453" font-size="18" fill="#000000" fill-opacity="1" font-family="Arial" font-weight="normal" font-style="normal" transform="matrix(1 0 0 1 -72 -153)">Stakeholders</text><text x="475.4873" y="173.4453" font-size="18" fill="#000000" fill-opacity="1" font-family="Arial" font-weight="normal" font-style="normal" transform="matrix(1 0 0 1 -72 -153)">Provider 
</text><text x="456.4678" y="194.4453" font-size="18" fill="#000000" fill-opacity="1" font-family="Arial" font-weight="normal" font-style="normal" transform="matrix(1 0 0 1 -72 -153)">Stakeholders</text><text x="75" y="296" font-size="15" fill="#666666" fill-opacity="1" font-family="Arial" font-weight="normal" font-style="italic" transform="matrix(1 0 0 1 -72 -153)">- ICS operations/planning
</text><text x="75" y="313" font-size="15" fill="#666666" fill-opacity="1" font-family="Arial" font-weight="normal" font-style="italic" transform="matrix(1 0 0 1 -72 -153)">  (situational awareness)</text><text x="75" y="350" font-size="15" fill="#666666" fill-opacity="1" font-family="Arial" font-weight="normal" font-style="italic" transform="matrix(1 0 0 1 -72 -153)">- monitoring &amp; alarm
</text><text x="75" y="367" font-size="15" fill="#666666" fill-opacity="1" font-family="Arial" font-weight="normal" font-style="italic" transform="matrix(1 0 0 1 -72 -153)">  (local sensors, fire danger)
</text><text x="75" y="384" font-size="15" fill="#666666" fill-opacity="1" font-family="Arial" font-weight="normal" font-style="italic" transform="matrix(1 0 0 1 -72 -153)">- planning &amp; awareness
</text><text x="75" y="401" font-size="15" fill="#666666" fill-opacity="1" font-family="Arial" font-weight="normal" font-style="italic" transform="matrix(1 0 0 1 -72 -153)">  (escape routes, obstructions)
</text><text x="75" y="418" font-size="15" fill="#666666" fill-opacity="1" font-family="Arial" font-weight="normal" font-style="italic" transform="matrix(1 0 0 1 -72 -153)">- fire agency support info</text><text x="75" y="451.9372" font-size="15" fill="#666666" fill-opacity="1" font-family="Arial" font-weight="normal" font-style="italic" transform="matrix(1 0 0 1 -72 -153)">- monitoring of critical
</text><text x="75" y="468.9372" font-size="15" fill="#666666" fill-opacity="1" font-family="Arial" font-weight="normal" font-style="italic" transform="matrix(1 0 0 1 -72 -153)">  infrastructure</text><text x="639.4905" y="421.761" font-size="16" fill="#4C4C4C" fill-opacity="1" font-family="Arial" font-weight="normal" font-style="italic" transform="matrix(1 0 0 1 -72 -153)">sensors, …</text><g clip-path="url(#clip_5)"><line x1="409.6075" y1="294.9813" x2="459.0804" y2="294.9813" stroke="#000000" stroke-width="1" stroke-linecap="butt" stroke-linejoin="miter" stroke-dasharray="" transform="matrix(1 0 0 1 -72 -153)" /></g><path d="M419.9953 298.2731 L410.9773 294.9813 L419.9953 291.6895 Z " fill="#000000" fill-opacity="1" transform="matrix(1 0 0 1 -72 -153)" /><path d="M419.9953 298.2731 L410.9773 294.9813 L419.9953 291.6895 Z " fill="none" stroke="#000000" stroke-width="1" stroke-linecap="butt" stroke-linejoin="miter" stroke-dasharray="" transform="matrix(1 0 0 1 -72 -153)" /><g clip-path="url(#clip_6)"><line x1="414.4818" y1="419.3981" x2="477.5916" y2="419.3981" stroke="#000000" stroke-width="1" stroke-linecap="butt" stroke-linejoin="miter" stroke-dasharray="" transform="matrix(1 0 0 1 -72 -153)" /></g><path d="M424.8695 422.6899 L415.8515 419.3981 L424.8695 416.1063 Z " fill="#000000" fill-opacity="1" transform="matrix(1 0 0 1 -72 -153)" /><path d="M424.8695 422.6899 L415.8515 419.3981 L424.8695 416.1063 Z " fill="none" stroke="#000000" stroke-width="1" stroke-linecap="butt" stroke-linejoin="miter" stroke-dasharray="" transform="matrix(1 0 0 1 -72 -153)" /><g clip-path="url(#clip_7)"><line x1="414.863" y1="482.7406" x2="476.9104" y2="482.7406" stroke="#000000" stroke-width="1" stroke-linecap="butt" stroke-linejoin="miter" stroke-dasharray="" transform="matrix(1 0 0 1 -72 -153)" /></g><path d="M425.2508 486.0324 L416.2328 482.7406 L425.2508 479.4488 Z " fill="#000000" fill-opacity="1" transform="matrix(1 0 0 1 -72 -153)" /><path d="M425.2508 486.0324 L416.2328 482.7406 L425.2508 479.4488 Z " fill="none" stroke="#000000" stroke-width="1" stroke-linecap="butt" stroke-linejoin="miter" stroke-dasharray="" transform="matrix(1 0 0 1 -72 -153)" /><text x="639.4905" y="485" font-size="16" fill="#4C4C4C" fill-opacity="1" font-family="Arial" font-weight="normal" font-style="italic" transform="matrix(1 0 0 1 -72 -153)">simulators, …</text><text x="594.4905" y="241.7609" font-size="16" fill="#4C4C4C" fill-opacity="1" font-family="Arial" font-weight="normal" font-style="italic" transform="matrix(1 0 0 1 -72 -153)">system architecture,
</text><text x="594.4905" y="259.7609" font-size="16" fill="#4C4C4C" fill-opacity="1" font-family="Arial" font-weight="normal" font-style="italic" transform="matrix(1 0 0 1 -72 -153)">    generic components</text><text x="540.4905" y="295.761" font-size="16" fill="#4C4C4C" fill-opacity="1" font-family="Arial" font-weight="normal" font-style="italic" transform="matrix(1 0 0 1 -72 -153)">open source
</text><text x="540.4905" y="313.761" font-size="16" fill="#4C4C4C" fill-opacity="1" font-family="Arial" font-weight="normal" font-style="italic" transform="matrix(1 0 0 1 -72 -153)">repository</text></svg>